<svg width="157" height="97" viewBox="0 0 157 97" fill="none" xmlns="http://www.w3.org/2000/svg">
    <path fill-rule="evenodd" clip-rule="evenodd" d="M96 28C103.732 28 110 21.732 110 14C110 6.26801 103.732 0 96 0C88.268 0 82 6.26801 82 14C82 21.732 88.268 28 96 28ZM9 97C4.02944 97 0 92.9706 0 88V83.3199C0 81.4135 0.605399 79.5563 1.72892 78.016L34.4807 33.1169C37.8861 28.4484 44.7461 28.1531 48.5402 32.5117L76.8689 65.0557C80.1267 68.7984 85.7992 69.1981 89.5498 65.9494L113.34 45.3421C116.786 42.3576 121.919 42.4205 125.29 45.4885L154.057 71.667C155.932 73.3726 157 75.7893 157 78.3234V88C157 92.9706 152.971 97 148 97H9Z" fill="#2E3548"/>
</svg>
