<svg width="34" height="34" viewBox="0 0 34 34" fill="none" xmlns="http://www.w3.org/2000/svg">
    <circle opacity="0.05" r="17" transform="matrix(-1 0 0 1 17 17)" fill="white"/>
    <path d="M20 7.5C20 8.88071 18.8807 10 17.5 10C16.1193 10 15 8.88071 15 7.5C15 6.11929 16.1193 5 17.5 5C18.8807 5 20 6.11929 20 7.5Z" fill="#5F6986"/>
    <path d="M20 16.5C20 17.8807 18.8807 19 17.5 19C16.1193 19 15 17.8807 15 16.5C15 15.1193 16.1193 14 17.5 14C18.8807 14 20 15.1193 20 16.5Z" fill="#5F6986"/>
    <path d="M20 25.5C20 26.8807 18.8807 28 17.5 28C16.1193 28 15 26.8807 15 25.5C15 24.1193 16.1193 23 17.5 23C18.8807 23 20 24.1193 20 25.5Z" fill="#5F6986"/>
</svg>
