<svg width="514" height="231" fill="none" xmlns="http://www.w3.org/2000/svg"><ellipse cx="257" cy="198.498" rx="257" ry="32.5" fill="url(#Group 799__a)" fill-opacity=".12"/><path fill-rule="evenodd" clip-rule="evenodd" d="m370.869 8.558.191 14.59-12.787 7.558.204 15.497 12.278 6.83-12.209 7.216.204 15.497.115.064.194 14.734 12.98 7.22.192 14.588 13.605 7.568 12.786-7.558 12.244 6.811.19 14.426 12.678 7.052-12.503 7.391.203 15.497 12.685 7.056.201 15.305 13.606 7.568 13.402-7.922-.189-14.445.569-.337-.003-.185 12.509-7.394-.192-14.664.192-.114-.007-.563 12.514-7.397-.203-15.497-12.768-7.102-.185-14.084 12.788-7.56-.191-14.587 12.788-7.56-.203-15.497-12.809-7.124-.183-13.906-13.605-7.568-13.403 7.922.177 13.52-.17.101.002.19-12.787 7.56.192 14.587-12.175 7.197-12.356-6.873-.191-14.59-12.353-6.872 12.168-7.192-.204-15.497-12.981-7.22-.192-14.59-13.605-7.57-13.403 7.922Zm80.817 160.593 11.28-6.667-.174-13.237-11.279 6.668.173 13.236Zm-.867-14.265-11.829-6.579 11.434-6.759 11.828 6.579-11.433 6.759Zm-13.981-6.56-12.342 7.296.182 13.866-12.014-6.682-.185-14.062 12.173-7.196 12.186 6.778Zm-10.925 20.826-.169-12.829 11.28-6.667.168 12.829-11.279 6.667Zm-.543 2.34.18 13.674 12.357 6.874 12.173-7.195-.171-13.018-11.604 6.86-12.935-7.195Zm24.188-.897-11.272 6.663-12.02-6.686 11.272-6.663 12.02 6.686Zm.894-1.106-12.015-6.683-.176-13.458 12.014 6.683.177 13.458Zm25.021-29.743-11.285 6.67-.177-13.506-12.817-7.129 11.765-6.955 12.329 6.858.185 14.062Zm-12.691-6.102-11.633-6.471.172 13.106 11.632 6.47-.171-13.105Zm-13.265-7.794v.017l-11.461 6.774-.174-13.262 11.635 6.471Zm-23.795 14.69 11.289-6.673.171 13.048-11.46-6.375Zm12.529-6.575.171 13.049 11.285-6.671-.171-13.048-11.285 6.67Zm24.257-16.344-.182-13.842-11.733-6.526.185 14.073-12.001 7.094 11.53 6.413 12.201-7.212Zm-51.346.298 12.592-7.443-.169-12.866-12.173 7.196-12.357-6.873.175 13.349 11.932 6.637Zm13.833-7.328 11.732 6.527-.17-12.999-11.733-6.526.171 12.998Zm-12.71 22.274-.178-13.577 12.285-7.262 11.76 6.541-12.035 7.114.182 13.867-12.014-6.683Zm13.08-6.482.168 12.829 11.282-6.668-.168-12.83-11.282 6.669Zm23.019-30.169-11.388 6.732-11.558-6.43 11.387-6.731 11.559 6.43Zm14.71 6.389-11.558-6.43 11.839-6.998-.185-14.069 11.733 6.526.182 13.871-12.011 7.1Zm-25.123 14.854-.175-13.354 11.559-6.832.175 13.353-11.559 6.833Zm.226-43.187 11.558 6.43 11.388-6.732-11.559-6.43-11.387 6.732Zm12.371 21.036-.175-13.35 11.558-6.832.175 13.35-11.558 6.832Zm-1.414-13.334.172 13.162-11.732-6.526-.173-13.162 11.733 6.526Zm-24.534.13 11.559-6.832.176 13.354-11.559 6.832-.176-13.353Zm-1.239.018.175 13.35-11.658-6.485-.175-13.35 11.658 6.485Zm27.078-30.183 11.893 6.615 11.716-6.925-11.893-6.616-11.716 6.926Zm12.7 20.841-.158-12.092 11.558-6.831.158 12.092-11.558 6.831Zm-1.4-12.272.161 12.289-11.733-6.527-.161-12.288 11.733 6.526Zm-24.542-.55 11.558-6.832.175 13.35-11.558 6.832-.175-13.35Zm38.477 20.498-11.893-6.615 12.165-7.191-.178-13.52.171-.1-.002-.164 11.56 6.43.185 14.062-12.008 7.098Zm-1.007-29.901-12.531-6.97-12.002 7.095-.159-12.092 12.173-7.196 12.358 6.874.161 12.289Zm-64.202 25.203.173 13.16-11.632 6.876-.172-13.16 11.631-6.876Zm-.102-2.196L398.1 66.728l-12.246 7.238-.173-13.146 12.337-7.292 12.191 6.781.174 13.251Zm-23.741 1.38 11.476-6.784 11.575 6.438-11.476 6.784-11.575-6.438Zm-.686 1.222 11.658 6.485.173 13.16-11.658-6.486-.173-13.159Zm13.863 20.777 11.553-6.829 11.574 6.438-11.553 6.829-11.574-6.438Zm-14.28-6.437 11.561 6.431-11.476 6.784-11.562-6.431 11.477-6.784Zm-25.425-13.998.174 13.306 11.733 6.527-.175-13.307-11.732-6.526Zm12.133 5.332-11.561-6.431 11.591-6.852 11.561 6.431-11.591 6.852Zm12.253-7.902-12.242-6.809-12.287 7.263-.176-13.438 12.048-7.122 12.484 6.945.173 13.161Zm-11.416 8.95.173 13.244 11.559-6.832-.174-13.245-11.558 6.832Zm11.922-23.295 11.592-6.852-11.73-6.524-11.592 6.852 11.73 6.524Zm12.809 38.361.176 13.346-12.173 7.196-12.358-6.874-.175-13.347 12.358 6.874 12.172-7.195Zm-13.752-65.962.173 13.16-11.558 6.831-.173-13.16 11.558-6.83Zm12.767-9.177-12.171 7.194-12.36-6.875-.182-13.87 12.173-7.196 12.358 6.874.182 13.873Zm.378 28.848-11.733-6.526-.172-13.161 11.733 6.526.172 13.161Zm1.239-.016-.182-13.879-12.352-6.87 11.716-6.926 12.192 6.781.184 14.062-11.558 6.832Zm-15.023-20.717-11.895-6.616-12.007 7.097.184 14.062 11.733 6.526-.182-13.877 12.167-7.192ZM270.165 9.13l12.771-7.005 13.356 8-.277 14.589 12.743 7.633-.277 14.588 12.744 7.634-.294 15.495-12.793 7.018-.268 14.164 12.743 7.633-.294 15.496-12.314 6.756 12.161 7.285-.294 15.495-.115.063-.279 14.736-13.025 7.145-.276 14.588-13.65 7.488-12.743-7.633-13.023 7.144-12.744-7.633-13.024 7.145-.163-.098-12.857 7.052-13.356-8 .277-14.588-12.743-7.634.276-14.589-12.742-7.633.294-15.496 12.792-7.017.269-14.164-12.744-7.633.294-15.496 12.315-6.756-12.162-7.285.294-15.495.115-.063.28-14.736 13.024-7.145.277-14.588 13.65-7.488 12.746 7.635 12.426-6.817.001-.064 13.65-7.488 12.959 7.763Zm-14.459 36.994.253-13.347-11.697 6.417-.254 13.347 11.698-6.417Zm14.573-21.878.264-13.91 12.366-6.783 12.131 7.266-.264 13.87-12.233 6.712-.16-.096-.168.091-11.936-7.15Zm-13.101-21.45 12.1 7.248-.267 14.096-11.772 6.458.266-14.003-12.18-7.297 11.853-6.502Zm.033 29.294 12.233-6.71 11.348 6.797-12.059 6.616-.271 14.257-11.517-6.9.266-14.06Zm26.728.146 11.6-6.363 11.967 7.168-.264 13.87-11.77 6.458.267-14.064-11.8-7.069ZM268.436 54.48l-12.134-7.269-12.395 6.8-.277 14.588-12.392 6.798 12.125 7.263-.294 15.496-12.981 7.121-.261 13.759.185.111-.004.19 12.743 7.634-.276 14.588 12.13 7.266 12.397-6.801.277-14.588 12.392-6.798-12.125-7.263.294-15.496 12.598-6.91.273-14.386-12.552-7.519.277-14.584Zm14.279-8.033.253-13.346 11.518 6.9-.253 13.346-11.518-6.9Zm-12.241 7.617 11.6-6.364 11.348 6.798-11.6 6.364-11.348-6.798Zm-.809.96-.254 13.346 11.517 6.899.253-13.347-11.516-6.898Zm24.274 13.812-11.772 6.458.25-13.16 11.771-6.459-.249 13.161Zm-12.464-22.411-11.77 6.457.253-13.347 11.771-6.457-.254 13.347Zm13.703 22.434.25-13.16 11.517 6.9-.25 13.16-11.517-6.9Zm.894-14.218 11.933-6.546 11.968 7.169-.267 14.06-11.772 6.458.263-13.877-12.125-7.264Zm-13.969 36.117.246-13 11.904 7.13 12.204-6.694-.251 13.216L294.193 98l-12.09-7.242Zm12.177-7.298 11.689-6.412-11.423-6.843-11.689 6.413 11.423 6.842Zm-50.753-73.11-11.802 6.474-.253 13.347 11.802-6.475.253-13.347Zm12.474 20.19-11.487-6.882.252-13.25 11.486 6.882-.251 13.25Zm-13.596 37.318.251-13.248-12.323 6.76-12.203-7.31-.25 13.146 12.292 7.363 12.233-6.711ZM231.181 45.47l11.59 6.943.25-13.157-11.59-6.943-.25 13.157Zm-12.686-6.767-.25 13.16 11.697-6.417.25-13.16-11.697 6.417Zm12.043 8.018-11.614 6.37 11.436 6.85 11.613-6.37-11.435-6.85Zm1.691-15.552 11.514 6.897 11.613-6.37-11.514-6.898-11.613 6.37Zm-40.233 35.755.255-13.438 12.243 7.334 12.282-6.738-.249 13.164-12.525 6.87-12.006-7.192Zm24.123-13.894-11.549-6.92-11.597 6.362 11.548 6.918 11.598-6.362Zm-23.714-1.658 11.771-6.457.253-13.308-11.772 6.458-.252 13.307Zm13.007-6.303 11.518 6.9.252-13.25-11.518-6.899-.252 13.249ZM217.2 68.43l-11.765 6.454 11.548 6.918 11.766-6.454L217.2 68.43Zm13.286-51.635-12.13-7.266-12.398 6.801-.253 13.35 12.397-6.8 12.13 7.265.254-13.35ZM206.477 30.67l11.436 6.85 11.597-6.363-11.435-6.85-11.598 6.363Zm22.33 74.605-12.131-7.267-12.355 6.778-.252 13.264 12.587-6.905 11.904 7.13.247-13Zm-12.463-22.412-.25 13.163-11.518-6.899.25-13.163 11.518 6.9Zm.989 13.187.249-13.163 11.772-6.458-.25 13.163-11.771 6.458Zm13.26-19.597 11.518 6.9-.267 14.06-12.208 6.697-11.673-6.992 12.367-6.784.263-13.881Zm-27.006-.513-11.772 6.46-.266 14.06 11.967 7.169 11.93-6.545-12.122-7.26.263-13.882Zm11.783 94.219 11.598-6.362-11.797-7.067.267-14.067-11.772 6.457-.263 13.871 11.967 7.168Zm14.75-6.302 11.348 6.797 11.598-6.362-11.348-6.798-11.598 6.363Zm-14.25 21.356.263-13.871 11.771-6.458-.266 14.068 11.96 7.165L228 192.48l-12.13-7.266Zm13.02-6.955 11.518 6.899.253-13.35-11.518-6.899-.253 13.35Zm13.01-6.427-.253 13.35 11.771-6.458.253-13.35-11.771 6.458Zm39.179-79.803-12.013 6.59-.267 14.061 11.517 6.899.264-13.877 12.174-6.679-11.675-6.994Zm-26.128 71.23.253-13.35 11.696-6.417-.253 13.351-11.696 6.416Zm-.986-13.373-.253 13.35-11.518-6.9.253-13.35 11.518 6.9Zm-24.782 12.885.25-13.161 11.772-6.457-.25 13.16-11.772 6.458Zm-.989-13.185-.253 13.351-11.518-6.9.253-13.35 11.518 6.899Zm.644-1.25 11.597-6.363-11.348-6.797-11.597 6.362 11.348 6.798Zm12.661-20.672-.253 13.35-11.518-6.899.253-13.35 11.518 6.899Zm-12.756-6.923-11.772 6.457-.25 13.161 11.772-6.458.25-13.16Zm-13.011 6.434-.25 13.159-11.517-6.899.249-13.159 11.518 6.899Zm-.895 14.217-12.125-7.263.264-13.877-11.772 6.458-.267 14.06 11.967 7.168 11.933-6.546Zm13.215-21.976-11.884 6.52-11.423-6.843 11.884-6.519 11.423 6.842Zm38.736 66.598-12.131-7.266.253-13.35 12.131 7.266 12.397-6.801-.254 13.351-12.396 6.8Zm.378-28.043-11.61 6.369 11.512 6.896 11.61-6.369-11.512-6.896Zm25.498-13.8-.25 13.16-11.696 6.417.249-13.161 11.697-6.416Zm-.682-1.227-11.61 6.369-11.433-6.849 11.61-6.369 11.433 6.849Zm.797-.967-12.203-7.31-12.323 6.761.251-13.252 12.231-6.71 12.293 7.365-.249 13.146Zm-11.377 22.899 11.597-6.362 11.433 6.848-11.597 6.363-11.433-6.849Zm-13.265-21.255 11.591 6.943-.249 13.16-11.591-6.943.249-13.16Zm50.522-1.073.255-13.438-12.004-7.191-12.527 6.872-.25 13.161 12.283-6.738 12.243 7.334Zm-12.32 7.374-11.548-6.918 11.597-6.362 11.549 6.918-11.598 6.362Zm.394 1.197 11.772-6.458-.253 13.308-11.771 6.457.252-13.307Zm-12.754-7.053 11.518 6.899-.251 13.249-11.518-6.9.251-13.248Zm11.496-22.918-11.766 6.454-11.549-6.918 11.766-6.454 11.549 6.918Zm-12.921 65.355-12.13-7.266.253-13.35 12.131 7.266 12.397-6.801-.254 13.35-12.397 6.801Zm2.262-86.494-.25 13.16 11.517 6.899.25-13.16-11.517-6.899Zm-1.489 13.136.25-13.16-11.772 6.458-.25 13.16 11.772-6.458Zm25.767.489-11.772 6.458.264-13.878-12.125-7.263 11.933-6.546 11.967 7.168-.267 14.061ZM37.471 10.398l13.403-7.922 13.606 7.567.191 14.59 12.981 7.222.204 15.497-12.167 7.192 12.352 6.87.192 14.591 12.355 6.873 12.175-7.196-.192-14.589 12.788-7.558-.003-.19.171-.101-.178-13.52 13.403-7.923 13.606 7.568.182 13.906 12.809 7.125.203 15.497-12.788 7.559.192 14.588-12.788 7.559.184 14.081 12.768 7.102.203 15.497-12.514 7.397.008.563-.193.114.193 14.664-12.509 7.394.002.185-.569.337.19 14.445-13.403 7.922-13.606-7.568-.2-15.305-12.686-7.056-.203-15.497 12.504-7.391-12.68-7.052-.188-14.423-12.244-6.81-12.786 7.557-13.606-7.567-.191-14.588-12.981-7.22-.193-14.735-.116-.064-.203-15.497 12.208-7.216-12.278-6.83-.204-15.497 12.788-7.559-.192-14.588Zm92.097 153.922-11.279 6.667-.174-13.236 11.28-6.668.173 13.237Zm-23.975-14.177 11.828 6.579 11.433-6.759-11.828-6.579-11.433 6.759Zm-2.153.019-12.186-6.778-12.173 7.196.185 14.061 12.014 6.683-.182-13.867 12.342-7.295Zm-11.093 7.997.168 12.829 11.28-6.667-.169-12.829-11.28 6.667Zm-.195 28.843-.18-13.674 12.935 7.195 11.604-6.86.171 13.018-12.173 7.195-12.357-6.874Zm12.737-7.908 11.272-6.663-12.021-6.686-11.272 6.663 12.021 6.686Zm.151-14.452 12.014 6.683-.177-13.459-12.014-6.682.177 13.458Zm25.751-16.39 11.284-6.67-.184-14.062-12.326-6.856-11.765 6.954 12.813 7.128.178 13.506Zm-13.039-19.243 11.632 6.471.172 13.105-11.632-6.471-.172-13.105Zm-1.633-1.306v-.017l-11.635-6.471.174 13.262 11.461-6.774Zm-12.506 8-11.289 6.673 11.46 6.375-.171-13.048Zm1.412 13.147-.172-13.049 11.285-6.67.171 13.048-11.284 6.671Zm23.904-43.231.181 13.838-12.204 7.214-11.527-6.412 12.001-7.094-.184-14.072 11.733 6.526Zm-38.573 6.693-12.595 7.445-11.929-6.635-.175-13.35 12.357 6.873 12.173-7.196.169 12.863Zm12.974 6.641-11.733-6.526-.17-12.995 11.732 6.526.171 12.995Zm-24.62 2.174.177 13.574 12.014 6.683-.182-13.867 12.032-7.112-11.757-6.539-12.285 7.261Zm13.426 19.921-.169-12.829 11.282-6.669.169 12.829-11.282 6.669Zm11.463-36.263 11.388-6.731-11.559-6.43-11.388 6.732 11.559 6.429Zm14.539-6.772 11.559 6.429 12.01-7.1-.182-13.87-11.732-6.526.184 14.069-11.839 6.998Zm-13.74 7.929.175 13.354 11.559-6.832-.175-13.354-11.559 6.832Zm11.96-23.403-11.559-6.43 11.388-6.731 11.559 6.43-11.388 6.73Zm-.602 1.272.172 13.162-11.732-6.525-.173-13.163 11.733 6.526Zm-12.974-6.701-11.56 6.832.176 13.354 11.559-6.833-.175-13.353Zm26.172-16.719-11.893-6.615 11.717-6.925 11.893 6.615-11.717 6.925Zm-11.959 23.404 11.559-6.832.175 13.35-11.559 6.832-.175-13.35Zm11.366-21.45.162 12.29-11.734-6.527-.161-12.29 11.733 6.527Zm-12.984-7.382-11.557 6.832.175 13.35 11.558-6.832-.176-13.35Zm15.026 20.715 11.893 6.615 12.008-7.098-.185-14.061-11.56-6.43.002.163-.171.1.178 13.52-12.165 7.19Zm-.8-13.152 11.558-6.832.158 12.092-11.557 6.832-.159-12.092Zm11.686-10.134-.161-12.289-12.357-6.873-12.173 7.195.158 12.092 12.003-7.095 12.53 6.97ZM90.159 97.31l-.175-13.35-11.659-6.484.175 13.35 11.659 6.484ZM77.26 90.756l-.172-13.16-11.632 6.875.173 13.16 11.631-6.875Zm-.448-28.608.174 13.252-12.284-6.833-12.246 7.239-.172-13.147 12.336-7.292 12.192 6.782ZM64.72 69.996l-11.477 6.783 11.575 6.438 11.476-6.783-11.574-6.438Zm-.504 14.49-11.659-6.485.173 13.16 11.658 6.484-.172-13.159Zm13.757 7.464L66.42 98.779l11.574 6.438 11.553-6.83-11.574-6.437Zm-14.271 6.823L52.14 92.342l-11.476 6.783 11.562 6.431 11.476-6.783ZM26.89 91.65l-.174-13.306 11.733 6.526.174 13.306-11.732-6.526Zm.398-14.406 11.562 6.431 11.59-6.851-11.561-6.431-11.591 6.851Zm23.814-1.47-.173-13.162-12.484-6.944-12.048 7.121.176 13.438 12.287-7.263 12.242 6.81ZM39.86 97.967l-.174-13.244 11.559-6.833.173 13.245-11.558 6.832Zm23.34-43.39-11.59 6.852-11.73-6.525 11.591-6.852 11.73 6.525ZM39.887 100.11l.175 13.347 12.358 6.873 12.173-7.195-.175-13.347-12.173 7.195-12.358-6.873Zm10.951-53.124-.173-13.16-11.557 6.832.172 13.16 11.558-6.832Zm.423-15.143 12.171-7.194-.182-13.873-12.357-6.873-12.173 7.195.182 13.87 12.36 6.875Zm.817 15.128L63.81 53.5l-.173-13.162-11.733-6.526.173 13.161Zm12.971 6.51 11.558-6.832-.184-14.061-12.191-6.782-11.717 6.926 12.353 6.87.181 13.88ZM50.027 32.766l-12.168 7.192.182 13.876-11.733-6.526-.184-14.062L38.13 26.15l11.896 6.617Z" fill="#20C4F5"/><path fill-rule="evenodd" clip-rule="evenodd" d="M352.281 166.321c3.35 4.086 16.098 20.744 12.476 33.592-.862 3.062-3.151 5.352-6.616 6.624-8.223 3.018-23.625.347-41.044-6.494-.03.02-.059.042-.087.063-.079.058-.158.117-.254.154-.617.24-15.337 5.731-33.337-4.954-17.999-10.686-19.735-25.947-19.8-26.591-.011-.101.007-.195.024-.289.006-.035.013-.07.018-.106-14.225-11.945-23.721-24.054-24.735-32.557-.429-3.585.611-6.616 3.01-8.767 10.063-9.022 31.097-5.623 36.366-4.594 8.08-11.272 18.742-16.692 19.196-16.918l.195-.109c7.27-3.988 15.375-5.526 23.426-4.449 5.162.693 10.302 2.495 15.663 5.47 0 0 5.628-1.667 4.025-6.434-1.602-4.767 4.026-6.433 4.026-6.433-.927-1.31-1.058-3.047-.173-4.462 1.211-1.935 3.849-2.52 5.894-1.306s2.72 3.766 1.509 5.701c-.884 1.413-2.53 2.097-4.15 1.895 0 0-5.099 2.08-3.591 5.636 1.507 3.556-4.46 7.229-4.46 7.229 5.414 3.406 9.421 7.033 12.492 11.325 4.662 6.52 6.935 14.295 6.569 22.482.002.423-.06 12.134-6.642 24.292Zm-52.767-57.94-.158.087-.017.009c-.536.278-10.669 5.536-18.14 16.001 1.867 3.335 10.449 17.292 28.872 28.229 7.82 4.643 15.29 7.502 21.616 9.262 1.284.357 2.521.669 3.703.941 1.653.38 3.201.684 4.625.925 4.312.731 7.495.896 9.047.928 6.217-11.433 6.283-22.777 6.284-22.892.332-7.504-1.716-14.54-5.926-20.424-3.045-4.258-7.136-7.828-12.871-11.233l-.033-.019c-5.561-3.298-10.585-5.159-15.806-5.859-7.264-.974-14.596.425-21.196 4.045Zm-31.524 63.455c1.519 4.784 5.76 13.731 17.25 20.552 11.554 6.86 21.639 6.415 26.68 5.525-7.474-3.215-15.214-7.14-22.837-11.666-7.617-4.522-14.739-9.42-21.093-14.411Zm22.918 11.494c26.208 15.559 54.531 24.153 65.881 19.989 2.459-.903 3.936-2.338 4.512-4.386 3.211-11.395-9.242-27.394-11.981-30.728-4.005-.055-21.547-.99-41.075-12.583-19.639-11.659-28.615-26.706-30.309-29.793-4.307-.841-24.616-4.279-33.527 3.711-1.602 1.438-2.235 3.373-1.932 5.916 1.402 11.734 22.224 32.316 48.431 47.874Z" fill="#031020"/><path fill-rule="evenodd" clip-rule="evenodd" d="M356.789 203.319c-11.35 4.164-39.673-4.43-65.881-19.989-26.207-15.558-47.029-36.14-48.431-47.874-.303-2.543.33-4.478 1.932-5.916 8.911-7.99 29.22-4.552 33.527-3.711 1.694 3.087 10.67 18.134 30.309 29.793 19.528 11.593 37.07 12.528 41.075 12.583 2.739 3.334 15.192 19.333 11.981 30.728-.576 2.048-2.053 3.483-4.512 4.386Z" fill="#031020"/><path d="M285.24 192.388c-11.49-6.821-15.731-15.768-17.25-20.552 6.354 4.991 13.476 9.889 21.093 14.411 7.623 4.526 15.363 8.451 22.837 11.666-5.041.89-15.126 1.335-26.68-5.525Zm14.274-84.007-.158.087-.017.009c-.536.278-10.669 5.536-18.14 16.001 1.867 3.335 10.449 17.292 28.872 28.229 7.82 4.643 15.29 7.502 21.616 9.262 1.284.357 2.521.669 3.703.941 1.653.38 3.201.684 4.625.925 4.312.731 7.495.896 9.047.928 6.217-11.433 6.283-22.777 6.284-22.892.332-7.504-1.716-14.54-5.926-20.424-3.045-4.258-7.136-7.828-12.871-11.233l-.033-.019c-5.561-3.298-10.585-5.159-15.806-5.859-7.264-.974-14.596.425-21.196 4.045Z" fill="#031020"/><path d="m318.529 108.864 12.466 3.066-11.106.776-1.969 4.59-7.608-2.092-2.887 4.747-5.931-1.081-10.264 7.426 8.456-10.115 6.658.343 2.887-4.748 6.321 1.827 2.977-4.739Z" fill="#031020"/><path clip-rule="evenodd" d="M352.281 166.321c3.35 4.086 16.098 20.744 12.476 33.592-.862 3.062-3.151 5.352-6.616 6.624-8.223 3.018-23.625.347-41.044-6.494-.03.02-.059.042-.087.063-.079.058-.158.117-.254.154-.617.24-15.337 5.731-33.337-4.954-17.999-10.686-19.735-25.947-19.8-26.591-.011-.101.007-.195.024-.289.006-.035.013-.07.018-.106-14.225-11.945-23.721-24.054-24.735-32.557-.429-3.585.611-6.616 3.01-8.767 10.063-9.022 31.097-5.623 36.366-4.594 8.08-11.272 18.742-16.692 19.196-16.918l.195-.109c7.27-3.988 15.375-5.526 23.426-4.449 5.162.693 10.302 2.495 15.663 5.47 0 0 5.628-1.667 4.025-6.434-1.602-4.767 4.026-6.433 4.026-6.433-.927-1.31-1.058-3.047-.173-4.462 1.211-1.935 3.849-2.52 5.894-1.306s2.72 3.766 1.509 5.701c-.884 1.413-2.53 2.097-4.15 1.895 0 0-5.099 2.08-3.591 5.636 1.507 3.556-4.46 7.229-4.46 7.229 5.414 3.406 9.421 7.033 12.492 11.325 4.662 6.52 6.935 14.295 6.569 22.482.002.423-.06 12.134-6.642 24.292Zm-52.767-57.94-.158.087-.017.009c-.536.278-10.669 5.536-18.14 16.001 1.867 3.335 10.449 17.292 28.872 28.229 7.82 4.643 15.29 7.502 21.616 9.262 1.284.357 2.521.669 3.703.941 1.653.38 3.201.684 4.625.925 4.312.731 7.495.896 9.047.928 6.217-11.433 6.283-22.777 6.284-22.892.332-7.504-1.716-14.54-5.926-20.424-3.045-4.258-7.136-7.828-12.871-11.233l-.033-.019c-5.561-3.298-10.585-5.159-15.806-5.859-7.264-.974-14.596.425-21.196 4.045Zm-31.524 63.455c1.519 4.784 5.76 13.731 17.25 20.552 11.554 6.86 21.639 6.415 26.68 5.525-7.474-3.215-15.214-7.14-22.837-11.666-7.617-4.522-14.739-9.42-21.093-14.411Zm22.918 11.494c26.208 15.559 54.531 24.153 65.881 19.989 2.459-.903 3.936-2.338 4.512-4.386 3.211-11.395-9.242-27.394-11.981-30.728-4.005-.055-21.547-.99-41.075-12.583-19.639-11.659-28.615-26.706-30.309-29.793-4.307-.841-24.616-4.279-33.527 3.711-1.602 1.438-2.235 3.373-1.932 5.916 1.402 11.734 22.224 32.316 48.431 47.874Z" stroke="#5F6986"/><path clip-rule="evenodd" d="M356.789 203.319c-11.35 4.164-39.673-4.43-65.881-19.989-26.207-15.558-47.029-36.14-48.431-47.874-.303-2.543.33-4.478 1.932-5.916 8.911-7.99 29.22-4.552 33.527-3.711 1.694 3.087 10.67 18.134 30.309 29.793 19.528 11.593 37.07 12.528 41.075 12.583 2.739 3.334 15.192 19.333 11.981 30.728-.576 2.048-2.053 3.483-4.512 4.386Z" stroke="#5F6986"/><path d="M285.24 192.388c-11.49-6.821-15.731-15.768-17.25-20.552 6.354 4.991 13.476 9.889 21.093 14.411 7.623 4.526 15.363 8.451 22.837 11.666-5.041.89-15.126 1.335-26.68-5.525Zm14.274-84.007-.158.087-.017.009c-.536.278-10.669 5.536-18.14 16.001 1.867 3.335 10.449 17.292 28.872 28.229 7.82 4.643 15.29 7.502 21.616 9.262 1.284.357 2.521.669 3.703.941 1.653.38 3.201.684 4.625.925 4.312.731 7.495.896 9.047.928 6.217-11.433 6.283-22.777 6.284-22.892.332-7.504-1.716-14.54-5.926-20.424-3.045-4.258-7.136-7.828-12.871-11.233l-.033-.019c-5.561-3.298-10.585-5.159-15.806-5.859-7.264-.974-14.596.425-21.196 4.045Z" stroke="#5F6986"/><path d="m318.529 108.864 12.466 3.066-11.106.776-1.969 4.59-7.608-2.092-2.887 4.747-5.931-1.081-10.264 7.426 8.456-10.115 6.658.343 2.887-4.748 6.321 1.827 2.977-4.739Z" stroke="#5F6986"/><defs><linearGradient id="Group 799__a" x1="257" y1="165.998" x2="257" y2="230.998" gradientUnits="userSpaceOnUse"><stop stop-color="#C4C4C4" stop-opacity="0"/><stop offset="1" stop-color="#C4C4C4"/></linearGradient></defs></svg>