<svg xmlns="http://www.w3.org/2000/svg" width="180" height="37" fill="none" xmlns:v="https://vecta.io/nano"><g filter="url(#A)"><path d="M45.228 7.179h7.379a12 12 0 0 1 1.541.083c.422.051.769.13 1.042.237s.482.239.627.396.258.343.326.556.107.452.115.716l.019.876-.026.921a2.53 2.53 0 0 1-.147.767c-.081.226-.213.426-.396.601s-.437.313-.774.428-.757.202-1.272.262-1.142.089-1.893.089h-5.313V17h-1.228V7.179zm1.228 4.911h5.313l1.375-.026c.375-.021.684-.058.927-.109s.431-.124.563-.217a.8.8 0 0 0 .288-.371c.064-.153.1-.337.109-.55l.019-.774-.019-.716c-.008-.2-.045-.369-.109-.505a.71.71 0 0 0-.288-.326c-.132-.081-.32-.143-.563-.185s-.552-.077-.927-.09l-1.375-.019h-5.313v3.888zm17.648-.614l1.733.083c.482.055.887.139 1.215.249s.597.241.793.403.347.347.454.556.175.435.205.691.051.533.051.831a4.1 4.1 0 0 1-.083.844c-.051.26-.145.499-.281.716s-.322.411-.556.582-.533.316-.895.435-.799.209-1.311.269-1.102.096-1.784.096h-1.637c-.614 0-1.151-.023-1.611-.07s-.857-.117-1.189-.211-.607-.22-.825-.364-.392-.322-.524-.518a1.98 1.98 0 0 1-.269-.678c-.051-.256-.077-.537-.077-.844h1.228c0 .384.056.684.166.902s.294.381.55.492.59.175 1.004.205l1.547.038h1.637c.716 0 1.311-.034 1.784-.102s.85-.177 1.132-.326.48-.343.595-.582.173-.537.173-.882-.041-.633-.121-.863-.232-.413-.467-.55-.556-.232-.978-.288-.974-.09-1.656-.09h-1.688c-.75 0-1.394-.028-1.931-.083s-.98-.134-1.343-.237-.652-.237-.87-.39a1.74 1.74 0 0 1-.499-.537 1.91 1.91 0 0 1-.217-.665 5.86 5.86 0 0 1-.051-.799c0-.298.026-.575.077-.831s.156-.486.3-.691.343-.394.595-.556.573-.296.965-.403a8.51 8.51 0 0 1 1.426-.249c.554-.055 1.206-.083 1.957-.083h1.228l1.611.07c.46.043.857.113 1.189.211s.607.213.825.358.396.311.524.512.224.42.275.671a4.21 4.21 0 0 1 .077.838h-1.228c0-.384-.055-.684-.166-.902s-.294-.379-.55-.486-.593-.179-1.01-.205l-1.547-.045h-1.228l-2.02.09c-.529.055-.946.151-1.253.288s-.52.32-.639.55-.179.518-.179.863c0 .213.015.403.045.569s.09.313.179.441a1.12 1.12 0 0 0 .39.313c.166.085.386.156.659.211a7.6 7.6 0 0 0 .997.121l1.413.032h1.688zm6.087-4.297h1.637l4.501 4.808 4.501-4.808h1.637l-5.525 5.729V17h-1.228v-4.092L70.19 7.179zm25.116 0v1.023h-4.911V17h-1.228V8.202h-4.911V7.179h11.049zM108.605 17h-1.227v-1.841l-.02-.767c-.008-.217-.044-.403-.108-.556s-.156-.277-.288-.371-.32-.166-.563-.217-.552-.085-.927-.102l-1.375-.032h-5.518V17h-1.228V7.179h6.95l1.893.083c.516.051.94.13 1.272.237.337.107.595.239.774.396a1.37 1.37 0 0 1 .396.556 2.19 2.19 0 0 1 .147.716l.026.876a5.76 5.76 0 0 1-.09 1.081c-.055.307-.151.569-.287.786a1.57 1.57 0 0 1-.544.524c-.226.128-.509.217-.85.269.341.051.614.141.818.269s.362.294.473.499.184.448.218.729.057.601.057.959V17zm-10.026-4.911h5.723l1.375-.026c.375-.021.684-.058.927-.109s.43-.124.563-.217.228-.217.287-.371a1.58 1.58 0 0 0 .109-.55l.019-.774-.019-.716a1.31 1.31 0 0 0-.109-.505c-.059-.136-.155-.245-.287-.326s-.32-.143-.563-.185-.552-.077-.927-.09l-1.375-.019h-5.723v3.888zm21.894 2.66h-7.776L111.47 17h-1.432l5.729-9.821h1.636l5.73 9.821H121.7l-1.227-2.251zm-.614-1.023l-3.274-5.729-3.274 5.729h6.548zM125.997 17h-1.228V7.179h2.155l9.003 8.594V7.179h1.228V17h-1.637l-9.521-8.798V17zm23.843-6.752c0-.512-.055-.916-.166-1.215s-.294-.524-.55-.678-.592-.252-1.01-.294-.927-.064-1.541-.064h-2.871l-1.381.051c-.371.03-.678.094-.921.192s-.43.239-.562.422-.228.426-.288.729-.094.676-.102 1.119l-.013 1.579.013 1.586c.012.439.049.81.108 1.113s.154.546.282.729.319.324.562.422a3.3 3.3 0 0 0 .921.198l1.381.045h2.871l1.234-.038c.345-.026.639-.073.882-.141s.439-.162.589-.281.264-.269.345-.448.143-.401.173-.652a8.04 8.04 0 0 0 .044-.895h1.228c0 .409-.026.78-.077 1.113s-.143.622-.275.882a2.12 2.12 0 0 1-.518.665c-.217.188-.492.343-.824.467s-.729.207-1.19.262-.997.089-1.611.089h-2.871c-.75 0-1.383-.047-1.899-.141s-.933-.226-1.266-.409-.59-.422-.774-.703a3.09 3.09 0 0 1-.396-.991c-.081-.379-.128-.808-.141-1.285l-.019-1.586.019-1.586c.013-.478.06-.906.141-1.285s.217-.71.396-.991.442-.514.774-.697.755-.326 1.266-.416 1.149-.141 1.899-.141h2.871c.614 0 1.151.03 1.611.09s.857.143 1.19.262.607.262.824.441.39.39.518.633.224.518.275.825.077.648.077 1.023h-1.228zM153.12 17V7.179h9.822v1.023h-8.594v3.274h8.185v1.023h-8.185v3.478h8.594V17h-9.822z" fill="#5f6986"/><path d="M45.228 7.179v-.5h-.5v.5h.5zm8.92.083l-.066.496h.006l.06-.496zm1.669.633l-.368.338.005.005.363-.344zm.441 1.272l-.5.016v.008l.499-.024zm-.006 1.797l-.499-.03v.008l.499.023zm-.147.767l-.469-.174-.002.005.471.169zm-.396.601l.345.362h0l-.345-.362zm-.774.428l-.162-.473h-.002l.164.473zm-1.272.262l-.057-.497h-.001l.058.497zm-7.206.089v-.5h-.5v.5h.5zm0 3.888v.5h.5V17h-.5zm-1.228 0h-.5v.5h.5V17zm1.228-4.911h-.5v.5h.5v-.5zm6.688-.026l.023.499h.005l-.028-.499zm1.777-.697l-.462-.192-.004.011.466.181zm.109-.55l-.499-.029v.009l.5.02zm0-1.49l-.5.021.001.011.499-.032zm-.109-.505l-.458.2.005.012.453-.212zm-.85-.512l-.095.491.008.001.086-.492zm-.927-.09l-.017.5h0l.017-.5zm-6.688-.019v-.5h-.5v.5h.5zm-1.228-.523h7.379v-1h-7.379v1zm7.379 0c.596 0 1.087.027 1.475.079l.131-.991c-.447-.059-.984-.087-1.607-.087v1zm1.481.079c.397.048.7.12.92.206l.364-.931c-.325-.127-.717-.213-1.164-.267l-.12.993zm.92.206c.227.088.362.184.44.269l.736-.677c-.212-.231-.494-.399-.813-.524l-.364.931zm.445.274c.096.102.167.221.213.365l.953-.305c-.09-.282-.237-.534-.439-.747l-.727.687zm.213.365c.052.162.084.354.092.58l1-.032c-.01-.302-.054-.588-.139-.852l-.953.305zm.092.588l.019.852h1l-.02-.9-.999.048zm.019.852l-.025.89.998.061.026-.951h-1zm-.025.898c-.011.237-.052.441-.117.616l.938.347c.106-.285.163-.593.178-.918l-.999-.045zm-.118.621a1.04 1.04 0 0 1-.271.408l.69.724c.236-.225.413-.491.522-.794l-.941-.338zm-.271.408c-.109.104-.294.216-.59.317l.323.946c.377-.129.708-.302.957-.54l-.69-.724zm-.592.318c-.286.099-.671.181-1.166.238l.115.993c.537-.062 1-.155 1.378-.286l-.327-.945zm-1.167.238c-.486.057-1.096.086-1.835.086v1l1.951-.093-.116-.993zm-1.835.086h-5.313v1h5.313v-1zm-5.813.5V17h1v-3.888h-1zm.5 3.388h-1.228v1h1.228v-1zm-.728.5V7.179h-1V17h1zm.728-4.411h5.313v-1h-5.313v1zm5.313 0l1.398-.026-.046-.999-1.352.025v1zm1.403-.026a6.88 6.88 0 0 0 1.002-.119l-.206-.979c-.209.044-.491.078-.852.099l.057.998zm1.002-.119c.278-.059.539-.15.749-.299l-.579-.816c-.055.039-.168.092-.376.136l.206.979zm.749-.299a1.3 1.3 0 0 0 .464-.597l-.932-.362a.3.3 0 0 1-.111.144l.579.816zm.46-.586a2.09 2.09 0 0 0 .147-.722l-.999-.04c-.007.17-.035.292-.071.378l.923.385zm.146-.713l.02-.803h-1l-.018.744.998.059zm.02-.803l-.02-.748-.998.064.018.684h1zm-.02-.737c-.01-.246-.056-.483-.156-.696l-.905.424c.028.06.055.159.062.314l.999-.043zm-.15-.684a1.21 1.21 0 0 0-.485-.552l-.523.853a.21.21 0 0 1 .091.1l.916-.401zm-.485-.552c-.208-.127-.465-.204-.738-.252l-.173.985c.213.037.331.085.388.119l.523-.853zm-.729-.25c-.278-.054-.616-.085-1.005-.098l-.034.999c.361.012.642.041.85.081l.189-.982zm-1.005-.098l-1.392-.019v1l1.357.019.035-.999zm-1.392-.019h-5.313v1h5.313v-1zm-5.813.5v3.888h1V8.202h-1zm21.095 3.606l-.16.474.007.002.153-.476zm1.247.959l-.445.227.002.004.443-.231zm.205.691l-.497.058.001.008.496-.066zm-.032 1.675l-.489-.103-.001.006.49.096zm-3.043 2.001l-.058-.497h-.004l.063.496zm-6.221-.186l-.141.48.006.002.136-.481zm-.825-.364l-.283.412.006.004.277-.416zm-.524-.518l-.422.269.007.01.415-.279zm-.269-.678l-.49.098v.002l.49-.1zm-.077-.844v-.5h-.5v.5h.5zm1.228 0h.5v-.5h-.5v.5zm.716 1.394l-.199.459.007.003.192-.461zm1.004.205l-.036.499h.006l.03-.499zm6.695-.972l.45.217.001-.003-.452-.214zm.051-1.746l-.474.158.003.008.472-.166zm-.467-.55l-.255.43.003.002.252-.432zm-.978-.288l-.07.495.005.001.065-.496zm-5.275-.173l-.052.497h0l.051-.497zm-1.343-.237l-.141.48.005.002.136-.481zm-.87-.39l-.294.405.005.004.288-.409zm-.499-.537l-.437.242.004.007.434-.249zm-.217-.665l-.495.068v.001l.495-.069zm.026-1.63l-.489-.106-.002.008.49.098zm.3-.691l.408.289.003-.004-.411-.285zm1.56-.959l.131.483.004-.001-.135-.482zm6.221-.262l-.051.497h.005l.046-.498zm1.189.211l-.141.48.006.002.136-.481zm.825.358l-.277.416.01.006.268-.422zm.524.512l-.422.269.007.01.415-.279zm.352 1.509v.5h.5v-.5h-.5zm-1.228 0h-.5v.5h.5v-.5zm-.716-1.388l-.199.459.007.003.192-.462zm-1.01-.205l-.036.499h.005l.031-.499zm-4.796.045l.052.497h.004l-.056-.497zm-1.848 2.711l-.41.287.005.008.006.008.398-.302zm2.046.646l-.032.499h.006l.027-.499zm3.101.532l1.676.08.114-.993a15.93 15.93 0 0 0-1.79-.086v1zm1.676.08c.459.053.827.13 1.112.226l.32-.947c-.372-.126-.814-.214-1.318-.272l-.114.993zm1.119.229c.293.094.494.203.627.312l.637-.771c-.26-.214-.587-.374-.959-.494l-.305.952zm.627.312c.148.122.254.255.327.398l.891-.455c-.14-.275-.337-.513-.581-.714l-.637.771zm.329.402a1.48 1.48 0 0 1 .151.517l.993-.116a2.48 2.48 0 0 0-.258-.864l-.887.462zm.152.526a5.8 5.8 0 0 1 .047.765h1c0-.317-.018-.617-.056-.897l-.991.132zm.047.765a3.61 3.61 0 0 1-.073.741l.979.205c.063-.301.094-.617.094-.947h-1zm-.074.748c-.04.202-.111.383-.214.547l.847.531c.17-.271.286-.567.348-.885l-.981-.193zm-.214.547c-.098.157-.237.305-.427.443l.588.809c.279-.203.511-.442.686-.721l-.847-.531zm-.427.443a2.75 2.75 0 0 1-.758.364l.313.95c.397-.131.746-.296 1.033-.505l-.588-.809zm-.758.364c-.321.106-.723.19-1.212.247l.116.993c.534-.062 1.006-.157 1.409-.29l-.313-.95zm-1.217.247c-.481.061-1.054.092-1.721.092v1c.697 0 1.313-.033 1.846-.1l-.125-.992zm-1.721.092h-1.637v1h1.637v-1zm-1.637 0a15.61 15.61 0 0 1-1.561-.068l-.101.995c.482.049 1.036.073 1.662.073v-1zm-1.561-.068c-.441-.045-.807-.111-1.104-.195l-.271.962a7.57 7.57 0 0 0 1.274.227l.101-.995zm-1.099-.193c-.299-.088-.525-.191-.689-.301l-.555.832c.27.18.595.32.961.428l.283-.959zm-.683-.297c-.172-.118-.299-.247-.393-.385l-.829.559c.171.254.393.47.656.651l.566-.825zm-.386-.375a1.48 1.48 0 0 1-.2-.508l-.98.199a2.48 2.48 0 0 0 .337.847l.843-.538zm-.2-.507c-.044-.218-.067-.466-.067-.746h-1c0 .334.028.649.086.942l.981-.196zm-.567-.246h1.228v-1h-1.228v1zm.728-.5c0 .422.059.812.221 1.129l.891-.454c-.06-.118-.112-.329-.112-.675h-1zm.221 1.129c.171.336.45.574.797.724l.398-.918c-.165-.072-.253-.161-.303-.261l-.891.454zm.803.727c.324.135.717.21 1.16.242l.072-.997c-.384-.028-.66-.089-.847-.167l-.385.923zm1.166.242l1.578.039v-1a25.47 25.47 0 0 1-1.517-.037l-.061.998zm1.578.039h1.637v-1h-1.637v1zm1.637 0c.73 0 1.35-.035 1.855-.107l-.143-.99c-.441.063-1.01.097-1.713.097v1zm1.855-.107c.505-.073.944-.193 1.295-.379l-.469-.883c-.212.112-.527.209-.969.273l.143.99zm1.295-.379c.356-.189.641-.454.811-.806l-.901-.434c-.06.125-.172.248-.379.357l.469.883zm.812-.809c.154-.326.221-.697.221-1.097h-1c0 .292-.049.508-.124.668l.904.428zm.221-1.097c0-.38-.044-.729-.15-1.029l-.943.332c.056.16.093.387.093.697h1zm-.147-1.021a1.49 1.49 0 0 0-.69-.824l-.503.864c.143.083.21.175.244.276l.949-.316zm-.686-.822c-.313-.185-.714-.294-1.168-.353l-.13.992c.39.051.641.135.788.222l.51-.86zm-1.163-.353c-.455-.064-1.033-.094-1.726-.094v1c.671 0 1.197.03 1.586.085l.14-.99zm-1.726-.094h-1.688v1h1.688v-1zm-1.688 0c-.739 0-1.365-.027-1.88-.08l-.103.995a19.67 19.67 0 0 0 1.982.086v-1zm-1.879-.08c-.515-.054-.933-.128-1.259-.221l-.272.962c.399.113.877.196 1.427.253l.103-.995zm-1.253-.219c-.33-.097-.564-.207-.722-.319l-.577.817c.277.195.622.345 1.017.461l.282-.959zm-.717-.315c-.169-.123-.284-.252-.359-.381l-.867.498c.156.271.373.5.639.693l.587-.809zm-.355-.374a1.41 1.41 0 0 1-.16-.492l-.99.139a2.41 2.41 0 0 0 .275.838l.875-.484zm-.16-.491a5.36 5.36 0 0 1-.047-.731h-1c0 .305.018.595.056.868l.991-.137zm-.047-.731c0-.27.023-.514.067-.733l-.981-.196c-.058.292-.086.603-.086.929h1zm.065-.725c.042-.193.116-.36.22-.507l-.816-.578a2.36 2.36 0 0 0-.381.874l.977.212zm.223-.511c.102-.146.249-.288.455-.421l-.541-.841a2.58 2.58 0 0 0-.735.692l.822.57zm.455-.421c.196-.126.467-.243.826-.341l-.262-.965c-.425.116-.798.267-1.105.465l.541.841zm.829-.342c.361-.101.806-.18 1.341-.233l-.099-.995c-.574.057-1.079.145-1.511.265l.269.963zm1.341-.233c.533-.053 1.168-.081 1.907-.081v-1l-2.006.086.099.995zm1.907-.081h1.228v-1h-1.228v1zm1.228 0l1.561.068.101-.995c-.482-.049-1.036-.073-1.662-.073v1zm1.565.068c.438.041.801.106 1.094.193l.283-.959c-.372-.11-.802-.185-1.285-.229l-.092.996zm1.1.194c.297.084.521.185.683.293l.555-.832c-.272-.182-.599-.32-.966-.423l-.272.962zm.693.299c.166.106.286.226.371.358l.843-.538a2.17 2.17 0 0 0-.678-.665l-.536.844zm.378.369c.092.137.16.299.2.492l.98-.199c-.063-.31-.178-.596-.35-.851l-.829.559zm.2.492a3.72 3.72 0 0 1 .067.738h1a4.71 4.71 0 0 0-.087-.937l-.98.199zm.567.238h-1.228v1h1.228v-1zm-.728.5c0-.422-.059-.812-.221-1.129l-.891.454c.06.118.112.329.112.674h1zm-.221-1.129c-.172-.337-.454-.575-.803-.72l-.385.923c.162.068.247.154.297.252l.891-.454zm-.797-.718c-.329-.142-.729-.217-1.178-.245l-.061.998c.386.024.659.085.842.164l.398-.918zm-1.173-.245l-1.583-.046v1l1.512.043.071-.997zm-1.583-.046h-1.228v1h1.228v-1zm-1.228 0l-2.077.093.112.994c.503-.057 1.156-.086 1.964-.086v-1zm-2.073.092c-.554.058-1.03.162-1.404.328l.406.914c.24-.106.599-.195 1.102-.247l-.104-.995zm-1.404.328c-.38.169-.695.419-.88.777l.888.46c.053-.103.164-.219.399-.323l-.406-.914zm-.88.777c-.166.321-.235.693-.235 1.093h1c0-.291.051-.494.123-.633l-.888-.46zm-.235 1.093a3.73 3.73 0 0 0 .053.657l.984-.177c-.023-.131-.037-.29-.037-.481h-1zm.053.657c.041.232.127.448.261.64l.819-.573c-.045-.064-.078-.142-.097-.243l-.984.177zm.273.655c.147.194.341.343.56.456l.456-.89c-.113-.058-.18-.118-.22-.171l-.797.604zm.56.456c.221.114.489.196.787.256l.199-.98c-.248-.05-.419-.109-.53-.166l-.456.89zm.787.256c.302.061.658.104 1.065.13l.065-.998a7.1 7.1 0 0 1-.931-.112l-.199.98zm1.07.131l1.44.033v-1c-.54 0-1.001-.011-1.386-.031l-.054.999zm1.44.033h1.688v-1h-1.688v1zm7.775-4.797v-.5h-1.177l.817.847.36-.347zm1.637 0l.365-.342-.148-.158h-.217v.5zm4.501 4.808l-.365.342.365.39.365-.39-.365-.342zm4.501-4.808v-.5h-.217l-.148.158.365.342zm1.637 0l.36.347.817-.847h-1.177v.5zm-5.525 5.729l-.36-.347-.14.145v.202h.5zm0 4.092v.5h.5V17h-.5zm-1.228 0h-.5v.5h.5V17zm0-4.092h.5v-.202l-.14-.145-.36.347zM70.19 7.679h1.637v-1H70.19v1zm1.272-.158l4.501 4.808.73-.683-4.501-4.808-.73.683zm5.231 4.808l4.501-4.808-.73-.683-4.501 4.808.73.683zm4.136-4.65h1.637v-1H80.83v1zm1.277-.847l-5.525 5.729.72.694 5.524-5.729-.72-.694zm-5.665 6.076V17h1v-4.092h-1zm.5 3.592h-1.228v1h1.228v-1zm-.728.5v-4.092h-1V17h1zm-.14-4.439L70.55 6.832l-.72.694 5.525 5.729.72-.694zm19.231-5.382h.5v-.5h-.5v.5zm0 1.023v.5h.5v-.5h-.5zm-4.911 0v-.5h-.5v.5h.5zm0 8.798v.5h.5V17h-.5zm-1.228 0h-.5v.5h.5V17zm0-8.798h.5v-.5h-.5v.5zm-4.911 0h-.5v.5h.5v-.5zm0-1.023v-.5h-.5v.5h.5zm10.549 0v1.023h1V7.179h-1zm.5.523h-4.911v1h4.911v-1zm-5.411.5V17h1V8.202h-1zm.5 8.298h-1.228v1h1.228v-1zm-.728.5V8.202h-1V17h1zm-.5-9.298h-4.911v1h4.911v-1zm-4.411.5V7.179h-1v1.023h1zm-.5-.523h11.049v-1H84.257v1zM108.605 17v.5h.5V17h-.5zm-1.227 0h-.5v.5h.5V17zm-.02-2.609l-.499.02v.01l.499-.03zm-.108-.556l-.466.181.004.011.462-.192zm-1.778-.691l-.028.499h.005l.023-.5zm-6.893-.032v-.5h-.5v.5h.5zm0 3.888v.5h.5V17h-.5zm-1.228 0h-.5v.5h.5V17zm0-9.821v-.5h-.5v.5h.5zm8.843.083l-.054.497h.004l.05-.498zm1.272.237l-.152.476h.001l.151-.477zm.774.396l-.331.375.005.004.326-.379zm.396.556l-.467.178.003.008.464-.186zm.147.716l-.499.024V9.2l.499-.032zm-.064 1.957l-.491-.094-.001.005.492.089zm-.831 1.311l.246.435.007-.003-.253-.432zm-.85.269l-.074-.495v.989l.074-.494zm1.509 1.496l-.497.06.001.007.496-.068zm-9.969-2.11h-.5v.5h.5v-.5zm7.098-.026l.023.499h.005l-.028-.499zm1.777-.697l-.461-.192-.005.011.466.181zm.109-.55l-.499-.029-.001.009.5.02zm0-1.49l-.5.021.001.011.499-.032zm-.109-.505l-.458.2.006.012.452-.212zm-.85-.512l-.095.491.009.001.086-.492zm-.927-.09l-.017.5h0l.017-.5zm-7.098-.019v-.5h-.5v.5h.5zm10.026 8.298h-1.227v1h1.227v-1zm-.727.5v-1.841h-1V17h1zm0-1.841l-.02-.797-.999.06.019.737h1zm-.02-.787c-.01-.259-.054-.507-.147-.729l-.923.385a1.13 1.13 0 0 1 .071.383l.999-.039zm-.142-.718a1.3 1.3 0 0 0-.465-.597l-.578.816a.3.3 0 0 1 .111.144l.932-.362zm-.465-.597c-.209-.149-.471-.24-.749-.299l-.206.979a1.06 1.06 0 0 1 .377.136l.578-.816zm-.749-.299a6.42 6.42 0 0 0-1.007-.113l-.046.999c.361.016.641.048.847.092l.206-.979zm-1.001-.112l-1.404-.033v1l1.347.031.057-.998zm-1.404-.033h-5.518v1h5.518v-1zm-6.018.5V17h1v-3.888h-1zm.5 3.388h-1.228v1h1.228v-1zm-.728.5V7.179h-1V17h1zm-.5-9.321h6.95v-1h-6.95v1zm6.95 0l1.839.08.108-.994c-.536-.058-1.186-.086-1.947-.086v1zm1.843.081c.496.049.883.123 1.17.215l.305-.952c-.378-.121-.84-.205-1.376-.258l-.099.995zm1.171.216c.3.095.486.2.594.295l.661-.75c-.25-.22-.579-.38-.953-.498l-.302.953zm.599.299c.124.107.205.224.255.355l.935-.355a1.88 1.88 0 0 0-.538-.758l-.652.758zm.258.363c.062.154.101.337.112.555l.999-.048c-.015-.311-.074-.606-.183-.878l-.928.371zm.112.563l.025.844h1l-.027-.908-.998.064zm.025.844c0 .386-.028.714-.081.986l.982.188c.067-.35.099-.743.099-1.175h-1zm-.082.992a1.7 1.7 0 0 1-.219.61l.847.531c.177-.282.292-.607.356-.963l-.984-.178zm-.219.61a1.07 1.07 0 0 1-.372.358l.505.863a2.06 2.06 0 0 0 .714-.69l-.847-.531zm-.366.355c-.159.09-.379.164-.678.209l.148.989c.383-.057.729-.162 1.022-.328l-.492-.87zm-.678 1.198c.3.045.5.119.627.198l.53-.848c-.282-.176-.627-.282-1.009-.339l-.148.989zm.627.198c.134.084.231.187.299.313l.879-.476a1.83 1.83 0 0 0-.648-.685l-.53.848zm.299.313a1.54 1.54 0 0 1 .16.551l.993-.12c-.04-.33-.128-.636-.274-.907l-.879.476zm.161.558c.035.254.053.551.053.892h1c0-.375-.02-.718-.062-1.027l-.991.135zm.053.892V17h1v-1.841h-1zm-9.526-2.569h5.723v-1h-5.723v1zm5.723 0l1.398-.026-.046-.999-1.352.025v1zm1.403-.026a6.89 6.89 0 0 0 1.002-.119l-.206-.979c-.209.044-.491.078-.853.099l.057.998zm1.002-.119c.278-.059.539-.15.749-.299l-.579-.816c-.054.039-.168.092-.376.136l.206.979zm.749-.299a1.3 1.3 0 0 0 .464-.597l-.932-.362c-.024.064-.06.108-.111.144l.579.816zm.46-.586c.092-.221.136-.466.147-.722l-1-.04a1.08 1.08 0 0 1-.07.378l.923.385zm.146-.713l.02-.803h-1l-.018.744.998.059zm.02-.803l-.02-.748-.998.064.018.684h1zm-.019-.737a1.82 1.82 0 0 0-.156-.696l-.905.424c.028.06.055.159.061.314l1-.043zm-.151-.684a1.21 1.21 0 0 0-.484-.552l-.523.853a.21.21 0 0 1 .091.1l.916-.401zm-.484-.552c-.208-.127-.465-.204-.738-.252l-.172.985a1.17 1.17 0 0 1 .387.119l.523-.853zm-.729-.25c-.278-.054-.616-.085-1.005-.098l-.034.999c.361.012.641.041.849.081l.19-.982zm-1.005-.098l-1.392-.019v1l1.358.019.034-.999zm-1.392-.019h-5.723v1h5.723v-1zm-6.223.5v3.888h1V8.202h-1zm22.394 6.547l.439-.239-.143-.261h-.296v.5zm-7.776 0v-.5h-.296l-.143.261.439.239zM111.47 17v.5h.297l.142-.261-.439-.239zm-1.432 0l-.432-.252-.439.752h.871V17zm5.729-9.821v-.5h-.288l-.144.248.432.252zm1.636 0l.432-.252-.144-.248h-.288v.5zM123.132 17v.5h.871l-.439-.752-.432.252zm-1.432 0l-.439.239.142.261h.297V17zm-1.841-3.274v.5h.861l-.427-.748-.434.248zm-3.274-5.729l.434-.248-.434-.76-.434.76.434.248zm-3.274 5.729l-.434-.248-.427.748h.861v-.5zm7.162.523h-7.776v1h7.776v-1zm-8.215.261l-1.227 2.251.878.479 1.227-2.251-.878-.479zm-.788 1.99h-1.432v1h1.432v-1zm-1.001.752l5.729-9.821-.863-.504-5.729 9.821.863.504zm5.298-9.573h1.636v-1h-1.636v1zm1.205-.248l5.729 9.821.863-.504-5.729-9.821-.863.504zm6.16 9.069H121.7v1h1.432v-1zm-.993.261l-1.227-2.251-.878.479 1.227 2.251.878-.479zm-1.846-3.282l-3.274-5.729-.868.496 3.274 5.729.868-.496zm-4.142-5.729l-3.274 5.729.868.496 3.274-5.729-.868-.496zm-2.84 6.477h6.548v-1h-6.548v1zM125.997 17v.5h.5V17h-.5zm-1.228 0h-.5v.5h.5V17zm0-9.821v-.5h-.5v.5h.5zm2.155 0l.345-.362-.145-.138h-.2v.5zm9.003 8.594l-.345.362.845.807v-1.168h-.5zm0-8.594v-.5h-.5v.5h.5zm1.228 0h.5v-.5h-.5v.5zm0 9.821v.5h.5V17h-.5zm-1.637 0l-.34.367.144.133h.196V17zm-9.521-8.798l.339-.367-.839-.776v1.143h.5zm0 8.298h-1.228v1h1.228v-1zm-.728.5V7.179h-1V17h1zm-.5-9.321h2.155v-1h-2.155v1zm1.81-.138l9.003 8.594.69-.723-9.003-8.594-.69.723zm9.848 8.232V7.179h-1v8.594h1zm-.5-8.094h1.228v-1h-1.228v1zm.728-.5V17h1V7.179h-1zm.5 9.321h-1.637v1h1.637v-1zm-1.298.133l-9.521-8.798-.678.734 9.52 8.798.679-.734zm-10.36-8.431V17h1V8.202h-1zm24.343 2.046h-.5v.5h.5v-.5zm-1.726-2.187l-.051.497h0l.051-.497zm-5.793-.013l.04.498h.005l-.045-.498zm-1.873 2.462l.499.01h0l-.499-.01zm0 3.165l-.5.01v.005l.5-.015zm.39 1.842l-.411.286.005.006.406-.292zm1.483.62l-.046.498h.006l.04-.498zm7.302-.863l-.453-.211-.003.005.456.206zm.173-.652l.496.059v-.001l-.496-.058zm.044-.895v-.5h-.5v.5h.5zm1.228 0h.5v-.5h-.5v.5zm-.077 1.113l.494.077v-.001l-.494-.076zm-.275.882l-.445-.226-.002.003.447.224zm-1.342 1.132l.169.471.005-.002-.174-.469zm-1.19.262l-.059-.496h-.005l.064.496zm-6.381-.051l.09-.492-.004-.001-.086.492zm-1.266-.409l-.246.436.005.002.241-.438zm-.774-.703l-.421.268.002.005.419-.273zm-.396-.991l-.489.104.001.005.488-.11zm0-5.742l-.488-.11-.001.005.489.104zm.396-.991l-.419-.273-.002.005.421.268zm.774-.697l.241.438.005-.002-.246-.435zm1.266-.416l.086.493h.004l-.09-.492zm6.381-.051l-.064.496h.005l.059-.496zm1.19.262l-.169.471.005.002.164-.473zm1.342 1.074l-.442.233.003.006.439-.239zm.352 1.848v.5h.5v-.5h-.5zm-.728 0c0-.539-.057-1.011-.197-1.389l-.938.348c.082.219.135.557.135 1.041h1zm-.197-1.389c-.148-.397-.402-.716-.762-.932l-.514.857a.78.78 0 0 1 .338.423l.938-.348zm-.762-.932c-.338-.203-.753-.316-1.216-.363l-.102.995c.373.038.631.122.804.225l.514-.857zm-1.216-.363c-.436-.045-.968-.067-1.592-.067v1l1.49.061.102-.995zm-1.592-.067h-2.871v1h2.871v-1zm-2.871 0l-1.426.053.09.996c.355-.032.8-.049 1.336-.049v-1zm-1.421.053c-.402.032-.763.103-1.068.227l.374.927c.181-.073.434-.13.774-.157l-.08-.997zm-1.068.227c-.316.128-.585.322-.781.593l.811.585c.069-.095.175-.182.344-.251l-.374-.927zm-.781.593c-.187.259-.304.576-.373.925l.981.193c.051-.256.125-.426.203-.533l-.811-.585zm-.373.925c-.067.341-.103.745-.111 1.206l.999.019c.009-.426.041-.767.093-1.032l-.981-.193zm-.111 1.206l-.013 1.589h1l.012-1.57-.999-.019zm-.013 1.589l.013 1.595.999-.019-.012-1.576h-1zm.013 1.6c.013.456.051.856.118 1.195l.981-.194a6.45 6.45 0 0 1-.1-1.03l-.999.029zm.118 1.195c.068.346.182.661.362.918l.82-.572c-.077-.109-.15-.281-.201-.54l-.981.194zm.366.925a1.75 1.75 0 0 0 .781.593l.374-.927c-.169-.068-.275-.156-.344-.251l-.811.585zm.781.593c.303.122.661.196 1.062.232l.092-.996c-.341-.031-.596-.09-.78-.164l-.374.927zm1.068.233l1.421.046v-1c-.538 0-.984-.015-1.341-.043l-.08.997zm1.421.046h2.871v-1h-2.871v1zm2.871 0l1.271-.04-.074-.997-1.197.037v1zm1.271-.04c.367-.027.696-.078.981-.158l-.271-.963c-.201.057-.461.099-.784.123l.074.997zm.981-.158c.287-.081.55-.2.765-.372l-.625-.781c-.083.066-.213.135-.411.19l.271.963zm.765-.372c.213-.17.376-.383.489-.632l-.912-.412a.69.69 0 0 1-.202.263l.625.781zm.486-.627c.113-.242.182-.513.216-.804l-.993-.118c-.025.212-.071.375-.129.5l.906.422zm.216-.805a8.25 8.25 0 0 0 .048-.953h-1l-.041.837.993.116zm-.452-.453h1.228v-1h-1.228v1zm.728-.5a6.8 6.8 0 0 1-.071 1.037l.988.152c.056-.362.083-.759.083-1.188h-1zm-.071 1.035c-.044.283-.121.526-.226.733l.891.453c.159-.313.265-.659.323-1.032l-.988-.154zm-.228.736a1.63 1.63 0 0 1-.397.51l.653.757a2.64 2.64 0 0 0 .639-.82l-.895-.447zm-.397.51c-.163.141-.383.269-.673.377l.349.937c.375-.14.705-.323.977-.557l-.653-.757zm-.667.375c-.289.104-.646.184-1.08.236l.119.993c.487-.059.922-.153 1.299-.288l-.338-.941zm-1.085.237c-.433.056-.948.085-1.547.085v1c.629 0 1.188-.03 1.676-.094l-.129-.992zm-1.547.085h-2.871v1h2.871v-1zm-2.871 0c-.732 0-1.333-.046-1.809-.133l-.179.984c.555.101 1.22.149 1.988.149v-1zm-1.813-.133c-.475-.083-.841-.206-1.111-.355l-.482.876c.395.218.874.368 1.421.464l.172-.985zm-1.106-.352c-.272-.154-.467-.336-.601-.541l-.838.546c.233.357.555.644.947.866l.492-.871zm-.598-.536c-.143-.225-.256-.5-.33-.832l-.976.219a3.59 3.59 0 0 0 .463 1.15l.843-.537zm-.329-.827c-.073-.344-.118-.741-.13-1.194l-1 .027a7.61 7.61 0 0 0 .152 1.376l.978-.209zm-.13-1.194l-.019-1.572h-1l.019 1.599 1-.027zm-.019-1.572l.019-1.572-1-.027-.019 1.599h1zm.019-1.572c.012-.454.057-.851.13-1.194l-.978-.209a7.61 7.61 0 0 0-.152 1.376l1 .027zm.129-1.189a2.59 2.59 0 0 1 .33-.832l-.843-.537a3.59 3.59 0 0 0-.463 1.15l.976.219zm.327-.828c.133-.204.326-.383.596-.532l-.482-.876c-.395.218-.718.503-.952.862l.838.546zm.601-.534c.268-.152.632-.276 1.106-.359l-.172-.985c-.549.096-1.029.249-1.426.473l.492.871zm1.11-.359c.476-.087 1.077-.133 1.809-.133v-1c-.768 0-1.433.048-1.988.149l.179.984zm1.809-.133h2.871v-1h-2.871v1zm2.871 0c.599 0 1.114.029 1.547.085l.129-.992c-.488-.063-1.047-.094-1.676-.094v1zm1.552.086c.434.052.791.133 1.08.236l.338-.941c-.377-.135-.812-.229-1.299-.288l-.119.993zm1.085.238c.29.1.509.222.671.355l.635-.772c-.273-.225-.604-.398-.979-.528l-.327.945zm.671.355c.167.138.297.297.393.48l.885-.466a2.55 2.55 0 0 0-.643-.786l-.635.772zm.396.486c.103.188.178.409.221.668l.986-.164c-.059-.355-.167-.684-.328-.982l-.879.478zm.221.668c.046.275.07.588.07.941h1a6.69 6.69 0 0 0-.084-1.105l-.986.164zm.57.441h-1.228v1h1.228v-1zM153.12 17h-.5v.5h.5V17zm0-9.821v-.5h-.5v.5h.5zm9.822 0h.5v-.5h-.5v.5zm0 1.023v.5h.5v-.5h-.5zm-8.594 0v-.5h-.5v.5h.5zm0 3.274h-.5v.5h.5v-.5zm8.185 0h.5v-.5h-.5v.5zm0 1.023v.5h.5v-.5h-.5zm-8.185 0v-.5h-.5v.5h.5zm0 3.478h-.5v.5h.5v-.5zm8.594 0h.5v-.5h-.5v.5zm0 1.023v.5h.5V17h-.5zm-9.322 0V7.179h-1V17h1zm-.5-9.321h9.822v-1h-9.822v1zm9.322-.5v1.023h1V7.179h-1zm.5.523h-8.594v1h8.594v-1zm-9.094.5v3.274h1V8.202h-1zm.5 3.774h8.185v-1h-8.185v1zm7.685-.5v1.023h1v-1.023h-1zm.5.523h-8.185v1h8.185v-1zm-8.685.5v3.478h1v-3.478h-1zm.5 3.978h8.594v-1h-8.594v1zm8.094-.5V17h1v-1.023h-1zm.5.523h-9.822v1h9.822v-1z" fill="#5f6986"/></g><g filter="url(#B)"><path d="M46.455 33h-1.228v-9.821h2.155l9.003 8.594v-8.594h1.228V33h-1.637l-9.521-8.798V33zm13.619 0v-9.821h9.821v1.023h-8.594v3.274h8.184v1.023h-8.184v3.478h8.594V33h-9.821zm22.098-9.821v1.023h-4.911V33h-1.228v-8.798h-4.911v-1.023h11.049zm10.947 0h1.432l3.99 8.798 3.888-8.798h1.432L99.36 33h-1.637l-3.888-8.594L89.948 33h-1.637L83.4 23.179h1.432l4.297 8.798 3.99-8.798zm20.16-.205c.751 0 1.381.047 1.893.141s.94.228 1.272.416.589.416.768.697.309.612.39.991.134.808.147 1.285l.025 1.586-.025 1.586c-.013.477-.062.906-.147 1.285s-.211.71-.39.991-.435.516-.768.703-.756.32-1.272.409-1.142.141-1.893.141h-3.695c-.751 0-1.384-.047-1.899-.141s-.934-.226-1.266-.409a2.17 2.17 0 0 1-.774-.703c-.179-.281-.311-.612-.397-.991s-.127-.808-.14-1.285l-.019-1.586.019-1.586c.013-.477.059-.906.14-1.285s.218-.71.397-.991.441-.514.774-.697.754-.326 1.266-.416 1.148-.141 1.899-.141h3.695zm0 9.207l1.369-.045c.375-.034.684-.1.927-.198s.43-.239.562-.422.228-.426.288-.729a6.44 6.44 0 0 0 .102-1.113l.02-1.586-.02-1.579c-.008-.443-.042-.816-.102-1.119s-.155-.546-.288-.729-.319-.324-.562-.422-.546-.162-.921-.192-.829-.051-1.375-.051h-3.695l-1.382.051c-.37.03-.677.094-.92.192s-.431.239-.563.422-.228.426-.288.729-.093.676-.102 1.119l-.013 1.579.013 1.586c.013.439.049.81.109 1.113s.153.546.281.729.32.324.563.422.55.164.92.198l1.382.045h3.695zm17.795.818h-1.228v-1.841l-.019-.767c-.008-.217-.045-.403-.109-.556-.059-.154-.155-.277-.287-.371s-.32-.166-.563-.217-.552-.085-.927-.102l-1.375-.032h-5.518V33h-1.228v-9.821h6.951l1.892.083c.516.051.94.13 1.273.237s.594.239.773.396.316.343.397.556.134.452.147.716l.025.876c0 .409-.029.769-.089 1.081s-.151.569-.288.787a1.56 1.56 0 0 1-.543.524c-.226.128-.51.217-.851.268.341.051.614.141.819.269a1.33 1.33 0 0 1 .473.499c.111.205.183.448.217.729a7.05 7.05 0 0 1 .058.959V33zm-10.026-4.911h5.723l1.374-.026c.376-.021.685-.058.928-.109s.43-.124.562-.217.228-.217.288-.371.1-.337.109-.55l.019-.774-.019-.716a1.33 1.33 0 0 0-.109-.505c-.06-.136-.156-.245-.288-.326s-.319-.143-.562-.185-.552-.077-.928-.09l-1.374-.019h-5.723v3.888zm21.484-4.911h1.841l-6.956 4.808L144.578 33h-1.841l-6.548-4.501h-1.637V33h-1.227v-9.821h1.227v4.297h1.637l6.343-4.297z" fill="#5f6986"/><path d="M46.455 33v.5h.5V33h-.5zm-1.228 0h-.5v.5h.5V33zm0-9.821v-.5h-.5v.5h.5zm2.155 0l.345-.362-.145-.138h-.2v.5zm9.003 8.594l-.345.362.845.807v-1.169h-.5zm0-8.594v-.5h-.5v.5h.5zm1.228 0h.5v-.5h-.5v.5zm0 9.821v.5h.5V33h-.5zm-1.637 0l-.339.367.144.133h.196V33zm-9.521-8.798l.339-.367-.839-.776v1.143h.5zm0 8.298h-1.228v1h1.228v-1zm-.728.5v-9.821h-1V33h1zm-.5-9.321h2.155v-1h-2.155v1zm1.81-.138l9.003 8.594.691-.723-9.003-8.594-.691.723zm9.848 8.232v-8.594h-1v8.594h1zm-.5-8.094h1.228v-1h-1.228v1zm.728-.5V33h1v-9.821h-1zm.5 9.321h-1.637v1h1.637v-1zm-1.298.133l-9.521-8.798-.679.734 9.521 8.798.679-.734zm-10.36-8.431V33h1v-8.798h-1zM60.075 33h-.5v.5h.5V33zm0-9.821v-.5h-.5v.5h.5zm9.821 0h.5v-.5h-.5v.5zm0 1.023v.5h.5v-.5h-.5zm-8.594 0v-.5h-.5v.5h.5zm0 3.274h-.5v.5h.5v-.5zm8.184 0h.5v-.5h-.5v.5zm0 1.023v.5h.5v-.5h-.5zm-8.184 0v-.5h-.5v.5h.5zm0 3.478h-.5v.5h.5v-.5zm8.594 0h.5v-.5h-.5v.5zm0 1.023v.5h.5V33h-.5zm-9.321 0v-9.821h-1V33h1zm-.5-9.321h9.821v-1h-9.821v1zm9.321-.5v1.023h1v-1.023h-1zm.5.523h-8.594v1h8.594v-1zm-9.094.5v3.274h1v-3.274h-1zm.5 3.774h8.184v-1h-8.184v1zm7.684-.5v1.023h1v-1.023h-1zm.5.523h-8.184v1h8.184v-1zm-8.684.5v3.478h1v-3.478h-1zm.5 3.978h8.594v-1h-8.594v1zm8.094-.5V33h1v-1.023h-1zm.5.523h-9.821v1h9.821v-1zm12.277-9.321h.5v-.5h-.5v.5zm0 1.023v.5h.5v-.5h-.5zm-4.911 0v-.5h-.5v.5h.5zm0 8.798v.5h.5V33h-.5zm-1.228 0h-.5v.5h.5V33zm0-8.798h.5v-.5h-.5v.5zm-4.911 0h-.5v.5h.5v-.5zm0-1.023v-.5h-.5v.5h.5zm10.549 0v1.023h1v-1.023h-1zm.5.523h-4.911v1h4.911v-1zm-5.411.5V33h1v-8.798h-1zm.5 8.298h-1.228v1h1.228v-1zm-.728.5v-8.798h-1V33h1zm-.5-9.298h-4.911v1h4.911v-1zm-4.411.5v-1.023h-1v1.023h1zm-.5-.523h11.049v-1H71.124v1zm21.995-.5v-.5h-.322l-.133.294.455.206zm1.432 0l.455-.206-.133-.294h-.322v.5zm3.99 8.798l-.455.207.461 1.017.451-1.022-.457-.202zm3.888-8.798v-.5h-.326l-.132.298.458.202zm1.432 0l.454.208.325-.708h-.779v.5zM99.36 33v.5h.321l.134-.292L99.36 33zm-1.637 0l-.456.206.133.294h.323V33zm-3.888-8.594l.456-.206-.456-1.007-.456 1.007.456.206zM89.948 33v.5h.323l.133-.294-.456-.206zm-1.637 0l-.447.224.138.276h.309V33zM83.4 23.179v-.5h-.809l.362.724.447-.224zm1.432 0l.449-.219-.137-.281h-.312v.5zm4.297 8.798l-.449.219.466.954.439-.967-.455-.207zm3.99-8.298h1.432v-1h-1.432v1zm.977-.293l3.99 8.798.911-.413-3.99-8.798-.911.413zm4.903 8.794l3.888-8.798-.915-.404-3.887 8.798.915.404zm3.431-8.5h1.432v-1h-1.432v1zm.977-.708l-4.501 9.821.909.417 4.501-9.821-.909-.417zM99.36 32.5h-1.637v1h1.637v-1zm-1.181.294L94.291 24.2l-.911.412 3.888 8.594.911-.412zM93.38 24.2l-3.888 8.594.911.412 3.888-8.594-.911-.412zm-3.432 8.3h-1.637v1h1.637v-1zm-1.19.276l-4.911-9.821-.894.447 4.911 9.821.894-.447zM83.4 23.679h1.432v-1H83.4v1zm.983-.281l4.297 8.798.898-.439-4.297-8.798-.899.439zm5.201 8.785l3.99-8.798-.911-.413-3.99 8.798.911.413zm25.588-9.069l-.09.492.004.001.086-.493zm1.272.416l-.245.436.004.002.241-.438zm1.158 1.688l-.489.104.001.005.488-.11zm.147 1.285l-.5.013v.004l.5-.018zm0 3.171l-.5-.018v.004l.5.013zm-.147 1.285l-.488-.11-.001.005.489.104zm-1.158 1.694l.242.438.004-.002-.246-.436zm-1.272.409l-.086-.493-.004.001.09.492zm-7.487 0l.089-.492-.003-.001-.086.492zm-1.266-.409l-.246.436.004.002.242-.438zm-.774-.703l-.422.268.003.005.419-.273zm-.397-.991l-.489.104.002.005.487-.11zm0-5.742l-.487-.11-.002.005.489.104zm.397-.991l-.419-.273-.003.005.422.268zm.774-.697l.241.438.004-.002-.245-.436zm1.266-.416l.086.493h.003l-.089-.492zm6.963 9.022l.04.498h.005l-.045-.498zm1.879-2.462l-.499-.014v.005l.499.01zm0-3.165l-.499.01v.005l.499-.014zm-.952-2.27l-.19.462.003.001.187-.464zm-.921-.192l-.046.498.006.001.04-.498zm-6.452 0l.041.498.005-.001-.046-.498zm-1.873 2.462l.5.01h0l-.5-.01zm0 3.165l-.5.01v.005l.5-.015zm.39 1.842l-.41.286.004.006.406-.292zm1.483.62l-.045.498h.006l.039-.498zm5.077-8.663c.732 0 1.331.046 1.803.132l.18-.984c-.551-.101-1.214-.149-1.983-.149v1zm1.807.133c.479.083.845.207 1.113.358l.491-.871c-.397-.224-.88-.377-1.433-.473l-.171.985zm1.117.361c.269.149.459.326.587.527l.843-.537c-.229-.361-.552-.648-.947-.866l-.483.876zm.587.527c.142.224.252.497.323.827l.978-.209a3.5 3.5 0 0 0-.458-1.155l-.843.537zm.324.832c.077.342.123.737.135 1.189l1-.027c-.014-.503-.066-.964-.159-1.382l-.976.219zm.135 1.193l.025 1.568h1l-.026-1.604-.999.036zm.025 1.568l-.025 1.568.999.036.026-1.604h-1zm-.025 1.572c-.012.452-.058.847-.135 1.189l.976.219c.093-.417.145-.879.159-1.381l-1-.027zm-.136 1.194c-.071.331-.181.603-.323.827l.843.537a3.5 3.5 0 0 0 .458-1.155l-.978-.209zm-.323.827c-.129.203-.32.383-.591.536l.491.871c.394-.222.714-.51.943-.87l-.843-.537zm-.587.534c-.269.148-.636.271-1.117.354l.171.985c.552-.096 1.033-.246 1.429-.464l-.483-.876zm-1.121.355c-.472.087-1.071.133-1.803.133v1c.769 0 1.432-.048 1.983-.149l-.18-.984zm-1.803.133h-3.695v1h3.695v-1zm-3.695 0c-.732 0-1.333-.046-1.81-.133l-.179.984c.555.101 1.22.149 1.989.149v-1zm-1.813-.133c-.476-.083-.841-.206-1.111-.354l-.483.876c.395.218.874.368 1.421.464l.173-.985zm-1.107-.352a1.68 1.68 0 0 1-.6-.541l-.838.546c.233.357.554.644.947.866l.491-.871zm-.597-.536c-.144-.225-.256-.5-.331-.832l-.975.219c.095.427.247.813.462 1.15l.844-.537zm-.33-.827c-.073-.343-.117-.741-.129-1.194l-1 .027c.013.501.063.961.151 1.376l.978-.209zm-.129-1.194l-.019-1.572h-1l.019 1.599 1-.027zm-.019-1.572l.019-1.572-1-.027-.019 1.599h1zm.019-1.572c.012-.454.056-.851.129-1.194l-.978-.209c-.088.415-.138.875-.151 1.376l1 .027zm.128-1.189a2.59 2.59 0 0 1 .331-.832l-.844-.537c-.215.337-.367.723-.462 1.15l.975.219zm.328-.828c.133-.204.326-.383.596-.532l-.483-.876c-.395.218-.717.503-.951.862l.838.546zm.6-.534c.269-.152.632-.276 1.107-.359l-.173-.985c-.548.096-1.029.249-1.425.473l.491.871zm1.11-.359c.477-.087 1.078-.133 1.81-.133v-1c-.769 0-1.434.048-1.989.149l.179.984zm1.81-.133h3.695v-1h-3.695v1zm3.695 9.207l1.409-.046-.08-.997-1.329.043v1zm1.414-.047c.404-.037.765-.11 1.069-.233l-.374-.927c-.183.074-.44.132-.786.164l.091.996zm1.069-.233a1.75 1.75 0 0 0 .781-.593l-.811-.585c-.069.095-.175.182-.344.251l.374.927zm.781-.593c.187-.259.304-.576.373-.925l-.981-.194c-.051.256-.125.426-.203.533l.811.585zm.373-.925c.067-.34.103-.742.111-1.2l-.999-.019c-.009.421-.041.761-.093 1.025l.981.194zm.111-1.195l.02-1.6h-1l-.019 1.571.999.029zm.02-1.6l-.02-1.594-.999.029.019 1.565h1zm-.02-1.589c-.008-.461-.044-.865-.111-1.206l-.981.193c.052.265.084.606.093 1.032l.999-.019zm-.111-1.206c-.069-.349-.186-.666-.373-.925l-.811.585c.078.108.152.277.203.533l.981-.193zm-.373-.925c-.196-.272-.465-.466-.781-.593l-.374.927c.169.068.275.155.344.251l.811-.585zm-.778-.592c-.303-.125-.666-.195-1.071-.228l-.08.997c.345.027.597.084.771.156l.38-.925zm-1.065-.227c-.391-.036-.866-.053-1.421-.053v1l1.329.049.092-.996zm-1.421-.053h-3.695v1h3.695v-1zm-3.695 0l-1.427.053.091.996a15.14 15.14 0 0 1 1.336-.049v-1zm-1.422.053c-.402.032-.762.103-1.067.226l.374.927c.181-.073.434-.13.774-.157l-.081-.997zm-1.067.226c-.317.128-.586.322-.782.593l.812.585c.068-.095.174-.182.344-.251l-.374-.927zm-.782.593c-.186.259-.303.576-.372.925l.981.193c.05-.256.125-.425.203-.533l-.812-.585zm-.372.925c-.067.341-.103.745-.112 1.206l1 .019c.008-.426.041-.767.093-1.032l-.981-.193zm-.112 1.206l-.013 1.589h1l.013-1.57-1-.019zm-.013 1.589l.013 1.595 1-.019-.013-1.576h-1zm.013 1.6c.013.456.051.856.118 1.195l.981-.194c-.052-.267-.087-.608-.099-1.03l-1 .029zm.118 1.195c.068.346.182.661.362.918l.82-.572c-.076-.109-.15-.281-.201-.54l-.981.194zm.366.925c.196.271.465.466.782.593l.374-.927c-.17-.068-.276-.156-.344-.251l-.812.585zm.782.593c.302.122.661.196 1.062.232l.091-.996c-.341-.031-.596-.09-.779-.164l-.374.927zm1.068.233l1.421.046v-1c-.538 0-.984-.015-1.342-.043l-.079.997zm1.421.046h3.695v-1h-3.695v1zm21.49.318v.5h.5V33h-.5zm-1.228 0h-.5v.5h.5V33zm-.019-2.609l-.5.02.001.01.499-.03zm-.109-.556l-.466.181.005.011.461-.192zm-1.777-.691l-.029.499h.006l.023-.499zm-6.893-.032v-.5h-.5v.5h.5zm0 3.888v.5h.5V33h-.5zm-1.228 0h-.5v.5h.5V33zm0-9.821v-.5h-.5v.5h.5zm8.843.083l-.054.497h.005l.049-.498zm1.273.237l-.153.476h.002l.151-.477zm.773.396l-.33.375.004.004.326-.379zm.397.556l-.468.178.004.008.464-.186zm.147.716l-.5.024.001.008.499-.032zm-.064 1.957l-.491-.094-.001.005.492.089zm-.831 1.311l.246.435.006-.004-.252-.432zm-.851.268l-.074-.494v.989l.074-.495zm1.509 1.496l-.496.06.001.007.495-.068zm-9.968-2.11h-.5v.5h.5v-.5zm7.097-.026l.023.5h.006l-.029-.499zm1.778-.697l-.462-.192-.004.011.466.181zm.109-.55l-.5-.029v.009l.5.02zm0-1.49l-.5.021.001.011.499-.032zm-.109-.505l-.458.201.005.012.453-.212zm-.85-.511l-.095.491.008.002.087-.492zm-.928-.09l-.017.5h0l.017-.5zm-7.097-.019v-.5h-.5v.5h.5zm10.026 8.298h-1.228v1h1.228v-1zm-.728.5v-1.841h-1V33h1zm0-1.841l-.02-.797-.998.06.018.737h1zm-.019-.787c-.011-.259-.054-.507-.147-.729l-.923.385a1.11 1.11 0 0 1 .07.383l1-.039zm-.143-.718a1.3 1.3 0 0 0-.464-.597l-.579.816c.051.036.087.08.111.144l.932-.363zm-.464-.597c-.21-.149-.471-.24-.749-.299l-.206.979c.208.044.322.097.376.136l.579-.816zm-.749-.299c-.279-.059-.618-.095-1.007-.113l-.046.999c.36.016.64.049.847.092l.206-.979zm-1.001-.112l-1.404-.033v1l1.346.031.058-.998zm-1.404-.033h-5.518v1h5.518v-1zm-6.018.5V33h1v-3.888h-1zm.5 3.388h-1.228v1h1.228v-1zm-.728.5v-9.821h-1V33h1zm-.5-9.321h6.951v-1h-6.951v1zm6.951 0l1.838.08.108-.994c-.535-.058-1.185-.086-1.946-.086v1zm1.843.081c.496.049.882.123 1.169.215l.305-.952c-.378-.121-.84-.205-1.375-.258l-.099.995zm1.171.216c.299.095.486.2.594.295l.661-.75c-.25-.22-.579-.38-.953-.498l-.302.953zm.598.299c.124.107.206.224.255.355l.935-.355c-.112-.296-.295-.549-.537-.758l-.653.758zm.259.363a1.74 1.74 0 0 1 .112.555l.998-.048c-.015-.311-.073-.606-.182-.878l-.928.371zm.112.563l.024.844h1l-.026-.908-.998.064zm.024.844c0 .386-.028.714-.08.986l.982.188a6.29 6.29 0 0 0 .098-1.175h-1zm-.081.992a1.72 1.72 0 0 1-.219.61l.847.532c.177-.282.292-.607.356-.963l-.984-.178zm-.219.61c-.093.148-.215.266-.373.358l.505.863c.294-.172.535-.403.715-.69l-.847-.532zm-.367.355a1.97 1.97 0 0 1-.678.209l.149.989c.382-.057.729-.162 1.022-.328l-.493-.87zm-.678 1.198c.3.045.501.119.628.198l.53-.848c-.282-.176-.628-.282-1.009-.339l-.149.989zm.628.198c.134.084.23.187.298.313l.88-.476a1.83 1.83 0 0 0-.648-.685l-.53.848zm.298.313c.075.139.133.319.161.551l.993-.12c-.04-.33-.128-.636-.274-.907l-.88.476zm.162.558c.035.254.053.55.053.892h1c0-.375-.02-.718-.062-1.027l-.991.135zm.053.892V33h1v-1.841h-1zm-9.526-2.569h5.723v-1h-5.723v1zm5.723 0l1.397-.026-.046-.999-1.351.025v1zm1.403-.026a6.89 6.89 0 0 0 1.002-.119l-.206-.979a5.93 5.93 0 0 1-.853.099l.057.998zm1.002-.119c.277-.059.539-.15.749-.299l-.579-.816c-.055.039-.168.092-.376.136l.206.979zm.749-.299c.213-.151.369-.354.464-.597l-.932-.363c-.025.064-.06.108-.111.144l.579.816zm.459-.586c.093-.221.137-.466.147-.722l-.999-.04a1.1 1.1 0 0 1-.071.378l.923.385zm.147-.713l.02-.803h-1l-.018.744.998.059zm.02-.803l-.02-.748-.998.064.018.684h1zm-.02-.737a1.82 1.82 0 0 0-.155-.696l-.906.425c.028.06.056.159.062.314l.999-.043zm-.15-.684a1.21 1.21 0 0 0-.484-.552l-.523.853a.21.21 0 0 1 .091.1l.916-.401zm-.484-.552c-.209-.127-.465-.204-.738-.252l-.173.985c.214.037.332.085.388.119l.523-.853zm-.73-.25c-.278-.054-.615-.085-1.005-.098l-.034.999a5.66 5.66 0 0 1 .85.081l.189-.982zm-1.004-.098l-1.392-.02v1l1.357.019.035-.999zm-1.392-.02h-5.723v1h5.723v-1zm-6.223.5v3.888h1v-3.888h-1zm21.984-1.023v-.5h-.153l-.127.086.28.414zm1.841 0l.285.411 1.318-.911h-1.603v.5zm-6.956 4.808l-.285-.411-.591.409.589.412.287-.41zM144.578 33v.5h1.586l-1.299-.91-.287.41zm-1.841 0l-.284.412.128.088h.156V33zm-6.548-4.501l.283-.412-.128-.088h-.155v.5zm-1.637 0v-.5h-.5v.5h.5zm0 4.501v.5h.5V33h-.5zm-1.227 0h-.5v.5h.5V33zm0-9.821v-.5h-.5v.5h.5zm1.227 0h.5v-.5h-.5v.5zm0 4.297h-.5v.5h.5v-.5zm1.637 0v.5h.154l.127-.086-.281-.414zm6.343-3.797h1.841v-1h-1.841v1zm1.557-.911l-6.957 4.808.569.823 6.957-4.808-.569-.823zm-6.959 5.629l7.161 5.013.574-.819-7.162-5.013-.573.819zm7.448 4.103h-1.841v1h1.841v-1zm-1.558.088l-6.548-4.501-.566.824 6.547 4.501.567-.824zm-6.831-4.589h-1.637v1h1.637v-1zm-2.137.5V33h1v-4.501h-1zm.5 4.001h-1.227v1h1.227v-1zm-.727.5v-9.821h-1V33h1zm-.5-9.321h1.227v-1h-1.227v1zm.727-.5v4.297h1v-4.297h-1zm.5 4.797h1.637v-1h-1.637v1zm1.918-.086l6.342-4.297-.56-.828-6.343 4.297.561.828z" fill="#5f6986"/></g><g fill-rule="evenodd" fill="#5f6986"><path d="M19.02.236c-.879 0-1.433.514-1.438.519-.634.517-.643 1.617-.496 2.317.191.907 1.281 1.38 2.456 1.313.527-.03.904-.382 1.128-.671.446-.575.634-1.333.559-1.734-.138-.738-.782-1.574-1.871-1.725-.064-.009-.277-.018-.338-.018zm.373 4.39c-1.239 0-2.28-.55-2.541-1.614-.185-.758-.131-1.854.581-2.435a2.46 2.46 0 0 1 1.795-.569c1.087.089 2.008.837 2.228 1.927.106.525-.16 1.353-.6 1.922-.366.472-.819.737-1.31.765l-.153.005zm5.458.943c-.779-.399-.912-1.774-.717-2.49s.87-1.183 1.287-1.307c.899-.266 1.627.537 1.864 1.073s.222 1.637-.223 2.269-1.433.853-2.212.454zm1.517-3.906c-.835-.33-2.087.069-2.087.069-.891.385-1.189 1.378-1.189 2.506s1.328 1.758 2.483 1.841 2.072-1.183 2.101-2.173-.473-1.912-1.307-2.242zm-12.805-.277c.769.394.899 1.752.707 2.458s-.558 1.179-.97 1.301c-.888.263-1.828-.35-2.141-1.07-.23-.531-.219-1.616.22-2.241s1.414-.841 2.183-.448zm-1.497 3.857c.824.326 2.06-.068 2.06-.068.879-.38 1.113-1.086 1.113-2.2S14.467.707 12.849.883c-1.137.124-2.047 1.168-2.074 2.146s.467 1.887 1.291 2.213zm18.158 3.936c-.74-.379-.638-1.738-.453-2.418s.4-1.085.796-1.202c.855-.253 1.546.51 1.772 1.019s.211 1.555-.212 2.157-1.162.823-1.902.444zm1.242-3.725c-.794-.314-1.983.065-1.983.065-.846.366-1.071 1.046-1.071 2.118s.841 1.962 2.3 2.013c1.1.038 1.97-1.124 1.996-2.065s-.449-1.817-1.242-2.13zM7.573 4.678c.779.399.962 1.768.766 2.484s-.491 1.261-.908 1.385c-.899.266-1.628-.536-1.864-1.073s-.222-1.636.223-2.269 1.004-.926 1.783-.527zM6.485 8.657c.835.33 2.087-.069 2.087-.069.891-.385 1.127-1.1 1.127-2.228S8.433 4.325 7.278 4.242 5.205 5.425 5.177 6.415s.473 1.912 1.308 2.242zm26.973 5.829c-.431-.411-.553-1.778-.358-2.494s.261-1.049.678-1.173c.9-.267 1.628.537 1.865 1.073s.221 1.618-.224 2.25-1.326.949-1.96.343zm1.267-3.776c-.835-.33-2.088.068-2.088.068-.89.385-1.127 1.101-1.127 2.229s1.266 2.036 2.421 2.118 2.074-1.183 2.102-2.174-.474-1.912-1.308-2.242zm-30.591-.383c.43.411.546 1.801.35 2.516s-.093.962-.51 1.086c-.899.266-1.628-.537-1.864-1.073s-.221-1.618.224-2.25 1.164-.885 1.799-.279zM3.028 14.04c.835.33 2.087-.069 2.087-.069.891-.385 1.127-1.1 1.127-2.229s-.86-2.21-2.421-2.118c-1.156.068-2.074 1.183-2.101 2.174s.473 1.912 1.308 2.242zm31.723 6.78c-.221-.074-.073-4.109.097-4.116.776-.033 1.517.694 1.757 1.237s.247 1.454-.204 2.095-1.067.98-1.65.784zm.924-4.077c-.845-.334-2.114.07-2.114.07-.902.39-1.142 1.114-1.142 2.257s.827 2.153 2.452 2.145c1.172-.006 2.099-1.198 2.127-2.201s-.479-1.936-1.325-2.27zM2.27 16.126c.194.125.218 3.866.064 3.935-.575.258-1.707-.516-1.943-1.052s-.22-1.617.225-2.25 1.208-.923 1.655-.632zm-.961 4.065c.834.33 2.087-.069 2.087-.069.891-.385 1.127-1.1 1.127-2.228s-.817-2.126-2.421-2.118C.944 15.782.029 16.959.001 17.949s.473 1.912 1.308 2.242zm32.149 6.997c-.101-.043.372-.62.428-1.954.056-1.352-.49-1.941-.409-1.973.763-.301 1.532.537 1.765 1.066s.218 1.503-.221 2.128-1.079.939-1.563.733zm.878-4.028c-.824-.325-2.061.069-2.061.069-.879.38-1.113 1.086-1.113 2.199s.807 2.099 2.39 2.091c1.143-.006 2.047-1.168 2.074-2.146s-.467-1.887-1.291-2.213zm-4.025 9.02c-.103-.04.622-.59.679-1.941.057-1.37-1.023-2.005-.942-2.037.773-.305 1.552.544 1.789 1.08s.221 1.523-.225 2.155-.904.894-1.3.742zm.606-4.08c-.834-.33-1.904.071-1.904.071-.89.385-1.311 1.099-1.311 2.226s.817 2.126 2.422 2.118c1.157-.006 2.073-1.183 2.101-2.173s-.473-1.912-1.308-2.242zm-24.784-.757c.102.039-.786.388-.823 1.929-.042 1.767 1.164 1.967 1.084 1.998-.763.301-1.532-.537-1.766-1.067s-.218-1.503.221-2.128.893-.883 1.284-.733zm-.599 4.029c.824.326 2.061-.068 2.061-.068.879-.38 1.112-1.087 1.112-2.2s-.807-2.099-2.39-2.091c-1.143.005-2.047 1.168-2.074 2.146s.467 1.888 1.291 2.214zm-2.469-9.411c.101.043-.194.222-.231 1.783-.043 1.789.576 2.163.495 2.195-.773.304-1.552-.544-1.788-1.08s-.221-1.522.224-2.155 1.107-.825 1.3-.742zm-.606 4.08c.834.331 2.087-.069 2.087-.069.921-.607 1.127-1.1 1.127-2.228s-.817-2.126-2.42-2.118c-1.158.006-2.073 1.183-2.101 2.173s.473 1.912 1.308 2.241zm22.789 9.418c-.104-.04 1.131-.076 1.187-1.903.068-2.189-1.533-2.042-1.451-2.074.773-.305 1.552.544 1.788 1.08s.221 1.523-.224 2.155-.904.894-1.3.742zm.607-4.08c-.835-.33-1.786-.015-1.786-.015-.89.385-1.429 1.184-1.429 2.312s.817 2.126 2.421 2.118c1.158-.005 2.073-1.183 2.101-2.173s-.473-1.912-1.307-2.242zm-14.419-.144c.101.045-1.133.015-1.286 1.835-.183 2.18 1.421 2.121 1.338 2.148-.786.262-1.519-.627-1.727-1.175s-.14-1.531.338-2.139.949-.844 1.337-.67zm-.822 4.039c.816.375 2.086.044 2.086.044.909-.336 1.336-1.008 1.395-2.133s-.855-2.195-2.456-2.274c-1.155-.057-2.132 1.069-2.211 2.055s.371 1.933 1.186 2.308zm5.864-1.739c.309-.424.715-.836 1.919-.817s2.033.798 2.183 1.748-.752 2.432-1.712 2.508-1.58.019-2.202-.589a2.28 2.28 0 0 1-.188-2.85z"/><path d="M30.161 17.825c-.625-.215-.775-.349-1.082-.933s-.88-.915-1.768-.659-1.295.282-1.904-.333-1.32-.769-2.234-.231-1.389.264-1.07-.3c.36-.634 1.095-1.392 2.162-.982s1.243.385 1.497-.384 1.168-.999 1.599-.667.558 1 1.167.795.736-.282 1.142.051.66.231.863.18.381.153.381.153-.075-.359-.482-.333-.457-.026-.762-.231-.305-.307-.914-.153-.837-.487-1.218-.769-1.244-.436-1.751.154-.406 1-1.117.846-1.891-.586-2.386.282c-.639 1.119-1.058.793-1.591.818s-1.251.902-1.277.438c-.055-.998.228-1.384 1.193-1.384s2.538-.308 2.869-.948.863-1.179 1.446-.872 1.092.128 1.853-.282 1.777-.282 1.98.256 1.295.384 1.295.384-1.041-.128-1.117-.666-1.193-.769-1.98-.41-1.268-.82-.202-.846 1.624-.692 1.624-.692-.711.385-1.218.385-1.32.153-1.294.615.178.666-.127.82-.609-.026-.939-.103-.735-.153-1.065.282-1.218 1.051-1.65 1.051-.076-.871.431-1.128c.054-.027.101-.059.142-.093.087-.073-.139-.182-.243-.138-.483.205-.787.692-.838 1.051s-.304.589-.838.512-.812-.103-1.117.128-.051-.667.482-.795 1.041.026 1.244-.666 1.243-.462 1.294-1.102.788-.718 1.015-.128 1.396.513 1.523-.103.558-.948.964-.692 1.472-.82 1.472-.82-1.193.769-1.497.641-.837-.231-1.065.333-.914.795-1.167.282-.559-.795-.914-.564-.025-1.179.737-.846 1.472.333 1.624-.205.761-.948.761-.948-.507.179-.786.59-.609.615-.939.461-1.091-.307-1.244-.154-.304.538-.609.435-.482-.974.279-1.128 1.04-1.512 1.04-1.512-.609 1.205-1.04 1.307-.889.718-.889.974.432.871.457 1.179-.128.897-.711 1-.938 1.051-1.446 1.051-.355-.949.457-1.205 1.142-.923 1.015-1.256c-.059-.156-.213-.061-.204.105.01.194-.038.384-.227.484-.482.256-1.092.538-1.346.897s-.406.205-.66-.257-.254-1.076.532-1.179 1.117-.769 1.168-1.179.381-.897 1.091-1 1.167-1.256 1.167-1.256-.533 1.025-1.37 1.102-.964.359-1.168.974a1.53 1.53 0 0 1-1.218 1.051c-.508.077-.407-.692.152-1.128s.533-1.179.202-1.538.052-1.051.052-1.051-.533.231-.381.692.533.769.177 1.282-1.523 1.999-1.218 2.743 1.016 1.409.711 1.845-1.117-.282-1.117-1.23.17-2.117-.517-2.402c-.461-.191-2.275-.546-1.615-1.033s.128-1.641.128-1.641.202 1-.229 1.359-.686.82.101 1.128 1.676.385 1.751.872.152 1.615-.33 1.589-1.416-.55-1.523-1.282c-.067-.459-.71-.564-1.345-.384s-1.371-.257-1.371-.616c0-.046-.017-.09-.047-.131-.026-.036-.208.189-.208.234 0 .462.381.923 1.092.872s1.471-.308 1.599.256.711 1.461 1.422 1.538 1.041 1.102 1.041 1.845-.38 1.307-.558.692-.711-2.102-1.752-1.717-1.979.179-2.132-.205-1.066-1.025-2.107-.692-1.802-1.23-1.802-1.23.28.974.712 1.281 1.015.205 1.522.205.863.154 1.244.615.609.846 1.599.692 1.371-.257 1.802.282.152 1.486-.381 1.358-.939-1.153-1.828-.743-2.284.282-2.487-.385-1.422-1.256-2.082-.897-1.802-.154-1.802-.154.203.59 1.142.512 1.955-.281 2.234.334.177 1.23 1.143 1.23 1.903-.205 2.309-.051.634.794.279 1.025-.685-.282-1.091-.436-1.371.103-1.7.462-.889.615-1.092.461.001.282.482.128 1.118-.615 1.625-.692.735.128 1.116.462.813.23 1.244.026.813-.461 1.193-.205 1.426.924.994 1.181c-.139.083-.753-.032-1.02-.335-.406-.462-1.649-.333-2.208.026a.85.85 0 0 1-1.254-.37c-.008-.023-.019-.044-.031-.063-.093-.142-.125.084-.111.254.025.308.254.41.508.461.187.038.183.256-.004.295-.266.056-.59.078-.809-.065-.431-.282-1.244-.564-2.259-.436s-1.344-.846-1.599-1.333-1.092-.512-1.523-.231-.762.923-.762.923.559-.769 1.269-.743.914.282 1.016.769.914 1.153 1.853 1.127 1.904.256 2.182.564 1.092-.026 1.802-.307 1.465-.291 2.074.196c.429.343.646.627.663.785.019.169-.325 1.594-1.083 1.326a2.02 2.02 0 0 0-.502-.108c-.051-.004-.052.189-.005.21.508.231 1.066.257 1.243.026.301-.39.476-.046.153.327-.217.25-.519.445-.889.288-.787-.333-1.498-.538-2.31.129s-1.32.743-1.929.077-1.066-.795-1.954-.385-1.219 0-1.675-.538-.279-.769-.964-.794-1.22-1.412-1.22-1.412.296 1.345.933 1.564c.625.215.775.349 1.082.933s.88.916 1.768.659 1.295-.282 1.904.333 1.32.769 2.233.231 1.39-.264 1.071.3c-.36.635-1.095 1.392-2.161.982s-1.244-.384-1.497.384-1.168 1-1.6.666-.558-1-1.166-.794-.737.282-1.143-.051-.66-.23-.863-.179-.381-.154-.381-.154.077.359.483.333.457.026.762.231.305.308.914.154.837.487 1.218.769 1.244.436 1.751-.154.406-.999 1.117-.846 1.891.585 2.386-.282c.639-1.119 1.058-.792 1.592-.818s.797-.633.948-.454c.343.41.1 1.4-.865 1.4s-2.538.307-2.868.948-.862 1.179-1.447.872-1.092-.128-1.853.282-1.777.282-1.98-.256-1.294-.385-1.294-.385 1.04.128 1.116.666 1.193.769 1.98.41 1.269.82.203.846-1.624.692-1.624.692.711-.384 1.218-.384 1.32-.154 1.294-.615-.178-.666.127-.82.61.025.939.102.736.153 1.066-.282 1.218-1.051 1.65-1.051.077.871-.432 1.128c-.054.027-.101.058-.141.092-.087.073.14.183.244.138.482-.205.787-.692.837-1.051s.304-.59.837-.513.813.103 1.117-.128.051.667-.482.795-1.041-.026-1.244.666-1.244.461-1.294 1.102-.787.718-1.016.128-1.396-.513-1.523.102-.559.948-.964.692-1.473.82-1.473.82 1.193-.769 1.498-.641.837.23 1.066-.333.914-.795 1.168-.282.559.794.914.564.024 1.179-.736.846-1.472-.333-1.624.205-.763.949-.763.949.508-.179.787-.59.609-.615.939-.461 1.092.307 1.244.154.305-.538.608-.436.484.974-.278 1.128-1.04 1.512-1.04 1.512.605-1.225 1.04-1.307c.751-.141.888-.718.888-.974s-.432-.871-.457-1.179.127-.897.71-1 .939-1.051 1.446-1.051.238.975-.597 1.297c-.99.382-1.002.831-.874 1.164.059.155.213.061.204-.105-.01-.195.039-.385.227-.485.482-.256 1.091-.538 1.345-.897s.406-.205.66.257.254 1.076-.534 1.179-1.117.769-1.167 1.179-.381.897-1.092 1-1.167 1.256-1.167 1.256.533-1.025 1.371-1.102.964-.359 1.167-.974a1.53 1.53 0 0 1 1.218-1.051c.507-.077.406.692-.152 1.127s-.533 1.179-.203 1.538-.051 1.051-.051 1.051.55-.446.398-.907-.55-.554-.195-1.067 1.523-2 1.219-2.743-1.016-1.41-.711-1.845 1.116.282 1.116 1.23-.101 2.179.382 2.307 2.411.64 1.751 1.127-.127 1.641-.127 1.641-.203-1 .229-1.359.686-.82-.102-1.128-1.632-.443-1.708-.93-.196-1.556.286-1.53 1.472.82 1.523 1.281.71.564 1.345.384 1.27.271 1.371.615c.216.737 1.016.564 1.016.564s-.762-.205-.762-.666-.38-.923-1.091-.872-1.472.308-1.599-.256-.622-1.372-1.319-1.529c-.665-.15-.905-1.035-.905-1.778s.186-.933.363-.318.667 1.653 1.708 1.268 1.98-.179 2.132.205 1.066 1.025 2.107.692 1.802 1.23 1.802 1.23-.28-.974-.711-1.282-1.015-.205-1.522-.205-.863-.154-1.244-.615-.609-.846-1.599-.692-1.371.256-1.802-.282-.153-1.487.38-1.359.939 1.154 1.828.743 2.284-.282 2.486.384 1.406 1.223 2.081.897a1.74 1.74 0 0 1 1.803.154c-.112-.325-.481-.567-1.142-.513-.939.077-1.954.282-2.233-.333s-.178-1.23-1.142-1.23-1.903.205-2.31.051-.634-.794-.279-1.025.685.282 1.092.436 1.37-.102 1.7-.461.888-.615 1.091-.461-.001-.282-.482-.128-1.117.615-1.625.692-.736-.128-1.116-.462-.813-.23-1.244-.025-.812.461-1.193.205-.615-.797-.142-.965c.364-.129.451.078 1.033.268.669.219.72.052 1.343-.175.665-.242.964.189 1.245.443.413.375.861.172.861.172s-.618-.141-.711-.436c-.101-.322-.253-.41-.507-.461-.187-.038-.183-.256.004-.296.265-.056.589-.078.808.065.431.282 1.244.564 2.259.436s1.345.846 1.599 1.333 1.092.513 1.523.231.761-.923.761-.923-.558.769-1.269.743-.914-.282-1.015-.769-.914-1.153-1.853-1.128-1.821-.298-2.183-.564c-.334-.245-1.091.026-1.802.308s-1.244.256-1.852-.231c-.594-.474-.542-.981-.539-1.007-.15-.226.579-.976 1.221-.788.113.033.223.055.328.067.324.038.213-.194-.078-.341a.98.98 0 0 0-1.158.096c-.235.17-.606.117-.571-.112.046-.308.545-.862 1.332-.528s1.161.332 1.973-.335 1.32-.743 1.929-.077 1.066.795 1.954.385 1.219 0 1.676.538.278.769.964.795 1.22 1.412 1.22 1.412-.297-1.345-.933-1.564z"/></g><defs><filter id="A" x="43.045" y="4.792" width="122.079" height="14.621" filterUnits="userSpaceOnUse" color-interpolation-filters="sRGB"><feFlood flood-opacity="0" result="A"/><feColorMatrix in="SourceAlpha" values="0 0 0 0 0 0 0 0 0 0 0 0 0 0 0 0 0 0 127 0"/><feOffset/><feGaussianBlur stdDeviation="1.091"/><feColorMatrix values="0 0 0 0 0 0 0 0 0 0 0 0 0 0 0 0 0 0 0.3 0"/><feBlend in2="A"/><feBlend in="SourceGraphic"/></filter><filter id="B" x="43.045" y="20.792" width="103.716" height="14.596" filterUnits="userSpaceOnUse" color-interpolation-filters="sRGB"><feFlood flood-opacity="0" result="A"/><feColorMatrix in="SourceAlpha" values="0 0 0 0 0 0 0 0 0 0 0 0 0 0 0 0 0 0 127 0"/><feOffset/><feGaussianBlur stdDeviation="1.091"/><feColorMatrix values="0 0 0 0 0 0 0 0 0 0 0 0 0 0 0 0 0 0 0.3 0"/><feBlend in2="A"/><feBlend in="SourceGraphic"/></filter></defs></svg>