<svg width="424" height="118" fill="none" xmlns="http://www.w3.org/2000/svg"><g opacity=".6"><path d="m151.88 66.448 3.419 9.239 9.238 3.418-9.238 3.418-3.419 9.239-3.418-9.239-9.238-3.418 9.238-3.419 3.418-9.238Z" fill="#10182B"/><path d="m151.88 67.968 2.924 7.901.084.228.228.084 7.901 2.924-7.901 2.924-.228.084-.084.227-2.924 7.902-2.924-7.902-.084-.227-.227-.084-7.902-2.924 7.902-2.924.227-.084.084-.227 2.924-7.902Z" stroke="#20C4F5" stroke-opacity=".62" stroke-width="1.055" stroke-linecap="round"/><path d="m12.657 37.97 3.418 9.238 9.238 3.418-9.238 3.419-3.418 9.238-3.419-9.238L0 50.626l9.238-3.418 3.419-9.238Z" fill="#10182B"/><path d="m12.657 39.49 2.924 7.901.084.227.227.085 7.902 2.923-7.902 2.924-.227.085-.084.227-2.924 7.901-2.924-7.901-.084-.227-.228-.085-7.901-2.924 7.901-2.923.228-.085.084-.227 2.924-7.902Z" stroke="#20C4F5" stroke-opacity=".62" stroke-width="1.055" stroke-linecap="round"/><path d="m211.999 45.352 3.419 9.239 9.238 3.418-9.238 3.419-3.419 9.238-3.418-9.238-9.238-3.419 9.238-3.418 3.418-9.239Z" fill="#10182B"/><path d="m211.999 46.872 2.924 7.902.085.227.227.084 7.902 2.924-7.902 2.924-.227.084-.085.228-2.924 7.901-2.923-7.901-.085-.228-.227-.084-7.902-2.924 7.902-2.924.227-.084.085-.227 2.923-7.902Z" stroke="#20C4F5" stroke-opacity=".62" stroke-width="1.055" stroke-linecap="round"/><path d="m72.776 16.876 3.418 9.238 9.239 3.419-9.239 3.418-3.418 9.238-3.419-9.238-9.238-3.418 9.238-3.419 3.419-9.238Z" fill="#10182B"/><path d="m72.776 18.396 2.924 7.901.084.228.227.084 7.902 2.924-7.902 2.924-.227.084-.084.227-2.924 7.902-2.924-7.902-.084-.227-.228-.084-7.901-2.924 7.901-2.924.228-.084.084-.228 2.924-7.901Z" stroke="#20C4F5" stroke-opacity=".62" stroke-width="1.055" stroke-linecap="round"/><path d="m129.731 9.492 3.418 9.238 9.239 3.419-9.239 3.418-3.418 9.239-3.419-9.239-9.238-3.418 9.238-3.419 3.419-9.238Z" fill="#10182B"/><path d="m129.731 11.012 2.924 7.901.084.228.227.084 7.902 2.924-7.902 2.924-.227.084-.084.227-2.924 7.902-2.924-7.902-.084-.227-.228-.084-7.901-2.924 7.901-2.924.228-.084.084-.228 2.924-7.901Z" stroke="#20C4F5" stroke-opacity=".62" stroke-width="1.055" stroke-linecap="round"/><path d="m41.662 15.82 1.282 3.465 3.464 1.282-3.464 1.282-1.282 3.464-1.282-3.464-3.464-1.282 3.464-1.282 1.282-3.465Z" fill="#10182B"/><path d="m41.662 17.34.788 2.128.084.227.227.084 2.128.788-2.128.787-.227.084-.084.228-.788 2.127-.787-2.127-.084-.228-.228-.084-2.127-.787 2.127-.788.228-.084.084-.227.787-2.128Z" stroke="#20C4F5" stroke-opacity=".62" stroke-width="1.055" stroke-linecap="round"/><path d="m185.104 20.04 1.282 3.464 3.464 1.282-3.464 1.282-1.282 3.465-1.282-3.465-3.465-1.282 3.465-1.282 1.282-3.464Z" fill="#10182B"/><path d="m185.104 21.56.787 2.127.084.228.228.084 2.127.787-2.127.788-.228.084-.084.227-.787 2.128-.788-2.128-.084-.227-.227-.084-2.128-.788 2.128-.787.227-.084.084-.228.788-2.127Z" stroke="#20C4F5" stroke-opacity=".62" stroke-width="1.055" stroke-linecap="round"/><path d="m206.569 37.464-.103 3.693 2.736 2.482-3.693-.104-2.482 2.736.104-3.692-2.736-2.482 3.692.103 2.482-2.736Z" fill="#10182B"/><path d="m206.002 38.874-.063 2.268-.007.242.18.163 1.68 1.525-2.268-.064-.242-.006-.163.18-1.525 1.68.064-2.268.007-.243-.18-.163-1.68-1.524 2.268.063.242.007.163-.18 1.524-1.68Z" stroke="#20C4F5" stroke-opacity=".62" stroke-width="1.055" stroke-linecap="round"/><path d="M58.82 81.175 55.271 82.2l-1.532 3.36-1.025-3.548-3.36-1.533 3.548-1.024 1.532-3.361 1.025 3.549 3.361 1.532Z" fill="#10182B"/><path d="m57.305 81.064-2.18.629-.233.067-.1.22-.942 2.065-.63-2.18-.066-.233-.221-.1-2.064-.941 2.18-.63.232-.067.101-.22.941-2.065.63 2.18.067.233.22.1 2.065.942Z" stroke="#20C4F5" stroke-opacity=".62" stroke-width="1.055" stroke-linecap="round"/><path d="m136.106 58.155-2.681 2.54.183 3.69-2.54-2.681-3.69.183 2.682-2.54-.184-3.69 2.541 2.681 3.689-.183Z" fill="#10182B"/><path d="m134.709 58.752-1.647 1.561-.176.167.012.242.113 2.266-1.561-1.647-.166-.176-.243.012-2.266.113 1.647-1.56.176-.168-.012-.242-.112-2.266 1.56 1.647.167.176.242-.012 2.266-.113Z" stroke="#20C4F5" stroke-opacity=".62" stroke-width="1.055" stroke-linecap="round"/><path d="m78.05 59.065 3.418 9.238 9.238 3.418-9.238 3.419-3.419 9.238-3.418-9.238-9.238-3.419 9.238-3.418 3.418-9.238Z" fill="#10182B"/><path d="m78.05 60.584 2.923 7.902.084.227.228.084 7.901 2.924-7.901 2.924-.228.084-.084.228-2.924 7.901-2.924-7.901-.084-.228-.227-.084-7.902-2.924 7.902-2.924.227-.084.084-.227 2.924-7.902Z" stroke="#20C4F5" stroke-opacity=".62" stroke-width="1.055" stroke-linecap="round"/><path d="m109.164 0 1.282 3.464 3.464 1.282-3.464 1.282-1.282 3.465-1.282-3.465-3.464-1.282 3.464-1.282L109.164 0Z" fill="#10182B"/><path d="m109.164 1.52.788 2.127.084.228.227.084 2.128.787-2.128.788-.227.084-.084.227-.788 2.128-.787-2.128-.084-.227-.228-.084-2.127-.788 2.127-.787.228-.084.084-.228.787-2.127Z" stroke="#20C4F5" stroke-opacity=".62" stroke-width="1.055" stroke-linecap="round"/><path d="m155.571 32.696 1.282 3.465 3.465 1.282-3.465 1.282-1.282 3.464-1.281-3.465-3.465-1.281 3.465-1.282 1.281-3.465Z" fill="#00D1FF"/><path d="m155.571 34.216.788 2.128.084.227.227.084 2.128.788-2.128.787-.227.084-.084.227-.788 2.128-.787-2.127-.084-.228-.227-.084-2.128-.787 2.128-.788.227-.084.084-.227.787-2.128Z" stroke="#20C4F5" stroke-opacity=".62" stroke-width="1.055" stroke-linecap="round"/><path d="m180.893 47.6-.104 3.693 2.736 2.482-3.692-.104-2.482 2.736.103-3.692-2.736-2.482 3.693.103 2.482-2.736Z" fill="#00D1FF"/><path d="m180.326 49.01-.064 2.268-.007.242.18.163 1.68 1.525-2.268-.064-.242-.007-.163.18-1.524 1.68.063-2.268.007-.242-.18-.163-1.68-1.524 2.268.063.242.007.163-.18 1.525-1.68Z" stroke="#20C4F5" stroke-opacity=".62" stroke-width="1.055" stroke-linecap="round"/><path d="m41.355 59.798-3.549 1.024-1.532 3.362-1.025-3.55-3.36-1.532 3.548-1.024 1.533-3.361 1.024 3.549 3.361 1.532Z" fill="#00D1FF"/><path d="m39.84 59.687-2.18.629-.233.067-.1.22-.942 2.065-.629-2.18-.067-.233-.22-.1-2.065-.941 2.18-.63.232-.067.101-.22.941-2.065.63 2.18.067.233.22.1 2.065.942Z" stroke="#20C4F5" stroke-opacity=".62" stroke-width="1.055" stroke-linecap="round"/><path d="m102.545 47.447-2.682 2.54.184 3.69-2.541-2.681-3.69.183 2.682-2.54-.183-3.69 2.54 2.681 3.69-.183Z" fill="#10182B"/><path d="m101.147 48.044-1.646 1.561-.176.167.012.242.112 2.266-1.56-1.647-.167-.176-.242.012-2.266.113 1.647-1.56.176-.168-.012-.242-.113-2.266 1.56 1.647.167.176.243-.012 2.265-.112Z" stroke="#20C4F5" stroke-opacity=".62" stroke-width="1.055" stroke-linecap="round"/><path d="m272.12 50.626-3.419-9.238-9.238-3.419 9.238-3.418 3.419-9.238 3.418 9.238 9.238 3.418-9.238 3.419-3.418 9.238Z" fill="#10182B"/><path d="m272.12 49.106-2.924-7.901-.084-.228-.228-.084-7.901-2.924 7.901-2.924.228-.084.084-.227 2.924-7.902 2.924 7.902.084.227.227.084 7.902 2.924-7.902 2.924-.227.084-.084.228-2.924 7.901Z" stroke="#20C4F5" stroke-opacity=".62" stroke-width="1.055" stroke-linecap="round"/><path d="m411.343 79.103-3.418-9.238-9.238-3.418 9.238-3.419 3.418-9.238 3.419 9.238L424 66.447l-9.238 3.418-3.419 9.239Z" fill="#10182B"/><path d="m411.343 77.584-2.924-7.902-.084-.227-.227-.084-7.902-2.924 7.902-2.924.227-.084.084-.228 2.924-7.901 2.924 7.901.084.228.228.084 7.901 2.924-7.901 2.924-.228.084-.084.227-2.924 7.902Z" stroke="#20C4F5" stroke-opacity=".62" stroke-width="1.055" stroke-linecap="round"/><path d="m351.224 100.198-3.418-9.238-9.239-3.418 9.239-3.419 3.418-9.238 3.419 9.238 9.238 3.418-9.238 3.419-3.419 9.238Z" fill="#10182B"/><path d="m351.224 98.679-2.924-7.902-.084-.227-.227-.085-7.902-2.924 7.902-2.923.227-.084.084-.228 2.924-7.901 2.924 7.901.084.228.228.084 7.901 2.924-7.901 2.923-.228.085-.084.227-2.924 7.902Z" stroke="#20C4F5" stroke-opacity=".62" stroke-width="1.055" stroke-linecap="round"/><path d="m294.269 107.581-3.418-9.238-9.239-3.419 9.239-3.418 3.418-9.238 3.419 9.238 9.238 3.418-9.238 3.419-3.419 9.238Z" fill="#10182B"/><path d="m294.269 106.061-2.924-7.901-.084-.228-.227-.084-7.902-2.924L291.034 92l.227-.084.084-.227 2.924-7.902 2.924 7.902.084.227.228.085 7.901 2.923-7.901 2.924-.228.084-.084.228-2.924 7.901Z" stroke="#20C4F5" stroke-opacity=".62" stroke-width="1.055" stroke-linecap="round"/><path d="m382.338 101.253-1.282-3.464-3.465-1.282 3.465-1.282 1.282-3.465 1.282 3.465 3.464 1.282-3.464 1.282-1.282 3.464Z" fill="#10182B"/><path d="m382.338 99.733-.788-2.127-.084-.228-.227-.084-2.128-.787 2.128-.788.227-.084.084-.227.788-2.128.787 2.128.084.227.228.084 2.127.788-2.127.787-.228.084-.084.228-.787 2.127Z" stroke="#20C4F5" stroke-opacity=".62" stroke-width="1.055" stroke-linecap="round"/><path d="m238.896 97.033-1.282-3.464-3.464-1.282 3.464-1.282 1.282-3.464 1.282 3.464 3.465 1.282-3.465 1.282-1.282 3.464Z" fill="#10182B"/><path d="m238.896 95.514-.787-2.128-.084-.228-.228-.084-2.127-.787 2.127-.787.228-.085.084-.227.787-2.128.788 2.128.084.227.227.085 2.128.787-2.128.787-.227.084-.084.228-.788 2.128Z" stroke="#20C4F5" stroke-opacity=".62" stroke-width="1.055" stroke-linecap="round"/><path d="m217.431 79.609.103-3.693-2.736-2.482 3.693.104 2.482-2.736-.104 3.692 2.736 2.482-3.692-.103-2.482 2.736Z" fill="#10182B"/><path d="m217.998 78.199.063-2.268.007-.242-.18-.163-1.68-1.525 2.268.064.242.007.163-.18 1.525-1.68-.064 2.268-.007.242.18.163 1.68 1.524-2.268-.063-.242-.007-.163.18-1.524 1.68Z" stroke="#20C4F5" stroke-opacity=".62" stroke-width="1.055" stroke-linecap="round"/><path d="m365.18 35.898 3.549-1.024 1.532-3.361 1.025 3.549 3.361 1.532-3.549 1.025-1.532 3.36-1.025-3.548-3.361-1.533Z" fill="#10182B"/><path d="m366.695 36.01 2.18-.63.233-.067.101-.22.941-2.065.629 2.18.067.233.221.1 2.064.942-2.179.629-.233.067-.101.22-.941 2.065-.629-2.18-.068-.233-.22-.1-2.065-.941Z" stroke="#20C4F5" stroke-opacity=".62" stroke-width="1.055" stroke-linecap="round"/><path d="m287.894 58.918 2.681-2.54-.183-3.69 2.54 2.681 3.69-.183-2.682 2.54.184 3.69-2.541-2.681-3.689.183Z" fill="#10182B"/><path d="m289.291 58.32 1.647-1.56.176-.166-.012-.243-.113-2.266 1.561 1.647.166.176.243-.012 2.266-.112-1.647 1.56-.176.167.012.242.112 2.266-1.56-1.647-.167-.176-.242.012-2.266.113Z" stroke="#20C4F5" stroke-opacity=".62" stroke-width="1.055" stroke-linecap="round"/><path d="m345.951 58.009-3.419-9.239-9.238-3.418 9.238-3.418 3.419-9.239 3.418 9.239 9.238 3.418-9.238 3.419-3.418 9.238Z" fill="#10182B"/><path d="m345.951 56.49-2.924-7.903-.084-.227-.228-.084-7.901-2.924 7.901-2.924.228-.084.084-.227 2.924-7.902 2.924 7.902.084.227.227.084 7.902 2.924-7.902 2.924-.227.084-.084.227-2.924 7.902Z" stroke="#20C4F5" stroke-opacity=".62" stroke-width="1.055" stroke-linecap="round"/><path d="m320.109 106.526-.712-1.924-1.925-.712 1.925-.713.712-1.924.712 1.924 1.925.713-1.925.712-.712 1.924Z" fill="#00D1FF"/><path d="m320.109 105.007-.217-.588-.084-.228-.228-.084-.588-.217.588-.218.228-.084.084-.228.217-.588.218.588.084.228.227.084.588.218-.588.217-.227.084-.084.228-.218.588Z" stroke="#20C4F5" stroke-opacity=".62" stroke-width="1.055" stroke-linecap="round"/><path d="m268.429 84.377-1.282-3.464-3.465-1.282 3.465-1.282 1.282-3.465 1.281 3.465 3.465 1.282-3.465 1.282-1.281 3.464Z" fill="#00D1FF"/><path d="m268.429 82.857-.788-2.127-.084-.228-.227-.084-2.128-.787 2.128-.788.227-.084.084-.227.788-2.128.787 2.128.084.227.227.084 2.128.788-2.128.787-.227.084-.084.228-.787 2.127Z" stroke="#20C4F5" stroke-opacity=".62" stroke-width="1.055" stroke-linecap="round"/><path d="m243.107 69.473.104-3.692-2.736-2.482 3.692.103 2.482-2.736-.103 3.693 2.736 2.482-3.693-.104-2.482 2.736Z" fill="#00D1FF"/><path d="m243.674 68.063.064-2.268.007-.242-.18-.163-1.68-1.524 2.268.063.242.007.163-.18 1.524-1.68-.063 2.268-.007.242.18.163 1.68 1.525-2.268-.064-.242-.007-.163.18-1.525 1.68Z" stroke="#20C4F5" stroke-opacity=".62" stroke-width="1.055" stroke-linecap="round"/><path d="m382.645 57.275 3.549-1.024 1.532-3.361 1.025 3.549 3.361 1.532-3.549 1.025-1.533 3.36-1.024-3.548-3.361-1.533Z" fill="#00D1FF"/><path d="m384.16 57.387 2.18-.63.233-.067.101-.22.941-2.065.629 2.18.067.233.221.1 2.064.942-2.18.629-.233.067-.1.22-.941 2.065-.63-2.18-.067-.233-.22-.1-2.065-.941Z" stroke="#20C4F5" stroke-opacity=".62" stroke-width="1.055" stroke-linecap="round"/><path d="m321.455 69.626 2.682-2.54-.184-3.69 2.541 2.681 3.689-.183-2.681 2.54.183 3.69-2.54-2.681-3.69.183Z" fill="#10182B"/><path d="m322.853 69.029 1.646-1.56.176-.167-.012-.243-.112-2.266 1.56 1.647.167.176.242-.012 2.266-.112-1.647 1.56-.176.167.012.242.113 2.266-1.561-1.647-.166-.176-.243.012-2.265.113Z" stroke="#20C4F5" stroke-opacity=".62" stroke-width="1.055" stroke-linecap="round"/><path d="m164.892 39.222.008-.008.107-.112-.382-.364.382.364c4.406-4.632 9.901-7.583 15.889-8.545 4.302-.69 8.731-.373 13.957 1.024h.001l.03.008c5.394 1.445 9.478 3.425 12.881 6.22 4.707 3.862 7.976 9.214 9.463 15.552l.002.01.003.009c.019.068 2.584 9.426.406 20.408-3.842 1.049-17.005 3.895-33.815-.61-16.854-4.516-26.935-13.71-29.591-16.379 3.55-10.438 10.3-17.216 10.647-17.564l.012-.013Zm-11.762 17.55-.101.305.223.23c2.34 2.402 12.675 12.168 30.299 16.89 17.54 4.7 31.179 1.515 34.685.52l.308-.088.064-.313c2.31-11.21-.254-20.832-.355-21.206-1.538-6.545-4.924-12.1-9.819-16.116-3.545-2.911-7.774-4.95-13.277-6.424l-.031-.008c-5.338-1.427-9.919-1.765-14.397-1.046-6.228 1-11.93 4.069-16.486 8.859l-.103.108-.007.007c-.387.388-7.405 7.436-11.003 18.282Zm1.259 43.111-1.565-.656.918 1.428c2.415 3.756 8.066 10.389 19.14 13.356 11.135 2.984 19.324.058 23.274-1.994l1.498-.778-1.674-.213c-6.786-.864-13.955-2.261-21.174-4.195-7.212-1.933-14.114-4.306-20.417-6.948Zm79.429 5.505c1.877-1.456 2.835-3.185 2.813-5.263-.056-5.438-3.673-10.795-7.545-15.003-3.892-4.23-8.145-7.407-9.662-8.488l-.209-.149-.245.072c-3.199.934-17.508 4.483-35.932-.454-18.528-4.965-29.28-15.416-31.346-17.572l-.177-.185-.255.025c-1.858.18-7.131.808-12.617 2.527-5.456 1.709-11.265 4.54-14.028 9.214-1.056 1.788-1.09 3.764-.193 5.964 1.025 2.509 3.187 5.14 6.191 7.767 3.012 2.635 6.906 5.296 11.444 7.859 9.078 5.125 20.776 9.875 33.261 13.221 12.484 3.345 24.99 5.08 35.414 5.18 5.212.05 9.915-.308 13.84-1.083 3.916-.774 7.104-1.971 9.246-3.632Zm1.758-5.252c.018 1.682-.731 3.12-2.404 4.419-1.955 1.515-4.959 2.67-8.804 3.43-3.836.757-8.463 1.113-13.626 1.064-10.324-.1-22.742-1.82-35.151-5.145-12.41-3.325-24.024-8.044-33.015-13.12-4.496-2.539-8.325-5.16-11.268-7.735-2.95-2.58-4.974-5.082-5.909-7.372-.8-1.961-.73-3.581.124-5.028 2.55-4.315 8.02-7.048 13.435-8.745 5.156-1.615 10.133-2.251 12.151-2.458 2.519 2.581 13.349 12.77 31.656 17.676 18.243 4.888 32.518 1.575 36.253.518 1.642 1.185 5.634 4.221 9.292 8.196 3.843 4.176 7.215 9.28 7.266 14.3Zm-41.285-65.902-.008-.002-.022-.006c-.453-.121-6.492-1.65-13.954.134-7.492 1.791-16.37 6.912-22.458 20.008a2.044 2.044 0 0 0 .992 2.713h.001a2.04 2.04 0 0 0 2.709-.99h.001c5.422-11.664 13.048-16.19 19.427-17.792 6.404-1.608 11.61-.285 12.182-.14h.001l.029.007.013.004.013.002c1.041.208 2.159-.298 2.478-1.414v-.001a2.042 2.042 0 0 0-1.404-2.523Zm34.09 61.814a5.266 5.266 0 0 0-3.718-6.439 5.262 5.262 0 0 0-6.439 3.718 5.261 5.261 0 0 0 3.718 6.438 5.263 5.263 0 0 0 6.439-3.717Zm-55.226 16.944c-9.425-2.525-14.781-7.772-17.519-11.454a162.898 162.898 0 0 0 18.897 6.311 162.967 162.967 0 0 0 19.549 3.988c-4.194 1.824-11.446 3.696-20.927 1.155Zm20.847-77.744.004.002a.987.987 0 0 1 .674 1.22c-.14.487-.644.785-1.244.67l-.015-.003c-.63-.16-6.041-1.533-12.699.14-6.686 1.679-14.57 6.416-20.127 18.37a.987.987 0 1 1-1.789-.834c5.946-12.791 14.554-17.708 21.746-19.428 7.222-1.726 13.065-.24 13.436-.14l.014.004ZM134.821 70.98a4.208 4.208 0 0 1 5.147-2.972 4.208 4.208 0 0 1 2.972 5.147 4.207 4.207 0 0 1-5.147 2.97 4.208 4.208 0 0 1-2.972-5.145Zm5.42-3.991a5.263 5.263 0 0 0-6.439 3.718 5.262 5.262 0 0 0 3.718 6.437 5.262 5.262 0 0 0 6.439-3.716 5.264 5.264 0 0 0-3.718-6.44Zm79.001 26.61a4.21 4.21 0 0 1 5.148-2.971 4.21 4.21 0 0 1 2.972 5.148 4.208 4.208 0 0 1-5.147 2.97 4.208 4.208 0 0 1-2.973-5.146Zm-38.453-9.088a5.263 5.263 0 0 0-6.439 3.716 5.263 5.263 0 0 0 3.718 6.44 5.262 5.262 0 0 0 6.439-3.718 5.263 5.263 0 0 0-3.718-6.438Zm-5.42 3.989a4.208 4.208 0 0 1 5.147-2.97 4.21 4.21 0 0 1 2.972 5.146 4.207 4.207 0 0 1-5.147 2.971 4.207 4.207 0 0 1-2.972-5.147Zm45.18-13.877-.068.336.278.199c1.825 1.305 6.277 4.674 10.281 9.172 4.019 4.516 7.507 10.079 7.565 15.777.027 2.623-1.186 4.986-3.576 6.839-2.858 2.217-7.504 3.743-13.451 4.522-5.931.778-13.092.804-20.922.074l-.287-.027-.178.228-.065.087-.002.003c-.027.037-.041.057-.055.074a.114.114 0 0 1-.019.02c-.407.328-10.834 8.504-27.676 3.991-16.865-4.519-21.797-16.841-21.974-17.298l-.001-.001a1.392 1.392 0 0 1-.015-.11l-.004-.038a1.292 1.292 0 0 0-.009-.077l-.04-.286-.262-.121c-7.147-3.282-13.335-6.886-18.083-10.525-4.76-3.648-8.021-7.293-9.388-10.642-1.144-2.802-1.014-5.454.321-7.712 2.899-4.906 8.699-7.98 14.436-9.88 5.716-1.894 11.254-2.586 13.49-2.804l.341-.033.108-.325c3.822-11.45 11.093-18.625 11.381-18.905l.008-.008.009-.01.129-.137.001-.001c4.859-5.11 10.946-8.37 17.596-9.44 4.261-.684 8.776-.442 13.764.733l.498.118.132-.494 3.46-12.91.087-.327-.26-.216a3.105 3.105 0 0 1-1.027-3.196 3.113 3.113 0 0 1 6.014 1.611 3.107 3.107 0 0 1-2.487 2.255l-.334.057-.087.326-3.459 12.909-.133.496.492.146c5.134 1.525 9.17 3.573 12.609 6.395 5.226 4.29 8.85 10.212 10.472 17.137l.003.012.004.012c.091.323 2.797 10.17.383 21.994Zm4.906 20.642a2.23 2.23 0 0 0-4.306-1.154 2.23 2.23 0 0 0 1.577 2.728 2.23 2.23 0 0 0 2.729-1.574ZM136.727 71.49a2.23 2.23 0 0 0 4.307 1.154 2.231 2.231 0 0 0-1.576-2.73 2.232 2.232 0 0 0-2.731 1.576Zm40.548 17.522a2.231 2.231 0 0 0 1.576 2.73 2.231 2.231 0 0 0 2.731-1.576 2.23 2.23 0 0 0-4.307-1.154Z" fill="#10182B" stroke="#5F6986" stroke-width="1.055"/></g></svg>