<svg width="40" height="40" viewBox="0 0 40 40" fill="none" xmlns="http://www.w3.org/2000/svg">
<path fill-rule="evenodd" clip-rule="evenodd" d="M20.5617 0.255445C19.6112 0.255445 19.0124 0.811042 19.0068 0.816629C18.3217 1.37603 18.3113 2.565 18.4702 3.32174C18.6762 4.30264 19.8553 4.81398 21.1258 4.74157C21.6957 4.70916 22.1035 4.32878 22.3456 4.01567C22.8272 3.39415 23.0315 2.57438 22.95 2.14059C22.8011 1.34317 22.1049 0.43893 20.9275 0.275335C20.8587 0.265949 20.6277 0.255445 20.5617 0.255445ZM20.9649 5.00149C19.6252 5.00149 18.4996 4.40656 18.2183 3.2567C18.018 2.43716 18.0771 1.25288 18.8471 0.623981C18.8665 0.604537 19.6128 -0.086943 20.787 0.00915796C21.961 0.105259 22.9582 0.914295 23.1959 2.09187C23.3103 2.65976 23.0231 3.55439 22.5473 4.16944C22.1518 4.67989 21.6616 4.96618 21.1307 4.99657C21.0751 4.9997 21.0203 5.00149 20.9649 5.00149Z" fill="white"/>
<path fill-rule="evenodd" clip-rule="evenodd" d="M26.8655 6.02062C26.023 5.58951 25.88 4.10262 26.0907 3.32912C26.3014 2.55607 27.0308 2.05031 27.4823 1.91644C28.4545 1.62836 29.2416 2.49662 29.4973 3.07636C29.7535 3.65654 29.7374 4.84595 29.2565 5.52984C28.7747 6.21372 27.7076 6.45173 26.8655 6.02062ZM28.5054 1.79777C27.6024 1.44085 26.2492 1.87219 26.2492 1.87219C25.2863 2.28833 24.9641 3.36175 24.9641 4.58089C24.9641 5.80026 26.3992 6.48168 27.648 6.57085C28.8964 6.6598 29.8883 5.29182 29.9188 4.22152C29.9489 3.15078 29.4074 2.15446 28.5054 1.79777Z" fill="white"/>
<path fill-rule="evenodd" clip-rule="evenodd" d="M14.663 1.49785C15.4944 1.92405 15.6352 3.39149 15.4278 4.15493C15.2196 4.9186 14.8248 5.42972 14.3793 5.56158C13.4197 5.84608 12.4026 5.18276 12.0642 4.40457C11.815 3.83065 11.8276 2.65777 12.3026 1.98216C12.7777 1.30699 13.8311 1.07255 14.663 1.49785ZM13.0446 5.66707C13.9351 6.01929 15.272 5.59354 15.272 5.59354C16.2223 5.18254 16.4748 4.4191 16.4748 3.21538C16.4748 2.01166 15.6403 0.763908 13.8911 0.954769C12.6622 1.08886 11.678 2.21727 11.6484 3.27438C11.6187 4.33104 12.1534 5.31462 13.0446 5.66707Z" fill="white"/>
<path fill-rule="evenodd" clip-rule="evenodd" d="M32.6744 9.92297C31.8739 9.51353 31.9848 8.04386 32.1846 7.30902C32.3853 6.57463 32.6168 6.13614 33.045 6.0092C33.969 5.73565 34.717 6.56033 34.9604 7.11123C35.2036 7.66236 35.1886 8.79255 34.7307 9.44269C34.2737 10.0926 33.475 10.3328 32.6744 9.92297ZM34.0174 5.89634C33.1595 5.55708 31.8732 5.96674 31.8732 5.96674C30.9586 6.36254 30.7156 7.09715 30.7156 8.25595C30.7156 9.41475 31.6243 10.3771 33.2026 10.4319C34.3912 10.4728 35.3322 9.21651 35.3605 8.19918C35.3889 7.18185 34.875 6.23537 34.0174 5.89634Z" fill="white"/>
<path fill-rule="evenodd" clip-rule="evenodd" d="M8.1866 5.05759C9.02911 5.4887 9.22607 6.9691 9.01517 7.74261C8.80493 8.51566 8.48426 9.10634 8.03324 9.24022C7.06105 9.52829 6.27365 8.66026 6.01782 8.0803C5.76221 7.50056 5.77815 6.31115 6.25926 5.62704C6.7406 4.94272 7.34476 4.62625 8.1866 5.05759ZM7.01059 9.35911C7.91285 9.71603 9.26679 9.28491 9.26679 9.28491C10.2299 8.86855 10.4851 8.09527 10.4851 6.87591C10.4851 5.65677 9.11674 4.67542 7.86793 4.58625C6.61888 4.49707 5.62655 5.86484 5.59646 6.93558C5.56658 8.00588 6.10811 9.00242 7.01059 9.35911Z" fill="white"/>
<path fill-rule="evenodd" clip-rule="evenodd" d="M36.1711 15.6607C35.7057 15.2164 35.5736 13.7384 35.7838 12.9649C35.9947 12.1919 36.0664 11.8309 36.5168 11.6973C37.4892 11.409 38.2766 12.2772 38.5329 12.8574C38.7887 13.4374 38.7717 14.6062 38.2903 15.2901C37.8085 15.9742 36.8572 16.3162 36.1711 15.6607ZM37.5403 11.5786C36.6381 11.2215 35.2835 11.6526 35.2835 11.6526C34.3208 12.0692 34.0654 12.8425 34.0654 14.062C34.0654 15.2814 35.434 16.2628 36.6826 16.3522C37.9309 16.4415 38.9244 15.0733 38.9545 14.0024C38.9839 12.9316 38.4424 11.9353 37.5403 11.5786Z" fill="white"/>
<path fill-rule="evenodd" clip-rule="evenodd" d="M4.46908 11.1647C4.93426 11.609 5.05952 13.1117 4.84795 13.885C4.63816 14.6581 4.7477 14.9254 4.2969 15.059C3.32516 15.3471 2.53731 14.4791 2.28171 13.8991C2.0261 13.3187 2.04292 12.1503 2.52403 11.4664C3.00537 10.7823 3.78259 10.5094 4.46908 11.1647ZM3.27404 15.1779C4.17674 15.5348 5.53068 15.1037 5.53068 15.1037C6.49357 14.6871 6.74918 13.9141 6.74918 12.6943C6.74918 11.4751 5.81948 10.3051 4.13181 10.4044C2.88211 10.4779 1.89 11.6836 1.86034 12.7542C1.83025 13.8249 2.37178 14.821 3.27404 15.1779Z" fill="white"/>
<path fill-rule="evenodd" clip-rule="evenodd" d="M37.5682 22.508C37.3294 22.4277 37.4888 18.0659 37.6729 18.0583C38.5123 18.023 39.313 18.8085 39.5721 19.3959C39.8315 19.9832 39.8392 20.9677 39.3515 21.6605C38.8644 22.3531 38.198 22.7198 37.5682 22.508ZM38.567 18.1007C37.653 17.7396 36.282 18.176 36.282 18.176C35.3071 18.598 35.0478 19.3809 35.0478 20.6159C35.0478 21.8509 35.9421 22.9433 37.699 22.9348C38.9655 22.9288 39.9678 21.6399 39.9988 20.5553C40.0293 19.4709 39.4807 18.4623 38.567 18.1007Z" fill="white"/>
<path fill-rule="evenodd" clip-rule="evenodd" d="M2.45391 17.4334C2.66348 17.569 2.6896 21.6126 2.52318 21.6871C1.90197 21.9664 0.67794 21.1295 0.422112 20.5495C0.166948 19.9693 0.183989 18.8009 0.664883 18.1168C1.14666 17.4329 1.9708 17.1194 2.45391 17.4334ZM1.41533 21.8281C2.31736 22.185 3.6713 21.7537 3.6713 21.7537C4.6342 21.3375 4.8898 20.5643 4.8898 19.3449C4.8898 18.1255 4.00636 17.0467 2.27288 17.0552C1.02096 17.061 0.0317315 18.3336 0.00119148 19.4046C-0.0289059 20.4751 0.513068 21.4714 1.41533 21.8281Z" fill="white"/>
<path fill-rule="evenodd" clip-rule="evenodd" d="M36.1707 29.3926C36.0621 29.3461 36.5729 28.7223 36.6335 27.2804C36.6941 25.8183 36.1041 25.1816 36.1911 25.1476C37.0155 24.8227 37.8471 25.728 38.0996 26.3004C38.3521 26.873 38.3353 27.9254 37.8602 28.6005C37.3848 29.2759 36.6937 29.6161 36.1707 29.3926ZM37.1197 25.0376C36.2289 24.6859 34.892 25.1118 34.892 25.1118C33.9415 25.5224 33.6893 26.2858 33.6893 27.4893C33.6893 28.6933 34.5616 29.7582 36.273 29.7502C37.5085 29.7441 38.4856 28.4874 38.5152 27.4306C38.5456 26.3739 38.0107 25.3903 37.1197 25.0376Z" fill="white"/>
<path fill-rule="evenodd" clip-rule="evenodd" d="M32.7689 34.7897C32.6576 34.7465 33.4414 34.1516 33.5025 32.6911C33.5642 31.2098 32.396 30.5241 32.4836 30.4895C33.319 30.1603 34.1613 31.0775 34.4174 31.6572C34.6723 32.2372 34.6559 33.3032 34.1742 33.9873C33.693 34.6712 33.1967 34.9542 32.7689 34.7897ZM33.4242 30.3784C32.5221 30.0219 31.3662 30.4549 31.3662 30.4549C30.4036 30.8712 29.9495 31.6425 29.9495 32.8616C29.9495 34.0812 30.8331 35.1598 32.5673 35.1517C33.8185 35.1457 34.8077 33.8727 34.8381 32.8024C34.8682 31.7314 34.3273 30.7351 33.4242 30.3784Z" fill="white"/>
<path fill-rule="evenodd" clip-rule="evenodd" d="M6.63019 29.5595C6.74084 29.602 5.77994 29.9795 5.74011 31.6452C5.6943 33.5551 6.99844 33.7712 6.91191 33.8054C6.08711 34.1304 5.25589 33.225 5.00294 32.6522C4.75065 32.0796 4.76681 31.0272 5.24239 30.3518C5.71798 29.6762 6.20794 29.3968 6.63019 29.5595ZM5.98288 33.9149C6.87385 34.2672 8.21119 33.8416 8.21119 33.8416C9.16169 33.4304 9.41354 32.667 9.41354 31.4628C9.41354 30.2591 8.5416 29.1939 6.82981 29.202C5.59382 29.2078 4.61654 30.4649 4.58711 31.5218C4.55701 32.5789 5.09235 33.5627 5.98288 33.9149Z" fill="white"/>
<path fill-rule="evenodd" clip-rule="evenodd" d="M3.31372 23.7421C3.42327 23.789 3.10437 23.9821 3.06365 25.6692C3.0174 27.6033 3.68662 28.0072 3.59876 28.042C2.76334 28.371 1.92127 27.454 1.66567 26.8741C1.40984 26.2939 1.42666 25.2283 1.90778 24.5444C2.38911 23.8603 3.10437 23.6529 3.31372 23.7421ZM2.65822 28.1527C3.56025 28.51 4.91419 28.0785 4.91419 28.0785C5.91028 27.4223 6.13247 26.8891 6.13247 25.6695C6.13247 24.4505 5.24969 23.3715 3.51577 23.3798C2.26385 23.3858 1.2744 24.6586 1.24408 25.7294C1.21399 26.7999 1.75574 27.796 2.65822 28.1527Z" fill="white"/>
<path fill-rule="evenodd" clip-rule="evenodd" d="M27.2951 38.3345C27.1831 38.2913 28.5178 38.252 28.5782 36.2768C28.6512 33.9105 26.9213 34.0691 27.0094 34.0345C27.845 33.7053 28.6873 34.6223 28.9427 35.202C29.1981 35.7822 29.1819 36.848 28.7001 37.5321C28.2194 38.216 27.7228 38.4989 27.2951 38.3345ZM27.9508 33.9234C27.0479 33.5665 26.0206 33.9071 26.0206 33.9071C25.0583 34.3232 24.4752 35.1873 24.4752 36.4066C24.4752 37.626 25.3589 38.7048 27.0928 38.6963C28.3445 38.6905 29.3342 37.4175 29.3638 36.347C29.3939 35.2762 28.8526 34.2801 27.9508 33.9234Z" fill="white"/>
<path fill-rule="evenodd" clip-rule="evenodd" d="M12.3632 33.7677C12.4721 33.8164 11.1383 33.7837 10.9727 35.7516C10.7745 38.1087 12.509 38.0444 12.4192 38.0743C11.5689 38.3577 10.7769 37.3967 10.552 36.8042C10.3279 36.2117 10.4007 35.1488 10.9179 34.4922C11.4342 33.8354 11.9443 33.5801 12.3632 33.7677ZM11.4749 38.1342C12.3568 38.5392 13.7302 38.1816 13.7302 38.1816C14.7132 37.8182 15.1742 37.0919 15.2386 35.8752C15.303 34.6583 14.3144 33.5024 12.5834 33.4172C11.3341 33.3553 10.279 34.5724 10.1926 35.6389C10.1057 36.7057 10.5936 37.729 11.4749 38.1342Z" fill="white"/>
<path fill-rule="evenodd" clip-rule="evenodd" d="M17.8144 36.2535C18.1483 35.7956 18.587 35.3497 19.8891 35.3698C21.1913 35.3904 22.0867 36.2325 22.2489 37.2597C22.4115 38.2871 21.4358 39.8893 20.3979 39.9715C19.3604 40.0535 18.6892 39.9919 18.0178 39.3346C17.3468 38.6773 17.0617 37.2863 17.8144 36.2535Z" fill="white"/>
<path fill-rule="evenodd" clip-rule="evenodd" d="M32.6066 19.2698C31.9314 19.0369 31.7692 18.8928 31.4366 18.2614C31.1064 17.6343 30.4854 17.2718 29.5252 17.5489C28.5645 17.826 28.1256 17.854 27.467 17.1889C26.8082 16.5238 26.0405 16.3577 25.0522 16.9394C24.0643 17.5214 23.5508 17.2244 23.8954 16.6152C24.2849 15.9295 25.0792 15.1104 26.2322 15.5538C27.3847 15.9972 27.5761 15.9695 27.851 15.1383C28.1261 14.307 29.1138 14.058 29.5803 14.4178C30.0468 14.7781 30.1835 15.4988 30.8419 15.2769C31.501 15.0552 31.638 14.9721 32.077 15.3323C32.5159 15.6924 32.7903 15.5815 33.0096 15.5265C33.2296 15.4707 33.4214 15.6924 33.4214 15.6924C33.4214 15.6924 33.34 15.3046 32.9003 15.3323C32.4614 15.36 32.4063 15.3046 32.077 15.0827C31.7475 14.8612 31.7471 14.7504 31.0887 14.9169C30.431 15.0827 30.1842 14.3899 29.7717 14.0853C29.3603 13.7806 28.4273 13.6144 27.8789 14.2515C27.3298 14.8889 27.44 15.3323 26.6714 15.1661C25.9029 14.9996 24.6273 14.5331 24.0919 15.4707C23.4015 16.6806 22.9478 16.3278 22.3719 16.3555C21.7957 16.383 21.0193 17.3308 20.9912 16.8286C20.9319 15.7491 21.2382 15.3323 22.2805 15.3323C23.3244 15.3323 25.0241 14.9996 25.3817 14.307C25.738 13.6144 26.3143 13.0322 26.9454 13.3647C27.577 13.6975 28.1261 13.5035 28.9484 13.0603C29.7717 12.6165 30.8694 12.755 31.0887 13.337C31.3082 13.919 32.4889 13.7525 32.4889 13.7525C32.4889 13.7525 31.3629 13.6144 31.2812 13.0322C31.1989 12.4504 29.9919 12.201 29.1405 12.5892C28.2903 12.9767 27.7693 11.7022 28.9217 11.6745C30.0736 11.6465 30.6773 10.9262 30.6773 10.9262C30.6773 10.9262 29.9087 11.3419 29.3603 11.3419C28.8115 11.3419 27.9335 11.5077 27.961 12.007C27.9882 12.5061 28.1533 12.7273 27.8236 12.8938C27.4943 13.0603 27.1647 12.8661 26.8082 12.7827C26.4508 12.6996 26.0133 12.6169 25.6563 13.0876C25.2989 13.5587 24.3393 14.2236 23.8728 14.2236C23.4057 14.2236 23.7903 13.2818 24.3389 13.0047C24.3974 12.9751 24.4484 12.9411 24.4929 12.904C24.5871 12.8253 24.3425 12.707 24.2296 12.755C23.708 12.9767 23.3784 13.5035 23.3235 13.8915C23.2684 14.2792 22.9947 14.5287 22.4182 14.4455C21.8421 14.3624 21.5398 14.3342 21.2108 14.5841C20.8817 14.8335 21.1557 13.8633 21.7317 13.7245C22.3089 13.5862 22.8575 13.7527 23.0768 13.0047C23.2959 12.2564 24.421 12.5054 24.4761 11.813C24.5312 11.1204 25.3275 11.0371 25.5738 11.6745C25.821 12.3121 27.0831 12.2289 27.2201 11.5636C27.357 10.8983 27.8229 10.5382 28.2622 10.8154C28.7017 11.0927 29.8538 9.92877 29.8538 9.92877C29.8538 9.92877 28.5645 10.7599 28.235 10.6216C27.9063 10.4828 27.3298 10.3717 27.0831 10.9819C26.8357 11.5913 26.0954 11.841 25.821 11.2867C25.5463 10.7324 25.2164 10.4274 24.8324 10.677C24.4487 10.9262 24.8056 9.40223 25.6289 9.7625C26.4508 10.1228 27.2201 10.1228 27.3847 9.54102C27.5496 8.95883 28.2073 8.51564 28.2073 8.51564C28.2073 8.51564 27.6596 8.70941 27.357 9.15304C27.0556 9.59622 26.6982 9.8177 26.3417 9.65165C25.9858 9.48559 25.1621 9.31932 24.9973 9.48559C24.8324 9.65165 24.6684 10.0673 24.3389 9.95626C24.01 9.84541 23.8175 8.9034 24.641 8.73712C25.464 8.57062 25.7656 7.10229 25.7656 7.10229C25.7656 7.10229 25.107 8.40457 24.641 8.51564C24.1747 8.62672 23.6801 9.29138 23.6801 9.56873C23.6801 9.84541 24.147 10.5103 24.1747 10.8433C24.2019 11.1759 24.0364 11.8132 23.4057 11.9239C22.7743 12.035 22.3912 13.0603 21.8421 13.0603C21.2935 13.0603 21.458 12.0345 22.3359 11.7578C23.2142 11.4807 23.5705 10.7604 23.4333 10.3997C23.3691 10.2315 23.2027 10.3338 23.2122 10.5135C23.2234 10.7238 23.1706 10.9292 22.9673 11.0373C22.4459 11.3144 21.787 11.6195 21.5126 12.0072C21.2382 12.3948 21.0742 12.2285 20.7994 11.7297C20.5252 11.2311 20.5245 10.5662 21.375 10.4553C22.2263 10.3445 22.5826 9.62371 22.6377 9.18053C22.6926 8.73712 23.05 8.2108 23.8175 8.09995C24.5859 7.9891 25.0792 6.74225 25.0792 6.74225C25.0792 6.74225 24.5027 7.85076 23.5982 7.9339C22.6926 8.01704 22.5558 8.32188 22.3359 8.98654C22.117 9.65187 21.5677 10.0396 21.0193 10.1228C20.4701 10.2061 20.5794 9.37452 21.1833 8.9034C21.787 8.43228 21.7596 7.62928 21.4022 7.24108C21.0463 6.8531 21.458 6.10485 21.458 6.10485C21.458 6.10485 20.8817 6.35427 21.0463 6.8531C21.2108 7.3517 21.6226 7.68426 21.2382 8.23851C20.8545 8.79277 19.5921 10.3999 19.9212 11.2036C20.2499 12.0075 21.0193 12.7273 20.6894 13.1987C20.3596 13.6698 19.4819 12.8943 19.4819 11.8689C19.4819 10.8435 19.6663 9.58058 18.9229 9.27194C18.4241 9.06521 16.4633 8.68214 17.1766 8.15538C17.8905 7.62883 17.3149 6.38175 17.3149 6.38175C17.3149 6.38175 17.5336 7.46255 17.0673 7.85076C16.6005 8.23851 16.3261 8.73712 17.1766 9.0699C18.028 9.40223 18.9884 9.48559 19.0701 10.0121C19.1531 10.5387 19.2347 11.7578 18.7136 11.7301C18.1926 11.7022 17.183 11.1358 17.0673 10.3445C16.9945 9.84832 16.2996 9.73523 15.6133 9.92922C14.927 10.1228 14.1315 9.65165 14.1315 9.26367C14.1315 9.21352 14.1131 9.16614 14.0811 9.12167C14.053 9.08262 13.8566 9.32641 13.8566 9.37452C13.8566 9.87357 14.268 10.3724 15.037 10.317C15.8058 10.2616 16.6278 9.9842 16.7654 10.5941C16.9022 11.2036 17.5336 12.1733 18.3022 12.2567C19.0701 12.3396 19.4273 13.4481 19.4273 14.2515C19.4273 15.0554 19.0159 15.6651 18.824 14.9998C18.6321 14.3349 18.0552 12.7273 16.9301 13.1435C15.8058 13.5589 14.7905 13.3375 14.6254 12.9218C14.4608 12.5061 13.4724 11.8132 12.3473 12.1733C11.2226 12.5336 10.3992 10.8435 10.3992 10.8435C10.3992 10.8435 10.7021 11.8966 11.1686 12.2289C11.6343 12.561 12.2661 12.4504 12.8145 12.4504C13.3631 12.4504 13.7473 12.6169 14.1589 13.1153C14.5705 13.6146 14.8177 14.0298 15.8873 13.864C16.958 13.6977 17.3698 13.5866 17.8356 14.1688C18.3022 14.7504 18.0005 15.7757 17.4242 15.6372C16.8477 15.4988 16.4089 14.3903 15.4484 14.8339C14.4882 15.2774 12.9791 15.1388 12.7598 14.418C12.5409 13.6977 11.2226 13.0603 10.5094 13.4481C9.79566 13.8358 8.56101 13.2818 8.56101 13.2818C8.56101 13.2818 8.78076 13.9192 9.79566 13.8358C10.8115 13.7529 11.9091 13.5314 12.2108 14.1963C12.5131 14.8612 12.4024 15.5265 13.4461 15.5265C14.4882 15.5265 15.5035 15.3046 15.9424 15.4711C16.3815 15.6372 16.6278 16.33 16.244 16.5794C15.8601 16.8288 15.5035 16.2746 15.0645 16.1083C14.6254 15.9422 13.5824 16.2191 13.2263 16.6073C12.8696 16.9953 12.2656 17.272 12.0454 17.1057C11.8261 16.9397 12.0466 17.4106 12.5671 17.2443C13.0887 17.078 13.7754 16.5794 14.3242 16.4963C14.8722 16.4134 15.1191 16.6351 15.5303 16.9953C15.9424 17.3554 16.4089 17.2443 16.875 17.023C17.3426 16.8011 17.7533 16.5242 18.1647 16.8011C18.5764 17.078 19.7061 17.8006 19.2394 18.0775C19.0887 18.1673 18.4256 18.0424 18.1371 17.7156C17.6982 17.2168 16.3549 17.3556 15.7503 17.7433C15.147 18.1313 14.5327 17.7311 14.395 17.3433C14.3863 17.3185 14.3749 17.2959 14.3613 17.2751C14.2604 17.1216 14.2264 17.3663 14.2417 17.5494C14.2684 17.8821 14.5159 17.9928 14.7905 18.048C14.993 18.0891 14.9879 18.3246 14.7858 18.3674C14.4984 18.4284 14.1483 18.4523 13.9117 18.2974C13.4461 17.9928 12.5671 17.6877 11.4694 17.8265C10.3722 17.965 10.0161 16.9117 9.74122 16.3854C9.46747 15.8591 8.56101 15.8316 8.09472 16.136C7.62821 16.4411 7.27125 17.1337 7.27125 17.1337C7.27125 17.1337 7.87519 16.3025 8.64333 16.3302C9.41214 16.3577 9.63123 16.6346 9.74122 17.1614C9.85099 17.6877 10.7293 18.4085 11.7447 18.3803C12.7598 18.3533 13.8028 18.6576 14.104 18.9902C14.4057 19.3228 15.284 18.9623 16.0524 18.6579C16.8205 18.3533 17.6358 18.3434 18.2942 18.87C18.7578 19.2412 18.9922 19.548 19.0112 19.7188C19.0314 19.9011 18.6602 21.4423 17.8403 21.1525C17.6528 21.0861 17.4694 21.0508 17.2976 21.036C17.2425 21.0313 17.2413 21.24 17.2917 21.2629C17.8403 21.5125 18.4438 21.5402 18.6359 21.2908C18.9614 20.8688 19.1508 21.2415 18.8017 21.6443C18.5674 21.9147 18.2403 22.1249 17.8403 21.9555C16.9894 21.5959 16.2212 21.3739 15.3435 22.0945C14.465 22.815 13.9166 22.8982 13.258 22.1776C12.5991 21.4573 12.105 21.3183 11.145 21.7617C10.1849 22.2058 9.82753 21.7617 9.33402 21.18C8.84007 20.5982 9.03239 20.3486 8.2919 20.3211C7.55009 20.2931 6.97271 18.7942 6.97271 18.7942C6.97271 18.7942 7.29316 20.2478 7.98097 20.4847C8.65705 20.7173 8.81838 20.8615 9.15123 21.4928C9.48208 22.12 10.1028 22.4827 11.0626 22.2058C12.0231 21.9282 12.4628 21.9003 13.1205 22.5654C13.7791 23.2307 14.5473 23.397 15.5347 22.815C16.5229 22.233 17.0374 22.5301 16.6924 23.1389C16.3033 23.8252 15.5084 24.6438 14.3556 24.2004C13.2038 23.7568 13.0112 23.7847 12.7372 24.6161C12.4617 25.4473 11.4743 25.6967 11.0071 25.3364C10.5412 24.9762 10.4043 24.2559 9.74609 24.4776C9.08727 24.6993 8.94984 24.7822 8.51077 24.4221C8.07192 24.0619 7.79707 24.1729 7.57731 24.2281C7.35844 24.2834 7.16546 24.0619 7.16546 24.0619C7.16546 24.0619 7.24823 24.4499 7.6873 24.4221C8.12681 24.3942 8.18169 24.4501 8.51077 24.6713C8.84007 24.893 8.84007 25.0041 9.49845 24.8376C10.1573 24.6713 10.4036 25.3642 10.8157 25.669C11.2277 25.9738 12.1605 26.1401 12.7091 25.5029C13.258 24.8658 13.1482 24.4226 13.9164 24.5886C14.6854 24.7545 15.9603 25.2211 16.4954 24.2833C17.1859 23.0738 17.6396 23.4267 18.2163 23.3988C18.7919 23.3715 19.0778 22.714 19.2414 22.9082C19.6127 23.3512 19.3494 24.4221 18.3066 24.4221C17.2636 24.4221 15.5633 24.7545 15.2061 25.4473C14.8496 26.1401 14.274 26.7223 13.6419 26.3895C13.0112 26.057 12.4617 26.2512 11.6385 26.6941C10.8165 27.138 9.71754 26.9992 9.49845 26.4175C9.27914 25.8355 8.09981 26.0018 8.09981 26.0018C8.09981 26.0018 9.22448 26.1401 9.30636 26.7223C9.38913 27.3041 10.5966 27.5532 11.447 27.1655C12.2977 26.7777 12.8187 28.0521 11.6661 28.08C10.5142 28.1075 9.91074 28.828 9.91074 28.828C9.91074 28.828 10.6791 28.4126 11.2277 28.4126C11.7761 28.4126 12.6543 28.2465 12.627 27.7477C12.5998 27.2486 12.4349 27.0271 12.7638 26.8609C13.0933 26.6941 13.4228 26.8884 13.7791 26.9717C14.1359 27.0546 14.5747 27.1373 14.9315 26.6669C15.2884 26.1958 16.2478 25.5307 16.7152 25.5307C17.1817 25.5307 16.798 26.4727 16.2478 26.75C16.1898 26.7793 16.1392 26.813 16.095 26.8498C16.0008 26.9283 16.2463 27.0471 16.3591 26.9992C16.8805 26.7777 17.2094 26.2512 17.2642 25.863C17.3193 25.475 17.5933 25.2256 18.1692 25.3089C18.7454 25.3923 19.0477 25.42 19.3766 25.1704C19.7061 24.9207 19.4317 25.8909 18.8554 26.0295C18.2789 26.168 17.7305 26.0018 17.511 26.75C17.2917 27.4978 16.1666 27.2488 16.1117 27.9414C16.0568 28.634 15.261 28.7172 15.0136 28.08C14.767 27.4426 13.5045 27.5255 13.3675 28.1906C13.2303 28.856 12.7638 29.216 12.3256 28.9391C11.8861 28.6618 10.7329 29.8257 10.7329 29.8257C10.7329 29.8257 12.0231 28.9948 12.3526 29.1331C12.6824 29.2714 13.258 29.3823 13.5045 28.7731C13.7517 28.1629 14.4926 27.9135 14.767 28.468C15.0412 29.022 15.371 29.3266 15.7554 29.0777C16.1391 28.828 15.7817 30.3518 14.9594 29.992C14.1359 29.6319 13.3675 29.6319 13.2038 30.2134C13.0378 30.7956 12.3794 31.2388 12.3794 31.2388C12.3794 31.2388 12.9287 31.0453 13.2303 30.6014C13.5319 30.1582 13.8891 29.9363 14.2457 30.1028C14.6024 30.2691 15.4259 30.4352 15.5903 30.2691C15.7554 30.1028 15.9196 29.6874 16.2478 29.7978C16.578 29.9088 16.7705 30.8508 15.947 31.0171C15.1238 31.1834 14.8222 32.652 14.8222 32.652C14.8222 32.652 15.4761 31.3275 15.947 31.2388C16.7586 31.0866 16.9073 30.4631 16.9073 30.1857C16.9073 29.9088 16.4405 29.2439 16.4138 28.9112C16.3861 28.5786 16.551 27.9414 17.1817 27.8304C17.8131 27.7195 18.197 26.6941 18.7454 26.6941C19.2952 26.6941 19.0026 27.7479 18.0999 28.0963C17.0301 28.5093 17.017 28.9943 17.1547 29.3546C17.2186 29.5225 17.3847 29.4206 17.3753 29.2412C17.3642 29.0309 17.4171 28.8254 17.6205 28.7172C18.1415 28.4403 18.8003 28.1352 19.075 27.747C19.3494 27.3593 19.514 27.5257 19.7889 28.0248C20.0629 28.5232 20.0631 29.1883 19.2122 29.2991C18.3615 29.41 18.0047 30.1308 17.9503 30.5739C17.8947 31.0171 17.538 31.5437 16.7701 31.6545C16.0019 31.7654 15.5084 33.012 15.5084 33.012C15.5084 33.012 16.0847 31.9037 16.9905 31.8206C17.8947 31.7372 18.0324 31.4328 18.2521 30.7679C18.4712 30.1026 19.0203 29.7146 19.5691 29.6319C20.1175 29.5483 20.008 30.3799 19.4045 30.8508C18.8003 31.3217 18.8284 32.1254 19.1852 32.5136C19.5415 32.9014 19.1301 33.6496 19.1301 33.6496C19.1301 33.6496 19.7243 33.1675 19.5601 32.6689C19.3952 32.1699 18.9654 32.0702 19.3494 31.516C19.734 30.9615 20.9959 29.3544 20.6668 28.5507C20.3371 27.747 19.5687 27.0269 19.898 26.5558C20.2279 26.0847 21.105 26.8602 21.105 27.8858C21.105 28.9112 20.9959 30.2412 21.5175 30.3799C22.0387 30.5183 24.1245 31.0723 23.4107 31.5989C22.6975 32.1256 23.2731 33.3725 23.2731 33.3725C23.2731 33.3725 23.054 32.2915 23.5205 31.9037C23.9861 31.516 24.2617 31.0171 23.4107 30.6846C22.5596 30.3518 21.647 30.2052 21.5646 29.6789C21.4823 29.1521 21.3524 27.9966 21.8738 28.0246C22.3952 28.0521 23.4656 28.9109 23.5205 29.4098C23.5754 29.9086 24.2884 30.0195 24.9743 29.8252C25.6605 29.6319 26.3472 30.1185 26.4561 30.4906C26.6898 31.2878 27.554 31.1 27.554 31.1C27.554 31.1 26.7308 30.8783 26.7308 30.3799C26.7308 29.8809 26.3193 29.3821 25.5512 29.4375C24.7819 29.4931 23.9596 29.77 23.8226 29.1606C23.6847 28.5507 23.1507 27.6775 22.3967 27.5072C21.6779 27.3447 21.4181 26.388 21.4181 25.5845C21.4181 24.7806 21.6191 24.5755 21.8112 25.2403C22.0035 25.9054 22.5326 27.0269 23.6575 26.611C24.7819 26.1953 25.7977 26.4172 25.9624 26.8327C26.1266 27.2486 27.1149 27.9412 28.2401 27.5812C29.3652 27.2207 30.1882 28.9112 30.1882 28.9112C30.1882 28.9112 29.8852 27.8579 29.4194 27.5255C28.9535 27.1932 28.3219 27.304 27.7735 27.304C27.2245 27.304 26.8405 27.1373 26.4289 26.6389C26.0177 26.1399 25.7705 25.7244 24.7001 25.8909C23.6298 26.0567 23.218 26.1678 22.7519 25.5859C22.2854 25.0041 22.5864 23.9785 23.1631 24.1171C23.7398 24.2559 24.1785 25.3642 25.1398 24.9207C26.0994 24.4773 27.6087 24.6159 27.8278 25.3364C28.0475 26.0567 29.3477 26.6584 30.0778 26.3062C31.1774 25.7769 32.0266 26.4727 32.0266 26.4727C31.9055 26.1213 31.5065 25.8601 30.7917 25.9182C29.7761 26.0013 28.6789 26.2235 28.3773 25.5584C28.0752 24.893 28.1847 24.2281 27.1422 24.2281C26.0994 24.2281 25.0847 24.4499 24.6452 24.2833C24.2061 24.1171 23.9596 23.4247 24.3438 23.1748C24.7275 22.9254 25.0847 23.4799 25.5238 23.646C25.9624 23.8122 27.0052 23.5353 27.3621 23.1471C27.7187 22.7591 28.3219 22.4825 28.5417 22.6485C28.7614 22.815 28.5408 22.3439 28.0203 22.5102C27.4985 22.6762 26.8124 23.1748 26.264 23.2584C25.7152 23.3411 25.4687 23.1194 25.0573 22.7591C24.6452 22.3989 24.1784 22.5102 23.7122 22.7317C23.2459 22.9531 22.8342 23.2305 22.4226 22.9531C22.0114 22.6762 21.758 22.0918 22.2693 21.9103C22.663 21.7706 22.7566 21.995 23.386 22.2006C24.1087 22.4369 24.1638 22.2563 24.8375 22.0111C25.5561 21.7496 25.8796 22.2149 26.1832 22.4905C26.6301 22.8961 27.1145 22.6762 27.1145 22.6762C27.1145 22.6762 26.4468 22.5234 26.3459 22.2051C26.2368 21.8569 26.0722 21.7617 25.7977 21.7065C25.5952 21.6654 25.6002 21.4297 25.8024 21.3868C26.0895 21.3259 26.4391 21.3022 26.6756 21.4569C27.1422 21.7617 28.0203 22.0665 29.1182 21.928C30.215 21.7896 30.5724 22.843 30.8466 23.3688C31.1205 23.8954 32.0266 23.9231 32.4929 23.6182C32.9589 23.3138 33.3159 22.6206 33.3159 22.6206C33.3159 22.6206 32.7126 23.4522 31.9438 23.4242C31.1761 23.397 30.9561 23.1199 30.8466 22.5929C30.7366 22.0665 29.8589 21.3462 28.8435 21.3735C27.8278 21.4014 26.875 21.051 26.4831 20.7638C26.1219 20.4992 25.3038 20.792 24.5352 21.0968C23.7673 21.4014 23.1899 21.374 22.5326 20.8472C21.8908 20.3344 21.9465 19.7863 21.9498 19.7583C21.9499 19.7576 21.9493 19.7572 21.9486 19.7572C21.9482 19.7572 21.9478 19.757 21.9476 19.7567C21.7877 19.514 22.576 18.7032 23.2702 18.9062C23.3927 18.9421 23.511 18.9655 23.6245 18.9787C23.9749 19.0193 23.8553 18.7694 23.5404 18.6103C23.002 18.3385 22.6464 18.4561 22.289 18.7142C22.0347 18.8981 21.6339 18.8411 21.6717 18.5931C21.722 18.2603 22.2606 17.6611 23.1118 18.0218C23.9627 18.3819 24.3668 18.3803 25.2445 17.6602C26.1228 16.9394 26.6714 16.8565 27.3298 17.5766C27.9882 18.2974 28.4819 18.4357 29.442 17.9928C30.4031 17.5489 30.7598 17.9928 31.2542 18.5743C31.7475 19.1565 31.555 19.4057 32.2963 19.4336C33.0377 19.4613 33.6151 20.9603 33.6151 20.9603C33.6151 20.9603 33.2942 19.5065 32.6066 19.2698Z" fill="white"/>
</svg>
