<svg width="19" height="19" viewBox="0 0 19 19" fill="none" xmlns="http://www.w3.org/2000/svg">
<path opacity="0.8" d="M2.48508 1.07107L1.77798 0.363961L0.363764 1.77817L1.07087 2.48528L2.48508 1.07107ZM16.6272 18.0416L17.3343 18.7487L18.7485 17.3345L18.0414 16.6274L16.6272 18.0416ZM18.0414 2.48528L18.7485 1.77817L17.3343 0.363961L16.6272 1.07107L18.0414 2.48528ZM1.07087 16.6274L0.363764 17.3345L1.77798 18.7487L2.48508 18.0416L1.07087 16.6274ZM1.07087 2.48528L16.6272 18.0416L18.0414 16.6274L2.48508 1.07107L1.07087 2.48528ZM16.6272 1.07107L1.07087 16.6274L2.48508 18.0416L18.0414 2.48528L16.6272 1.07107Z" fill="#282C47"/>
</svg>
