<svg width="40" height="40" viewBox="0 0 40 40" fill="none" xmlns="http://www.w3.org/2000/svg">
    <path d="M26.7734 26.1406C26.7734 26.3125 26.6328 26.4531 26.4609 26.4531L23.8828 26.4414L20 21.8125L16.1211 26.4375L13.5391 26.4492C13.3672 26.4492 13.2266 26.3125 13.2266 26.1367C13.2266 26.0625 13.2539 25.9922 13.3008 25.9336L18.3828 19.8789L13.3008 13.8281C13.2536 13.7709 13.2274 13.6992 13.2266 13.625C13.2266 13.4531 13.3672 13.3125 13.5391 13.3125L16.1211 13.3242L20 17.9531L23.8789 13.3281L26.457 13.3164C26.6289 13.3164 26.7695 13.4531 26.7695 13.6289C26.7695 13.7031 26.7422 13.7734 26.6953 13.832L21.6211 19.8828L26.7031 25.9375C26.75 25.9922 26.7734 26.0664 26.7734 26.1406Z" fill="#5F6986"/>
    <path d="M20 37.4609C10.3359 37.4609 2.5 29.625 2.5 19.9609C2.5 10.2969 10.3359 2.46094 20 2.46094C29.6641 2.46094 37.5 10.2969 37.5 19.9609C37.5 29.625 29.6641 37.4609 20 37.4609ZM20 5.42969C11.9766 5.42969 5.46875 11.9375 5.46875 19.9609C5.46875 27.9844 11.9766 34.4922 20 34.4922C28.0234 34.4922 34.5312 27.9844 34.5312 19.9609C34.5312 11.9375 28.0234 5.42969 20 5.42969Z" fill="#5F6986"/>
</svg>
