<svg width="160" height="160" viewBox="0 0 160 160" fill="none" xmlns="http://www.w3.org/2000/svg">
    <g opacity="0.6">
        <path d="M0 5C0 2.23858 2.23858 0 5 0H153C155.761 0 158 2.23858 158 5V153C158 155.761 155.761 158 153 158H5C2.23858 158 0 155.761 0 153V5Z" fill="#10182B"/>
        <g clip-path="url(#clip0_8551_13901)">
            <path d="M81.8438 70.375V73.9375C81.8438 74.6723 81.2426 75.2734 80.5078 75.2734H74.2734V81.5078C74.2734 82.2426 73.6723 82.8438 72.9375 82.8438H69.375C68.6402 82.8438 68.0391 82.2426 68.0391 81.5078V75.2734H61.8047C61.0699 75.2734 60.4688 74.6723 60.4688 73.9375V70.375C60.4688 69.6402 61.0699 69.0391 61.8047 69.0391H68.0391V62.8047C68.0391 62.0699 68.6402 61.4688 69.375 61.4688H72.9375C73.6723 61.4688 74.2734 62.0699 74.2734 62.8047V69.0391H80.5078C81.2426 69.0391 81.8438 69.6402 81.8438 70.375ZM104.221 102.07L101.07 105.221C100.024 106.267 98.3314 106.267 97.2961 105.221L86.1855 94.1213C85.6846 93.6203 85.4062 92.9412 85.4062 92.2287V90.4141C81.4764 93.4867 76.5334 95.3125 71.1562 95.3125C58.3646 95.3125 48 84.9479 48 72.1562C48 59.3646 58.3646 49 71.1562 49C83.9479 49 94.3125 59.3646 94.3125 72.1562C94.3125 77.5334 92.4867 82.4764 89.4141 86.4062H91.2287C91.9412 86.4062 92.6203 86.6846 93.1213 87.1855L104.221 98.285C105.256 99.3314 105.256 101.024 104.221 102.07ZM86.2969 72.1562C86.2969 63.7844 79.5281 57.0156 71.1562 57.0156C62.7844 57.0156 56.0156 63.7844 56.0156 72.1562C56.0156 80.5281 62.7844 87.2969 71.1562 87.2969C79.5281 87.2969 86.2969 80.5281 86.2969 72.1562Z" fill="#DCDCDC"/>
        </g>
    </g>
    <defs>
        <clipPath id="clip0_8551_13901">
            <rect width="57" height="57" fill="white" transform="translate(48 49)"/>
        </clipPath>
    </defs>
</svg>
