<svg width="23" height="23" viewBox="0 0 23 23" fill="none" xmlns="http://www.w3.org/2000/svg">
<path d="M18.2339 0.640137H4.76505C3.62845 0.640137 2.5384 1.09165 1.7347 1.89535C0.931005 2.69904 0.479492 3.78909 0.479492 4.92569V18.3946C0.479492 18.9574 0.590341 19.5146 0.80571 20.0346C1.02108 20.5545 1.33675 21.027 1.7347 21.4249C2.13265 21.8229 2.60509 22.1385 3.12504 22.3539C3.64498 22.5693 4.20226 22.6801 4.76505 22.6801H18.2339C18.7967 22.6801 19.354 22.5693 19.8739 22.3539C20.3939 22.1385 20.8663 21.8229 21.2643 21.4249C21.6622 21.027 21.9779 20.5545 22.1933 20.0346C22.4086 19.5146 22.5195 18.9574 22.5195 18.3946V4.92569C22.5195 4.36291 22.4086 3.80563 22.1933 3.28568C21.9779 2.76573 21.6622 2.2933 21.2643 1.89535C20.8663 1.4974 20.3939 1.18172 19.8739 0.966355C19.354 0.750986 18.7967 0.640137 18.2339 0.640137ZM19.4584 3.18086H19.942V6.91541H16.2197V3.18086H19.4584ZM8.35879 9.40104C8.89932 8.65411 9.6888 8.12475 10.585 7.9083C11.4813 7.69186 12.4253 7.80256 13.2472 8.22046C14.069 8.63837 14.7146 9.33601 15.0677 10.1877C15.4207 11.0394 15.4581 11.9892 15.1729 12.866C14.8878 13.7428 14.2989 14.489 13.5124 14.9701C12.7259 15.4512 11.7935 15.6357 10.883 15.4902C9.97256 15.3448 9.14397 14.879 8.54649 14.1768C7.94901 13.4746 7.62191 12.5821 7.62413 11.6601C7.62648 10.8488 7.88345 10.0586 8.35879 9.40104ZM20.3767 18.3946C20.3792 18.6761 20.3254 18.9553 20.2184 19.2157C20.1114 19.4761 19.9535 19.7125 19.7539 19.911C19.5542 20.1095 19.3169 20.266 19.0559 20.3715C18.7949 20.477 18.5154 20.5292 18.2339 20.5251H4.76505C4.48407 20.5284 4.20526 20.4756 3.94495 20.3697C3.68465 20.2639 3.44808 20.1072 3.24909 19.9088C3.05011 19.7103 2.89272 19.4742 2.78614 19.2142C2.67956 18.9542 2.62593 18.6756 2.62839 18.3946V9.40104H5.91603C5.54552 10.3156 5.40534 11.3071 5.50778 12.2885C5.61023 13.2699 5.95217 14.2111 6.50356 15.0294C7.05494 15.8477 7.79889 16.518 8.67001 16.9815C9.54114 17.4449 10.5128 17.6873 11.4995 17.6873C12.4862 17.6873 13.4579 17.4449 14.329 16.9815C15.2001 16.518 15.944 15.8477 16.4954 15.0294C17.0468 14.2111 17.3888 13.2699 17.4912 12.2885C17.5936 11.3071 17.4535 10.3156 17.083 9.40104H20.3767V18.3946Z" fill="#5F6986"/>
</svg>
