<svg width="36" height="43" viewBox="0 0 36 43" fill="none" xmlns="http://www.w3.org/2000/svg">
<path d="M26.9087 20.5584C26.8397 20.6018 26.7798 20.6584 26.7325 20.7252C26.6852 20.792 26.6514 20.8676 26.633 20.9476C26.6147 21.0276 26.6121 21.1104 26.6255 21.1915C26.6389 21.2725 26.668 21.35 26.7111 21.4196C27.3793 22.4992 27.7336 23.7469 27.7336 25.0203C27.7336 26.2937 27.3793 27.5414 26.7111 28.621C26.6682 28.6907 26.6392 28.7682 26.6259 28.8492C26.6125 28.9301 26.6151 29.013 26.6335 29.093C26.6518 29.1729 26.6856 29.2484 26.7328 29.3152C26.78 29.382 26.8398 29.4387 26.9087 29.4822C26.9776 29.5256 27.0543 29.5549 27.1345 29.5684C27.2146 29.5818 27.2965 29.5792 27.3757 29.5607C27.4548 29.5421 27.5295 29.508 27.5956 29.4603C27.6617 29.4126 27.7178 29.3521 27.7608 29.2825C28.5491 28.0059 28.9671 26.5314 28.9671 25.0265C28.9671 23.5217 28.5491 22.0471 27.7608 20.7706C27.7189 20.6998 27.6636 20.6381 27.598 20.5891C27.5323 20.54 27.4578 20.5046 27.3785 20.4849C27.2993 20.4652 27.217 20.4615 27.1363 20.4741C27.0557 20.4868 26.9783 20.5154 26.9087 20.5584Z" fill="#5F6986"/>
<path d="M30.7242 18.4242C30.6836 18.3477 30.6276 18.2805 30.5599 18.2271C30.4921 18.1737 30.4141 18.1352 30.3308 18.114C30.2475 18.0928 30.1607 18.0894 30.076 18.104C29.9914 18.1187 29.9106 18.151 29.839 18.199C29.7674 18.2469 29.7065 18.3095 29.6601 18.3826C29.6138 18.4557 29.5831 18.5378 29.5699 18.6236C29.5568 18.7094 29.5615 18.797 29.5837 18.8809C29.606 18.9647 29.6453 19.043 29.6992 19.1106C30.8416 20.8607 31.4506 22.9112 31.4506 25.0078C31.4506 27.1044 30.8416 29.1549 29.6992 30.9049C29.6453 30.9725 29.606 31.0508 29.5837 31.1347C29.5615 31.2185 29.5568 31.3062 29.5699 31.392C29.5831 31.4778 29.6138 31.5598 29.6601 31.633C29.7065 31.7061 29.7674 31.7686 29.839 31.8166C29.9106 31.8645 29.9914 31.8969 30.076 31.9115C30.1607 31.9261 30.2475 31.9227 30.3308 31.9015C30.4141 31.8804 30.4921 31.8418 30.5599 31.7884C30.6276 31.735 30.6836 31.6679 30.7242 31.5914C31.9993 29.6375 32.6791 27.3484 32.6791 25.0078C32.6791 22.6672 31.9993 20.378 30.7242 18.4242Z" fill="#5F6986"/>
<path d="M23.1303 21.6193C23.0267 21.6616 22.9363 21.7315 22.8689 21.8216C22.8015 21.9117 22.7595 22.0187 22.7475 22.131C22.6731 22.8713 22.4986 23.5978 22.2289 24.2902C22.1658 24.4421 22.047 24.5633 21.8973 24.6285C21.7476 24.6937 21.5788 24.6977 21.4262 24.6396C21.3508 24.6094 21.282 24.5644 21.2237 24.5072C21.1655 24.45 21.119 24.3818 21.0869 24.3065C21.0548 24.2311 21.0377 24.1501 21.0366 24.0681C21.0355 23.986 21.0504 23.9046 21.0805 23.8284C21.7466 22.1383 21.723 20.2502 21.0147 18.5777C20.3065 16.9052 18.9714 15.5844 17.3018 14.9046H17.2277C15.8068 14.345 14.2401 14.2897 12.784 14.7477C11.328 15.2058 10.069 16.15 9.21339 17.4257C9.15647 17.5087 9.12032 17.6045 9.10807 17.7047C9.09581 17.8049 9.10781 17.9067 9.14303 18.0012C9.17825 18.0957 9.23564 18.1802 9.31027 18.2473C9.3849 18.3145 9.47455 18.3623 9.57151 18.3868C10.6211 18.6549 11.5804 19.2022 12.35 19.9718C12.4078 20.0298 12.4538 20.0989 12.4851 20.1749C12.5165 20.2509 12.5326 20.3325 12.5326 20.4149C12.5326 20.4973 12.5165 20.5788 12.4851 20.6549C12.4538 20.7309 12.4078 20.7999 12.35 20.858C12.2325 20.9731 12.0752 21.0375 11.9116 21.0375C11.7479 21.0375 11.5907 20.9731 11.4732 20.858C10.7493 20.1348 9.82204 19.6553 8.81824 19.4851C8.54148 19.4306 8.26045 19.4014 7.97853 19.3977C6.6685 19.3977 5.41213 19.9237 4.4858 20.8599C3.55947 21.7962 3.03906 23.066 3.03906 24.39C3.03906 25.7141 3.55947 26.9839 4.4858 27.9201C5.41213 28.8563 6.6685 29.3823 7.97853 29.3823H20.9446C21.8262 29.3846 22.6872 29.1136 23.4116 28.6059C24.136 28.0981 24.689 27.3781 24.9958 26.5428C25.3027 25.7076 25.3488 24.7973 25.1278 23.9348C24.9069 23.0722 24.4295 22.2989 23.7601 21.7191C23.6741 21.6462 23.5699 21.5983 23.459 21.5807C23.348 21.5631 23.2344 21.5764 23.1303 21.6193Z" fill="#5F6986"/>
</svg>
