<svg width="31" height="17" viewBox="0 0 31 17" fill="none" xmlns="http://www.w3.org/2000/svg">
<path d="M12.9188 16.6796H25.8388V16.627C28.4169 16.2668 30.3988 14.1011 30.3988 11.4834C30.3988 8.70932 28.1733 6.44299 25.3711 6.29479C24.7473 3.60472 20.9295 0.719727 18.2388 0.719727C16.7502 0.719727 13.6788 1.46205 12.9188 3.31787C12.9191 3.80136 12.919 4.62893 12.9189 5.53846L12.9188 16.6796Z" fill="#5F6986"/>
<path d="M11.7788 3.83387C11.9887 3.83387 12.1588 4.00815 12.1588 4.22314V16.2905C12.1588 16.5054 11.9887 16.6797 11.7788 16.6797C11.5689 16.6797 11.3988 16.5054 11.3988 16.2905V4.22314C11.3988 4.00815 11.5689 3.83387 11.7788 3.83387Z" fill="#5F6986"/>
<path d="M7.59879 5.00168C7.59879 4.78669 7.42866 4.61241 7.21879 4.61241C7.00892 4.61241 6.83879 4.78669 6.83879 5.00168V16.2905C6.83879 16.5054 7.00892 16.6797 7.21879 16.6797C7.42866 16.6797 7.59879 16.5054 7.59879 16.2905V5.00168Z" fill="#5F6986"/>
<path d="M5.69879 5.78021C5.90866 5.78021 6.07879 5.9545 6.07879 6.16948V16.2905C6.07879 16.5054 5.90866 16.6797 5.69879 16.6797C5.48892 16.6797 5.31879 16.5054 5.31879 16.2905V6.16948C5.31879 5.9545 5.48892 5.78021 5.69879 5.78021Z" fill="#5F6986"/>
<path d="M4.55879 8.89436C4.55879 8.67937 4.38866 8.50509 4.17879 8.50509C3.96892 8.50509 3.79879 8.67937 3.79879 8.89436V15.9012C3.79879 16.1162 3.96892 16.2905 4.17879 16.2905C4.38866 16.2905 4.55879 16.1162 4.55879 15.9012V8.89436Z" fill="#5F6986"/>
<path d="M2.65879 9.28363C2.86866 9.28363 3.03879 9.45791 3.03879 9.6729V15.9012C3.03879 16.1162 2.86866 16.2905 2.65879 16.2905C2.44892 16.2905 2.27879 16.1162 2.27879 15.9012V9.6729C2.27879 9.45791 2.44892 9.28363 2.65879 9.28363Z" fill="#5F6986"/>
<path d="M1.13879 10.8407C1.34866 10.8407 1.51879 11.015 1.51879 11.23V14.7334C1.51879 14.9484 1.34866 15.1227 1.13879 15.1227C0.928921 15.1227 0.758789 14.9484 0.758789 14.7334V11.23C0.758789 11.015 0.928921 10.8407 1.13879 10.8407Z" fill="#5F6986"/>
<path d="M8.73879 4.61241C8.94866 4.61241 9.11879 4.78669 9.11879 5.00168V16.2905C9.11879 16.5054 8.94866 16.6797 8.73879 16.6797C8.52892 16.6797 8.35879 16.5054 8.35879 16.2905V5.00168C8.35879 4.78669 8.52892 4.61241 8.73879 4.61241Z" fill="#5F6986"/>
<path d="M10.6388 5.78021C10.6388 5.56523 10.4687 5.39095 10.2588 5.39095C10.0489 5.39095 9.87879 5.56523 9.87879 5.78021V16.2905C9.87879 16.5054 10.0489 16.6797 10.2588 16.6797C10.4687 16.6797 10.6388 16.5054 10.6388 16.2905V5.78021Z" fill="#5F6986"/>
</svg>
