<svg width="28" height="23" viewBox="0 0 28 23" fill="none" xmlns="http://www.w3.org/2000/svg">
<path d="M27.8786 3.24218C26.8543 3.69089 25.7682 3.98545 24.6562 4.11613C25.8266 3.42234 26.702 2.32955 27.1186 1.04223C26.017 1.69063 24.8114 2.14678 23.5542 2.39083C22.7835 1.57954 21.785 1.01618 20.6878 0.773627C19.5906 0.531071 18.4453 0.62048 17.3999 1.03029C16.3546 1.4401 15.4573 2.15145 14.8243 3.07231C14.1912 3.99317 13.8514 5.08117 13.849 6.19554C13.8473 6.62158 13.8958 7.04635 13.9934 7.46127C11.7613 7.35038 9.57762 6.77602 7.58371 5.77538C5.5898 4.77474 3.8301 3.37012 2.41855 1.65249C1.70245 2.87822 1.48382 4.3282 1.80707 5.70793C2.13032 7.08767 2.97121 8.29371 4.15896 9.0811C3.26683 9.05361 2.39411 8.81602 1.61296 8.38796V8.45577C1.61372 9.74091 2.06292 10.9862 2.88437 11.9804C3.70582 12.9747 4.84892 13.6566 6.11976 13.9104C5.63712 14.0427 5.13847 14.1086 4.63775 14.1063C4.27566 14.1086 3.91421 14.0758 3.55855 14.0084C3.9157 15.115 4.61357 16.0829 5.55414 16.7761C6.4947 17.4694 7.6307 17.8531 8.80256 17.8734C6.45324 19.6894 3.47805 20.5174 0.518555 20.1788C3.08486 21.8135 6.07135 22.6818 9.12175 22.6801C19.4502 22.6801 25.0818 14.2043 25.0818 6.85854C25.0818 6.61745 25.0818 6.37636 25.0818 6.10513C26.1777 5.3226 27.1247 4.35321 27.8786 3.24218Z" fill="#5F6986"/>
</svg>
