<svg width="26" height="23" viewBox="0 0 26 23" fill="none" xmlns="http://www.w3.org/2000/svg">
<path d="M18.209 2.9409V7.85779C18.0942 7.99501 17.9585 8.1135 17.8071 8.20899C17.6947 8.28854 17.5637 8.3379 17.4267 8.35234C17.3783 8.35493 17.3299 8.3466 17.2852 8.32799C17.2405 8.30938 17.2005 8.28096 17.1683 8.24483C17.0965 8.14792 17.0633 8.02791 17.075 7.90796V2.9409H15.7471V8.35234C15.7238 8.66227 15.8074 8.97083 15.9839 9.22678C16.0711 9.32944 16.182 9.40925 16.3071 9.45922C16.4323 9.5092 16.5677 9.52782 16.7017 9.51348C16.974 9.51006 17.2417 9.44383 17.4841 9.31996C17.7681 9.16101 18.0229 8.955 18.2378 8.71072V9.42747H19.5656V2.97674L18.209 2.9409ZM14.1608 3.25627C13.7882 2.92627 13.3017 2.75404 12.8042 2.77605C12.2866 2.75631 11.7786 2.91866 11.3686 3.23476C11.1939 3.38006 11.055 3.56365 10.9629 3.77125C10.8708 3.97885 10.8279 4.20487 10.8375 4.43173V7.78611C10.8264 8.02874 10.8667 8.27096 10.9558 8.49697C11.0448 8.72298 11.1806 8.9277 11.3543 9.09776C11.7548 9.41403 12.2505 9.58608 12.7611 9.58608C13.2717 9.58608 13.7674 9.41403 14.168 9.09776C14.346 8.93373 14.4854 8.73227 14.576 8.50792C14.6666 8.28357 14.7062 8.04194 14.6919 7.80045V4.48907C14.6988 4.25666 14.6541 4.02562 14.561 3.81249C14.4679 3.59935 14.3288 3.40941 14.1536 3.25627H14.1608ZM13.3282 7.91513C13.331 7.98929 13.3185 8.06324 13.2913 8.13232C13.2641 8.2014 13.2229 8.26411 13.1702 8.31651C13.1132 8.37093 13.0455 8.41302 12.9714 8.44016C12.8973 8.46729 12.8184 8.47887 12.7396 8.47419C12.6652 8.47841 12.5907 8.4665 12.5213 8.43929C12.4519 8.41207 12.3893 8.37018 12.3376 8.31651C12.2392 8.20649 12.1877 8.06248 12.1941 7.91513V4.37439C12.1912 4.30969 12.2041 4.24525 12.2316 4.18659C12.2591 4.12793 12.3004 4.07679 12.352 4.03752C12.4592 3.94533 12.5984 3.89898 12.7396 3.90851C12.8938 3.89988 13.0462 3.94554 13.1702 4.03752C13.2218 4.07679 13.2631 4.12793 13.2906 4.18659C13.3181 4.24525 13.331 4.30969 13.3282 4.37439V7.91513ZM9.20811 0.640137L8.28218 4.1522H8.17451L7.21269 0.640137H5.70536L7.48545 5.92257V9.3988H8.9856V5.77922L10.7154 0.640137H9.20811ZM19.5585 16.1076C19.648 16.2667 19.688 16.4488 19.6733 16.6308V17.2257H18.6612V16.6308C18.6405 16.4476 18.6836 16.2628 18.7833 16.1076C18.8343 16.0531 18.896 16.0097 18.9645 15.98C19.033 15.9503 19.1069 15.935 19.1816 15.935C19.2563 15.935 19.3302 15.9503 19.3988 15.98C19.4673 16.0097 19.529 16.0531 19.58 16.1076H19.5585ZM15.4671 16.1076C15.423 16.0542 15.3668 16.0121 15.3031 15.9847C15.2395 15.9573 15.1702 15.9454 15.1011 15.9499C15.0146 15.9472 14.9287 15.9644 14.8498 16C14.7593 16.0492 14.677 16.1121 14.6058 16.1864V19.8561C14.6879 19.9425 14.7852 20.0129 14.8929 20.064C14.9787 20.1032 15.0714 20.1251 15.1657 20.1285C15.226 20.1361 15.2874 20.1283 15.3439 20.1057C15.4004 20.0831 15.4502 20.0466 15.4887 19.9995C15.57 19.8822 15.608 19.7403 15.5963 19.5981V16.5233C15.6118 16.3652 15.5684 16.207 15.4743 16.0789L15.4671 16.1076ZM15.4671 16.1076C15.423 16.0542 15.3668 16.0121 15.3031 15.9847C15.2395 15.9573 15.1702 15.9454 15.1011 15.9499C15.0146 15.9472 14.9287 15.9644 14.8498 16C14.7593 16.0492 14.677 16.1121 14.6058 16.1864V19.8561C14.6879 19.9425 14.7852 20.0129 14.8929 20.064C14.9787 20.1032 15.0714 20.1251 15.1657 20.1285C15.226 20.1361 15.2874 20.1283 15.3439 20.1057C15.4004 20.0831 15.4502 20.0466 15.4887 19.9995C15.57 19.8822 15.608 19.7403 15.5963 19.5981V16.5233C15.6118 16.3652 15.5684 16.207 15.4743 16.0789L15.4671 16.1076ZM22.1496 11.5705H3.6884C2.71413 11.5761 1.78114 11.9641 1.09087 12.6507C0.400603 13.3373 0.00842983 14.2674 -0.000976562 15.2403V19.0032C0.00281448 19.9785 0.392961 20.9126 1.08424 21.6015C1.77552 22.2905 2.71174 22.6783 3.6884 22.6801H22.1496C23.1282 22.6764 24.0655 22.286 24.7568 21.5944C25.4481 20.9028 25.8371 19.966 25.839 18.9889V15.2403C25.8371 14.2625 25.4483 13.325 24.7572 12.6322C24.0661 11.9395 23.1289 11.5475 22.1496 11.5419V11.5705ZM8.65542 14.158H7.27729V20.9743H5.9494V14.1293H4.58562V12.9682H8.6626L8.65542 14.158ZM12.5386 20.9743H11.3543V20.2575C11.1676 20.4818 10.9383 20.667 10.6796 20.8023C10.473 20.925 10.238 20.9917 9.99767 20.9958C9.87913 21.0056 9.76 20.9859 9.651 20.9383C9.542 20.8908 9.44654 20.8169 9.3732 20.7234C9.22588 20.4907 9.15789 20.2166 9.1794 19.9422V15.0539H10.3494V19.5408C10.3415 19.6471 10.3693 19.753 10.4283 19.8418C10.4568 19.8759 10.4935 19.9023 10.5349 19.9186C10.5762 19.9349 10.6211 19.9405 10.6652 19.935C10.7834 19.9255 10.896 19.8805 10.9882 19.806C11.1301 19.7263 11.2545 19.6191 11.3543 19.4906V15.0539H12.5386V20.9743ZM16.8453 19.7486C16.8425 20.0886 16.7235 20.4173 16.5079 20.6804C16.4082 20.7937 16.284 20.8828 16.1448 20.9412C16.0055 20.9995 15.8548 21.0255 15.704 21.0173C15.4909 21.0238 15.2793 20.9796 15.0867 20.8883C14.8915 20.7901 14.7182 20.6536 14.5771 20.4869V20.9743H13.4286V12.9682H14.613V15.527C14.7579 15.3643 14.9304 15.2284 15.1226 15.1256C15.2909 15.0364 15.4776 14.9874 15.6681 14.9823C15.8293 14.9741 15.9902 15.0043 16.1374 15.0703C16.2847 15.1363 16.4141 15.2364 16.5151 15.3621C16.7356 15.681 16.8418 16.0649 16.8166 16.4516L16.8453 19.7486ZM20.9366 18.1718H18.6612V19.2541C18.6396 19.4725 18.6768 19.6927 18.7689 19.892C18.8136 19.9552 18.8745 20.0052 18.9452 20.0367C19.016 20.0683 19.0939 20.0802 19.1709 20.0712C19.2456 20.0792 19.3212 20.069 19.3912 20.0416C19.4612 20.0141 19.5235 19.9702 19.5728 19.9135C19.673 19.7065 19.7128 19.4755 19.6877 19.2469V18.9745H20.9151V19.2756C20.9344 19.5229 20.9036 19.7715 20.8247 20.0067C20.7458 20.2419 20.6203 20.4588 20.4557 20.6446C20.2809 20.8079 20.0735 20.9325 19.8472 21.0103C19.6208 21.0882 19.3806 21.1174 19.1422 21.0961C18.9117 21.1099 18.681 21.0741 18.4655 20.9913C18.2501 20.9084 18.0549 20.7804 17.8932 20.6159C17.5753 20.2439 17.4133 19.7638 17.441 19.2756V16.638C17.4323 16.4065 17.4726 16.1758 17.5592 15.9609C17.6457 15.746 17.7767 15.5518 17.9435 15.3908C18.1154 15.2302 18.3174 15.1051 18.5379 15.0227C18.7584 14.9403 18.993 14.9022 19.2283 14.9106C19.4547 14.8975 19.6813 14.9315 19.8938 15.0104C20.1064 15.0894 20.3001 15.2116 20.4629 15.3693C20.6181 15.5419 20.7373 15.7435 20.8137 15.9626C20.8901 16.1816 20.9221 16.4136 20.9079 16.6451L20.9366 18.1718ZM15.0724 15.9212C14.9859 15.9186 14.8999 15.9357 14.8211 15.9714C14.7306 16.0205 14.6483 16.0834 14.5771 16.1577V19.8275C14.6592 19.9138 14.7565 19.9843 14.8642 20.0353C14.95 20.0745 15.0427 20.0964 15.137 20.0998C15.1973 20.1074 15.2587 20.0996 15.3152 20.077C15.3717 20.0545 15.4215 20.0179 15.46 19.9708C15.5413 19.8535 15.5793 19.7117 15.5676 19.5695V16.5233C15.5811 16.3643 15.535 16.206 15.4384 16.0789C15.3943 16.0255 15.338 15.9834 15.2744 15.956C15.2108 15.9286 15.1415 15.9167 15.0724 15.9212ZM15.4384 16.0789C15.3943 16.0255 15.338 15.9834 15.2744 15.956C15.2108 15.9286 15.1415 15.9167 15.0724 15.9212C14.9859 15.9186 14.8999 15.9357 14.8211 15.9714C14.7306 16.0205 14.6483 16.0834 14.5771 16.1577V19.8275C14.6592 19.9138 14.7565 19.9843 14.8642 20.0353C14.95 20.0745 15.0427 20.0964 15.137 20.0998C15.1973 20.1074 15.2587 20.0996 15.3152 20.077C15.3717 20.0545 15.4215 20.0179 15.46 19.9708C15.5413 19.8535 15.5793 19.7117 15.5676 19.5695V16.5233C15.5915 16.3687 15.5583 16.2108 15.4743 16.0789H15.4384ZM15.4384 16.0789C15.3943 16.0255 15.338 15.9834 15.2744 15.956C15.2108 15.9286 15.1415 15.9167 15.0724 15.9212C14.9859 15.9186 14.8999 15.9357 14.8211 15.9714C14.7306 16.0205 14.6483 16.0834 14.5771 16.1577V19.8275C14.6592 19.9138 14.7565 19.9843 14.8642 20.0353C14.95 20.0745 15.0427 20.0964 15.137 20.0998C15.1973 20.1074 15.2587 20.0996 15.3152 20.077C15.3717 20.0545 15.4215 20.0179 15.46 19.9708C15.5413 19.8535 15.5793 19.7117 15.5676 19.5695V16.5233C15.5915 16.3687 15.5583 16.2108 15.4743 16.0789H15.4384Z" fill="#5F6986"/>
</svg>
